STARTFONT 2.1
FONT -Zpix-Regular-R-Regular--12-12-75-75-c-80-iso10646-1
SIZE 12 75 75
FONTBOUNDINGBOX 27 16 -15 -6
STARTPROPERTIES 10
FAMILY_NAME Zpix
WEIGHT_NAME Regular
FONT_VERSION Version 1.0
COPYRIGHT https://github.com/SolidZORO/zpix-pixel-font
FOUNDRY Made with Bits'n'Picas by Kreative Software
FONT_ASCENT 10
FONT_DESCENT 2
CAP_HEIGHT 10
POINT_SIZE 12
X_HEIGHT 6
ENDPROPERTIES
CHARS 22235
STARTCHAR U+0000
ENCODING 0
SWIDTH 0 0
DWIDTH 0 0
BBX 0 0 0 0
BITMAP
ENDCHAR
STARTCHAR U+000A
ENCODING 10
SWIDTH 185 0
DWIDTH 5 0
BBX 0 0 0 0
BITMAP
ENDCHAR
STARTCHAR U+0020
ENCODING 32
SWIDTH 185 0
DWIDTH 5 0
BBX 0 0 0 0
BITMAP
ENDCHAR
STARTCHAR U+0021
ENCODING 33
SWIDTH 111 0
DWIDTH 3 0
BBX 1 9 0 -1
BITMAP
80
80
80
80
80
80
00
80
80
ENDCHAR
STARTCHAR U+0022
ENCODING 34
SWIDTH 185 0
DWIDTH 5 0
BBX 3 2 0 6
BITMAP
A0
A0
ENDCHAR
STARTCHAR U+0023
ENCODING 35
SWIDTH 259 0
DWIDTH 7 0
BBX 5 9 0 -1
BITMAP
50
50
F8
50
50
50
F8
50
50
ENDCHAR
STARTCHAR U+0024
ENCODING 36
SWIDTH 259 0
DWIDTH 7 0
BBX 5 9 0 -1
BITMAP
20
70
A8
A0
70
28
A8
70
20
ENDCHAR
STARTCHAR U+0025
ENCODING 37
SWIDTH 259 0
DWIDTH 7 0
BBX 6 8 1 -1
BITMAP
48
A8
B0
50
28
34
54
48
ENDCHAR
STARTCHAR U+0026
ENCODING 38
SWIDTH 259 0
DWIDTH 7 0
BBX 5 9 1 -1
BITMAP
60
90
90
60
40
A8
A8
90
68
ENDCHAR
STARTCHAR U+0027
ENCODING 39
SWIDTH 111 0
DWIDTH 3 0
BBX 1 2 0 6
BITMAP
80
80
ENDCHAR
STARTCHAR U+0028
ENCODING 40
SWIDTH 185 0
DWIDTH 5 0
BBX 3 11 0 -2
BITMAP
20
40
40
80
80
80
80
80
40
40
20
ENDCHAR
STARTCHAR U+0029
ENCODING 41
SWIDTH 185 0
DWIDTH 5 0
BBX 3 11 0 -2
BITMAP
80
40
40
20
20
20
20
20
40
40
80
ENDCHAR
STARTCHAR U+002A
ENCODING 42
SWIDTH 259 0
DWIDTH 7 0
BBX 5 5 0 1
BITMAP
20
20
F8
20
50
ENDCHAR
STARTCHAR U+002B
ENCODING 43
SWIDTH 259 0
DWIDTH 7 0
BBX 5 5 0 1
BITMAP
20
20
F8
20
20
ENDCHAR
STARTCHAR U+002C
ENCODING 44
SWIDTH 148 0
DWIDTH 4 0
BBX 2 3 0 -3
BITMAP
40
40
80
ENDCHAR
STARTCHAR U+002D
ENCODING 45
SWIDTH 259 0
DWIDTH 7 0
BBX 5 1 0 3
BITMAP
F8
ENDCHAR
STARTCHAR U+002E
ENCODING 46
SWIDTH 148 0
DWIDTH 4 0
BBX 1 2 1 -1
BITMAP
80
80
ENDCHAR
STARTCHAR U+002F
ENCODING 47
SWIDTH 259 0
DWIDTH 7 0
BBX 3 9 1 -1
BITMAP
20
20
20
40
40
40
80
80
80
ENDCHAR
STARTCHAR U+0030
ENCODING 48
SWIDTH 259 0
DWIDTH 7 0
BBX 5 9 0 -1
BITMAP
70
88
88
88
88
88
88
88
70
ENDCHAR
STARTCHAR U+0031
ENCODING 49
SWIDTH 148 0
DWIDTH 4 0
BBX 2 9 0 -1
BITMAP
40
C0
40
40
40
40
40
40
40
ENDCHAR
STARTCHAR U+0032
ENCODING 50
SWIDTH 259 0
DWIDTH 7 0
BBX 5 9 0 -1
BITMAP
70
88
88
08
10
20
40
80
F8
ENDCHAR
STARTCHAR U+0033
ENCODING 51
SWIDTH 259 0
DWIDTH 7 0
BBX 5 9 0 -1
BITMAP
70
88
88
08
30
08
88
88
70
ENDCHAR
STARTCHAR U+0034
ENCODING 52
SWIDTH 259 0
DWIDTH 7 0
BBX 5 9 0 -1
BITMAP
10
30
30
50
50
90
F8
10
10
ENDCHAR
STARTCHAR U+0035
ENCODING 53
SWIDTH 259 0
DWIDTH 7 0
BBX 5 9 0 -1
BITMAP
F8
80
80
F0
88
08
08
88
70
ENDCHAR
STARTCHAR U+0036
ENCODING 54
SWIDTH 259 0
DWIDTH 7 0
BBX 5 9 0 -1
BITMAP
70
88
80
F0
88
88
88
88
70
ENDCHAR
STARTCHAR U+0037
ENCODING 55
SWIDTH 259 0
DWIDTH 7 0
BBX 5 9 0 -1
BITMAP
F8
88
08
10
10
20
20
20
20
ENDCHAR
STARTCHAR U+0038
ENCODING 56
SWIDTH 259 0
DWIDTH 7 0
BBX 5 9 0 -1
BITMAP
70
88
88
88
70
88
88
88
70
ENDCHAR
STARTCHAR U+0039
ENCODING 57
SWIDTH 259 0
DWIDTH 7 0
BBX 5 9 0 -1
BITMAP
70
88
88
88
88
78
08
88
70
ENDCHAR
STARTCHAR U+003A
ENCODING 58
SWIDTH 185 0
DWIDTH 5 0
BBX 1 6 1 -1
BITMAP
80
80
00
00
80
80
ENDCHAR
STARTCHAR U+003B
ENCODING 59
SWIDTH 148 0
DWIDTH 4 0
BBX 2 7 0 -2
BITMAP
40
40
00
00
40
40
80
ENDCHAR
STARTCHAR U+003C
ENCODING 60
SWIDTH 259 0
DWIDTH 7 0
BBX 5 9 0 -1
BITMAP
08
10
20
40
80
40
20
10
08
ENDCHAR
STARTCHAR U+003D
ENCODING 61
SWIDTH 259 0
DWIDTH 7 0
BBX 5 4 0 1
BITMAP
F8
00
00
F8
ENDCHAR
STARTCHAR U+003E
ENCODING 62
SWIDTH 259 0
DWIDTH 7 0
BBX 5 9 0 -1
BITMAP
80
40
20
10
08
10
20
40
80
ENDCHAR
STARTCHAR U+003F
ENCODING 63
SWIDTH 259 0
DWIDTH 7 0
BBX 5 9 0 -1
BITMAP
70
88
08
10
20
20
00
20
20
ENDCHAR
STARTCHAR U+0040
ENCODING 64
SWIDTH 259 0
DWIDTH 7 0
BBX 5 9 0 -1
BITMAP
70
88
98
A8
A8
A8
B8
80
70
ENDCHAR
STARTCHAR U+0041
ENCODING 65
SWIDTH 259 0
DWIDTH 7 0
BBX 5 9 0 -1
BITMAP
20
20
50
50
50
70
88
88
88
ENDCHAR
STARTCHAR U+0042
ENCODING 66
SWIDTH 259 0
DWIDTH 7 0
BBX 5 9 0 -1
BITMAP
F0
88
88
88
F0
88
88
88
F0
ENDCHAR
STARTCHAR U+0043
ENCODING 67
SWIDTH 259 0
DWIDTH 7 0
BBX 5 9 0 -1
BITMAP
70
88
88
80
80
80
88
88
70
ENDCHAR
STARTCHAR U+0044
ENCODING 68
SWIDTH 259 0
DWIDTH 7 0
BBX 5 9 0 -1
BITMAP
F0
88
88
88
88
88
88
88
F0
ENDCHAR
STARTCHAR U+0045
ENCODING 69
SWIDTH 259 0
DWIDTH 7 0
BBX 5 9 0 -1
BITMAP
F8
80
80
80
F8
80
80
80
F8
ENDCHAR
STARTCHAR U+0046
ENCODING 70
SWIDTH 259 0
DWIDTH 7 0
BBX 5 9 0 -1
BITMAP
F8
80
80
80
F0
80
80
80
80
ENDCHAR
STARTCHAR U+0047
ENCODING 71
SWIDTH 259 0
DWIDTH 7 0
BBX 5 9 0 -1
BITMAP
70
88
88
80
B8
88
88
98
68
ENDCHAR
STARTCHAR U+0048
ENCODING 72
SWIDTH 259 0
DWIDTH 7 0
BBX 5 9 0 -1
BITMAP
88
88
88
88
F8
88
88
88
88
ENDCHAR
STARTCHAR U+0049
ENCODING 73
SWIDTH 259 0
DWIDTH 7 0
BBX 5 9 0 -1
BITMAP
F8
20
20
20
20
20
20
20
F8
ENDCHAR
STARTCHAR U+004A
ENCODING 74
SWIDTH 259 0
DWIDTH 7 0
BBX 5 9 0 -1
BITMAP
08
08
08
08
08
08
88
88
70
ENDCHAR
STARTCHAR U+004B
ENCODING 75
SWIDTH 259 0
DWIDTH 7 0
BBX 5 9 0 -1
BITMAP
88
90
90
A0
C0
A0
90
90
88
ENDCHAR
STARTCHAR U+004C
ENCODING 76
SWIDTH 259 0
DWIDTH 7 0
BBX 5 9 0 -1
BITMAP
80
80
80
80
80
80
80
80
F8
ENDCHAR
STARTCHAR U+004D
ENCODING 77
SWIDTH 259 0
DWIDTH 7 0
BBX 5 9 0 -1
BITMAP
88
88
D8
D8
A8
A8
88
88
88
ENDCHAR
STARTCHAR U+004E
ENCODING 78
SWIDTH 259 0
DWIDTH 7 0
BBX 5 9 0 -1
BITMAP
88
C8
C8
A8
A8
98
98
88
88
ENDCHAR
STARTCHAR U+004F
ENCODING 79
SWIDTH 259 0
DWIDTH 7 0
BBX 5 9 0 -1
BITMAP
70
88
88
88
88
88
88
88
70
ENDCHAR
STARTCHAR U+0050
ENCODING 80
SWIDTH 259 0
DWIDTH 7 0
BBX 5 9 0 -1
BITMAP
F0
88
88
88
F0
80
80
80
80
ENDCHAR
STARTCHAR U+0051
ENCODING 81
SWIDTH 259 0
DWIDTH 7 0
BBX 5 10 0 -2
BITMAP
70
88
88
88
88
88
88
A8
70
08
ENDCHAR
STARTCHAR U+0052
ENCODING 82
SWIDTH 259 0
DWIDTH 7 0
BBX 5 9 0 -1
BITMAP
F0
88
88
88
F0
90
88
88
88
ENDCHAR
STARTCHAR U+0053
ENCODING 83
SWIDTH 259 0
DWIDTH 7 0
BBX 5 9 0 -1
BITMAP
70
88
88
40
20
10
88
88
70
ENDCHAR
STARTCHAR U+0054
ENCODING 84
SWIDTH 259 0
DWIDTH 7 0
BBX 5 9 0 -1
BITMAP
F8
20
20
20
20
20
20
20
20
ENDCHAR
STARTCHAR U+0055
ENCODING 85
SWIDTH 259 0
DWIDTH 7 0
BBX 5 9 0 -1
BITMAP
88
88
88
88
88
88
88
88
70
ENDCHAR
STARTCHAR U+0056
ENCODING 86
SWIDTH 259 0
DWIDTH 7 0
BBX 5 9 0 -1
BITMAP
88
88
88
50
50
50
20
20
20
ENDCHAR
STARTCHAR U+0057
ENCODING 87
SWIDTH 259 0
DWIDTH 7 0
BBX 5 9 0 -1
BITMAP
A8
A8
A8
A8
A8
A8
50
50
50
ENDCHAR
STARTCHAR U+0058
ENCODING 88
SWIDTH 259 0
DWIDTH 7 0
BBX 5 9 0 -1
BITMAP
88
88
50
50
20
50
50
88
88
ENDCHAR
STARTCHAR U+0059
ENCODING 89
SWIDTH 259 0
DWIDTH 7 0
BBX 5 9 0 -1
BITMAP
88
88
88
50
50
20
20
20
20
ENDCHAR
STARTCHAR U+005A
ENCODING 90
SWIDTH 259 0
DWIDTH 7 0
BBX 5 9 0 -1
BITMAP
F8
08
10
10
20
40
40
80
F8
ENDCHAR
STARTCHAR U+005B
ENCODING 91
SWIDTH 148 0
DWIDTH 4 0
BBX 2 11 0 -2
BITMAP
C0
80
80
80
80
80
80
80
80
80
C0
ENDCHAR
STARTCHAR U+005C
ENCODING 92
SWIDTH 259 0
DWIDTH 7 0
BBX 3 9 1 -1
BITMAP
80
80
80
40
40
40
20
20
20
ENDCHAR
STARTCHAR U+005D
ENCODING 93
SWIDTH 148 0
DWIDTH 4 0
BBX 2 11 0 -2
BITMAP
C0
40
40
40
40
40
40
40
40
40
C0
ENDCHAR
STARTCHAR U+005E
ENCODING 94
SWIDTH 222 0
DWIDTH 6 0
BBX 4 2 0 6
BITMAP
60
90
ENDCHAR
STARTCHAR U+005F
ENCODING 95
SWIDTH 296 0
DWIDTH 8 0
BBX 6 1 0 -3
BITMAP
FC
ENDCHAR
STARTCHAR U+0060
ENCODING 96
SWIDTH 148 0
DWIDTH 4 0
BBX 2 2 0 6
BITMAP
80
40
ENDCHAR
STARTCHAR U+0061
ENCODING 97
SWIDTH 259 0
DWIDTH 7 0
BBX 5 7 0 -1
BITMAP
F0
08
08
78
88
88
78
ENDCHAR
STARTCHAR U+0062
ENCODING 98
SWIDTH 259 0
DWIDTH 7 0
BBX 5 9 0 -1
BITMAP
80
80
F0
88
88
88
88
88
F0
ENDCHAR
STARTCHAR U+0063
ENCODING 99
SWIDTH 259 0
DWIDTH 7 0
BBX 5 7 0 -1
BITMAP
70
88
80
80
80
88
70
ENDCHAR
STARTCHAR U+0064
ENCODING 100
SWIDTH 259 0
DWIDTH 7 0
BBX 5 9 0 -1
BITMAP
08
08
78
88
88
88
88
88
78
ENDCHAR
STARTCHAR U+0065
ENCODING 101
SWIDTH 259 0
DWIDTH 7 0
BBX 5 7 0 -1
BITMAP
70
88
88
F8
80
88
70
ENDCHAR
STARTCHAR U+0066
ENCODING 102
SWIDTH 222 0
DWIDTH 6 0
BBX 4 9 0 -1
BITMAP
30
40
40
F0
40
40
40
40
40
ENDCHAR
STARTCHAR U+0067
ENCODING 103
SWIDTH 259 0
DWIDTH 7 0
BBX 5 8 0 -2
BITMAP
78
88
88
88
78
08
88
70
ENDCHAR
STARTCHAR U+0068
ENCODING 104
SWIDTH 259 0
DWIDTH 7 0
BBX 5 9 0 -1
BITMAP
80
80
F0
88
88
88
88
88
88
ENDCHAR
STARTCHAR U+0069
ENCODING 105
SWIDTH 185 0
DWIDTH 5 0
BBX 3 9 0 -1
BITMAP
40
00
C0
40
40
40
40
40
E0
ENDCHAR
STARTCHAR U+006A
ENCODING 106
SWIDTH 185 0
DWIDTH 5 0
BBX 3 10 0 -2
BITMAP
20
00
60
20
20
20
20
20
20
C0
ENDCHAR
STARTCHAR U+006B
ENCODING 107
SWIDTH 259 0
DWIDTH 7 0
BBX 5 9 0 -1
BITMAP
80
80
88
90
A0
C0
A0
90
88
ENDCHAR
STARTCHAR U+006C
ENCODING 108
SWIDTH 185 0
DWIDTH 5 0
BBX 3 9 0 -1
BITMAP
C0
40
40
40
40
40
40
40
E0
ENDCHAR
STARTCHAR U+006D
ENCODING 109
SWIDTH 259 0
DWIDTH 7 0
BBX 5 7 0 -1
BITMAP
D0
A8
A8
A8
A8
A8
A8
ENDCHAR
STARTCHAR U+006E
ENCODING 110
SWIDTH 259 0
DWIDTH 7 0
BBX 5 7 0 -1
BITMAP
F0
88
88
88
88
88
88
ENDCHAR
STARTCHAR U+006F
ENCODING 111
SWIDTH 259 0
DWIDTH 7 0
BBX 5 7 0 -1
BITMAP
70
88
88
88
88
88
70
ENDCHAR
STARTCHAR U+0070
ENCODING 112
SWIDTH 259 0
DWIDTH 7 0
BBX 5 8 0 -2
BITMAP
F0
88
88
88
88
F0
80
80
ENDCHAR
STARTCHAR U+0071
ENCODING 113
SWIDTH 259 0
DWIDTH 7 0
BBX 5 8 0 -2
BITMAP
78
88
88
88
88
78
08
08
ENDCHAR
STARTCHAR U+0072
ENCODING 114
SWIDTH 222 0
DWIDTH 6 0
BBX 4 7 0 -1
BITMAP
B0
C0
80
80
80
80
80
ENDCHAR
STARTCHAR U+0073
ENCODING 115
SWIDTH 259 0
DWIDTH 7 0
BBX 5 7 0 -1
BITMAP
70
88
80
70
08
88
70
ENDCHAR
STARTCHAR U+0074
ENCODING 116
SWIDTH 222 0
DWIDTH 6 0
BBX 4 9 0 -1
BITMAP
40
40
F0
40
40
40
40
40
30
ENDCHAR
STARTCHAR U+0075
ENCODING 117
SWIDTH 259 0
DWIDTH 7 0
BBX 5 7 0 -1
BITMAP
88
88
88
88
88
88
78
ENDCHAR
STARTCHAR U+0076
ENCODING 118
SWIDTH 259 0
DWIDTH 7 0
BBX 5 7 0 -1
BITMAP
88
88
88
50
50
20
20
ENDCHAR
STARTCHAR U+0077
ENCODING 119
SWIDTH 259 0
DWIDTH 7 0
BBX 5 7 0 -1
BITMAP
A8
A8
A8
A8
70
50
50
ENDCHAR
STARTCHAR U+0078
ENCODING 120
SWIDTH 259 0
DWIDTH 7 0
BBX 5 7 0 -1
BITMAP
88
88
50
20
50
88
88
ENDCHAR
STARTCHAR U+0079
ENCODING 121
SWIDTH 259 0
DWIDTH 7 0
BBX 5 8 0 -2
BITMAP
88
88
88
50
50
20
20
C0
ENDCHAR
STARTCHAR U+007A
ENCODING 122
SWIDTH 259 0
DWIDTH 7 0
BBX 5 7 0 -1
BITMAP
F8
08
10
20
40
80
F8
ENDCHAR
STARTCHAR U+007B
ENCODING 123
SWIDTH 185 0
DWIDTH 5 0
BBX 3 11 0 -2
BITMAP
20
40
40
40
40
80
40
40
40
40
20
ENDCHAR
STARTCHAR U+007C
ENCODING 124
SWIDTH 111 0
DWIDTH 3 0
BBX 1 12 0 -3
BITMAP
80
80
80
80
80
80
80
80
80
80
80
80
ENDCHAR
STARTCHAR U+007D
ENCODING 125
SWIDTH 185 0
DWIDTH 5 0
BBX 3 11 0 -2
BITMAP
80
40
40
40
40
20
40
40
40
40
80
ENDCHAR
STARTCHAR U+007E
ENCODING 126
SWIDTH 259 0
DWIDTH 7 0
BBX 5 2 0 7
BITMAP
68
90
ENDCHAR
STARTCHAR U+00A1
ENCODING 161
SWIDTH 111 0
DWIDTH 3 0
BBX 1 9 0 -3
BITMAP
80
80
00
80
80
80
80
80
80
ENDCHAR
STARTCHAR U+00A2
ENCODING 162
SWIDTH 259 0
DWIDTH 7 0
BBX 5 9 0 -2
BITMAP
10
10
70
A8
A0
A0
A8
70
40
ENDCHAR
STARTCHAR U+00A3
ENCODING 163
SWIDTH 259 0
DWIDTH 7 0
BBX 5 10 0 -1
BITMAP
30
48
40
40
F0
20
60
A0
A8
58
ENDCHAR
STARTCHAR U+00A4
ENCODING 164
SWIDTH 259 0
DWIDTH 7 0
BBX 5 7 0 0
BITMAP
88
70
88
88
88
70
88
ENDCHAR
STARTCHAR U+00A5
ENCODING 165
SWIDTH 259 0
DWIDTH 7 0
BBX 5 9 0 -1
BITMAP
88
88
50
50
F8
20
F8
20
20
ENDCHAR
STARTCHAR U+00A6
ENCODING 166
SWIDTH 111 0
DWIDTH 3 0
BBX 1 12 0 -3
BITMAP
80
80
80
80
80
00
00
80
80
80
80
80
ENDCHAR
STARTCHAR U+00A7
ENCODING 167
SWIDTH 481 0
DWIDTH 13 0
BBX 5 11 0 -2
BITMAP
70
88
88
60
90
88
48
30
88
88
70
ENDCHAR
STARTCHAR U+00A8
ENCODING 168
SWIDTH 296 0
DWIDTH 8 0
BBX 6 2 0 7
BITMAP
CC
CC
ENDCHAR
STARTCHAR U+00A9
ENCODING 169
SWIDTH 370 0
DWIDTH 10 0
BBX 8 10 0 -1
BITMAP
3C
42
99
A5
A1
A1
A5
99
42
3C
ENDCHAR
STARTCHAR U+00AA
ENCODING 170
SWIDTH 259 0
DWIDTH 7 0
BBX 5 5 0 3
BITMAP
60
90
70
90
68
ENDCHAR
STARTCHAR U+00AB
ENCODING 171
SWIDTH 259 0
DWIDTH 7 0
BBX 5 7 0 0
BITMAP
28
50
50
A0
50
50
28
ENDCHAR
STARTCHAR U+00AC
ENCODING 172
SWIDTH 259 0
DWIDTH 7 0
BBX 5 3 0 2
BITMAP
F8
08
08
ENDCHAR
STARTCHAR U+00AD
ENCODING 173
SWIDTH 222 0
DWIDTH 6 0
BBX 4 1 0 3
BITMAP
F0
ENDCHAR
STARTCHAR U+00AE
ENCODING 174
SWIDTH 259 0
DWIDTH 7 0
BBX 5 8 0 1
BITMAP
70
88
E8
98
E8
A8
98
70
ENDCHAR
STARTCHAR U+00AF
ENCODING 175
SWIDTH 222 0
DWIDTH 6 0
BBX 4 1 0 7
BITMAP
F0
ENDCHAR
STARTCHAR U+00B0
ENCODING 176
SWIDTH 481 0
DWIDTH 13 0
BBX 3 3 0 6
BITMAP
40
A0
40
ENDCHAR
STARTCHAR U+00B1
ENCODING 177
SWIDTH 333 0
DWIDTH 9 0
BBX 7 9 0 -1
BITMAP
10
10
10
FE
10
10
10
00
FE
ENDCHAR
STARTCHAR U+00B2
ENCODING 178
SWIDTH 259 0
DWIDTH 7 0
BBX 4 5 0 3
BITMAP
60
90
20
40
F0
ENDCHAR
STARTCHAR U+00B3
ENCODING 179
SWIDTH 259 0
DWIDTH 7 0
BBX 4 5 0 3
BITMAP
60
90
20
90
60
ENDCHAR
STARTCHAR U+00B4
ENCODING 180
SWIDTH 148 0
DWIDTH 4 0
BBX 2 2 0 7
BITMAP
40
80
ENDCHAR
STARTCHAR U+00B5
ENCODING 181
SWIDTH 259 0
DWIDTH 7 0
BBX 5 7 0 -2
BITMAP
90
90
90
90
90
E8
80
ENDCHAR
STARTCHAR U+00B6
ENCODING 182
SWIDTH 259 0
DWIDTH 7 0
BBX 5 11 0 -2
BITMAP
78
E8
E8
E8
68
28
28
28
28
28
28
ENDCHAR
STARTCHAR U+00B7
ENCODING 183
SWIDTH 148 0
DWIDTH 4 0
BBX 2 2 0 3
BITMAP
C0
C0
ENDCHAR
STARTCHAR U+00B8
ENCODING 184
SWIDTH 148 0
DWIDTH 4 0
BBX 2 3 0 -2
BITMAP
C0
40
80
ENDCHAR
STARTCHAR U+00B9
ENCODING 185
SWIDTH 148 0
DWIDTH 4 0
BBX 2 5 0 3
BITMAP
C0
40
40
40
40
ENDCHAR
STARTCHAR U+00BA
ENCODING 186
SWIDTH 259 0
DWIDTH 7 0
BBX 4 5 0 3
BITMAP
60
90
90
90
60
ENDCHAR
STARTCHAR U+00BB
ENCODING 187
SWIDTH 259 0
DWIDTH 7 0
BBX 5 7 0 0
BITMAP
A0
50
50
28
50
50
A0
ENDCHAR
STARTCHAR U+00BC
ENCODING 188
SWIDTH 259 0
DWIDTH 7 0
BBX 5 10 0 -1
BITMAP
C0
48
48
50
20
28
58
A8
B8
08
ENDCHAR
STARTCHAR U+00BD
ENCODING 189
SWIDTH 259 0
DWIDTH 7 0
BBX 5 10 0 -1
BITMAP
C0
48
48
50
20
30
48
88
90
38
ENDCHAR
STARTCHAR U+00BE
ENCODING 190
SWIDTH 259 0
DWIDTH 7 0
BBX 5 10 0 -1
BITMAP
C0
28
68
30
E0
28
58
A8
B8
08
ENDCHAR
STARTCHAR U+00BF
ENCODING 191
SWIDTH 222 0
DWIDTH 6 0
BBX 4 9 0 -3
BITMAP
20
20
00
20
20
40
80
90
60
ENDCHAR
STARTCHAR U+00C0
ENCODING 192
SWIDTH 259 0
DWIDTH 7 0
BBX 5 10 0 -1
BITMAP
20
10
20
20
50
50
88
F8
88
88
ENDCHAR
STARTCHAR U+00C1
ENCODING 193
SWIDTH 259 0
DWIDTH 7 0
BBX 5 10 0 -1
BITMAP
20
40
20
20
50
50
88
F8
88
88
ENDCHAR
STARTCHAR U+00C2
ENCODING 194
SWIDTH 259 0
DWIDTH 7 0
BBX 5 10 0 -1
BITMAP
20
50
20
20
50
50
88
F8
88
88
ENDCHAR
STARTCHAR U+00C3
ENCODING 195
SWIDTH 259 0
DWIDTH 7 0
BBX 5 10 0 -1
BITMAP
68
90
20
20
50
50
88
F8
88
88
ENDCHAR
STARTCHAR U+00C4
ENCODING 196
SWIDTH 259 0
DWIDTH 7 0
BBX 5 10 0 -1
BITMAP
50
00
20
20
50
50
88
F8
88
88
ENDCHAR
STARTCHAR U+00C5
ENCODING 197
SWIDTH 259 0
DWIDTH 7 0
BBX 5 10 0 -1
BITMAP
20
50
50
20
50
50
88
F8
88
88
ENDCHAR
STARTCHAR U+00C6
ENCODING 198
SWIDTH 259 0
DWIDTH 7 0
BBX 5 9 0 -1
BITMAP
38
30
50
50
58
90
F0
90
98
ENDCHAR
STARTCHAR U+00C7
ENCODING 199
SWIDTH 259 0
DWIDTH 7 0
BBX 5 11 0 -3
BITMAP
70
88
88
80
80
80
88
88
70
20
40
ENDCHAR
STARTCHAR U+00C8
ENCODING 200
SWIDTH 259 0
DWIDTH 7 0
BBX 5 10 0 -1
BITMAP
40
20
F8
80
80
F0
80
80
80
F8
ENDCHAR
STARTCHAR U+00C9
ENCODING 201
SWIDTH 259 0
DWIDTH 7 0
BBX 5 10 0 -1
BITMAP
10
20
F8
80
80
F0
80
80
80
F8
ENDCHAR
STARTCHAR U+00CA
ENCODING 202
SWIDTH 259 0
DWIDTH 7 0
BBX 5 10 0 -1
BITMAP
20
50
F8
80
80
F0
80
80
80
F8
ENDCHAR
STARTCHAR U+00CB
ENCODING 203
SWIDTH 259 0
DWIDTH 7 0
BBX 5 10 0 -1
BITMAP
50
00
F8
80
80
F0
80
80
80
F8
ENDCHAR
STARTCHAR U+00CC
ENCODING 204
SWIDTH 185 0
DWIDTH 5 0
BBX 3 10 0 -1
BITMAP
80
40
E0
40
40
40
40
40
40
E0
ENDCHAR
STARTCHAR U+00CD
ENCODING 205
SWIDTH 185 0
DWIDTH 5 0
BBX 3 10 0 -1
BITMAP
40
80
E0
40
40
40
40
40
40
E0
ENDCHAR
STARTCHAR U+00CE
ENCODING 206
SWIDTH 185 0
DWIDTH 5 0
BBX 3 10 0 -1
BITMAP
40
A0
E0
40
40
40
40
40
40
E0
ENDCHAR
STARTCHAR U+00CF
ENCODING 207
SWIDTH 185 0
DWIDTH 5 0
BBX 3 10 0 -1
BITMAP
A0
00
E0
40
40
40
40
40
40
E0
ENDCHAR
STARTCHAR U+00D0
ENCODING 208
SWIDTH 259 0
DWIDTH 7 0
BBX 5 9 0 -1
BITMAP
E0
90
88
88
E8
88
88
90
E0
ENDCHAR
STARTCHAR U+00D1
ENCODING 209
SWIDTH 259 0
DWIDTH 7 0
BBX 5 10 0 -1
BITMAP
68
90
C8
C8
A8
A8
A8
98
98
88
ENDCHAR
STARTCHAR U+00D2
ENCODING 210
SWIDTH 259 0
DWIDTH 7 0
BBX 5 10 0 -1
BITMAP
40
20
70
88
88
88
88
88
88
70
ENDCHAR
STARTCHAR U+00D3
ENCODING 211
SWIDTH 259 0
DWIDTH 7 0
BBX 5 10 0 -1
BITMAP
20
40
70
88
88
88
88
88
88
70
ENDCHAR
STARTCHAR U+00D4
ENCODING 212
SWIDTH 259 0
DWIDTH 7 0
BBX 5 10 0 -1
BITMAP
20
50
70
88
88
88
88
88
88
70
ENDCHAR
STARTCHAR U+00D5
ENCODING 213
SWIDTH 259 0
DWIDTH 7 0
BBX 5 10 0 -1
BITMAP
68
90
70
88
88
88
88
88
88
70
ENDCHAR
STARTCHAR U+00D6
ENCODING 214
SWIDTH 259 0
DWIDTH 7 0
BBX 5 10 0 -1
BITMAP
50
00
70
88
88
88
88
88
88
70
ENDCHAR
STARTCHAR U+00D7
ENCODING 215
SWIDTH 333 0
DWIDTH 9 0
BBX 7 7 0 0
BITMAP
82
44
28
10
28
44
82
ENDCHAR
STARTCHAR U+00D8
ENCODING 216
SWIDTH 259 0
DWIDTH 7 0
BBX 5 11 0 -2
BITMAP
10
70
A8
A8
A8
A8
A8
A8
A8
70
40
ENDCHAR
STARTCHAR U+00D9
ENCODING 217
SWIDTH 259 0
DWIDTH 7 0
BBX 5 10 0 -1
BITMAP
40
20
88
88
88
88
88
88
88
70
ENDCHAR
STARTCHAR U+00DA
ENCODING 218
SWIDTH 259 0
DWIDTH 7 0
BBX 5 10 0 -1
BITMAP
10
20
88
88
88
88
88
88
88
70
ENDCHAR
STARTCHAR U+00DB
ENCODING 219
SWIDTH 259 0
DWIDTH 7 0
BBX 5 10 0 -1
BITMAP
20
50
88
88
88
88
88
88
88
70
ENDCHAR
STARTCHAR U+00DC
ENCODING 220
SWIDTH 259 0
DWIDTH 7 0
BBX 5 10 0 -1
BITMAP
50
00
88
88
88
88
88
88
88
70
ENDCHAR
STARTCHAR U+00DD
ENCODING 221
SWIDTH 259 0
DWIDTH 7 0
BBX 5 10 0 -1
BITMAP
10
20
88
88
50
50
20
20
20
20
ENDCHAR
STARTCHAR U+00DE
ENCODING 222
SWIDTH 259 0
DWIDTH 7 0
BBX 5 9 0 -1
BITMAP
80
80
80
F0
88
88
88
F0
80
ENDCHAR
STARTCHAR U+00DF
ENCODING 223
SWIDTH 259 0
DWIDTH 7 0
BBX 5 9 0 -1
BITMAP
60
90
90
90
B0
88
88
C8
B0
ENDCHAR
STARTCHAR U+00E0
ENCODING 224
SWIDTH 259 0
DWIDTH 7 0
BBX 5 9 0 -1
BITMAP
40
20
00
60
90
70
90
90
68
ENDCHAR
STARTCHAR U+00E1
ENCODING 225
SWIDTH 259 0
DWIDTH 7 0
BBX 5 9 0 -1
BITMAP
20
40
00
60
90
70
90
90
68
ENDCHAR
STARTCHAR U+00E2
ENCODING 226
SWIDTH 259 0
DWIDTH 7 0
BBX 5 9 0 -1
BITMAP
20
50
00
60
90
70
90
90
68
ENDCHAR
STARTCHAR U+00E3
ENCODING 227
SWIDTH 259 0
DWIDTH 7 0
BBX 5 9 0 -1
BITMAP
68
90
00
60
90
70
90
90
68
ENDCHAR
STARTCHAR U+00E4
ENCODING 228
SWIDTH 259 0
DWIDTH 7 0
BBX 5 8 0 -1
BITMAP
50
00
60
90
70
90
90
68
ENDCHAR
STARTCHAR U+00E5
ENCODING 229
SWIDTH 259 0
DWIDTH 7 0
BBX 5 9 0 -1
BITMAP
60
90
90
60
90
70
90
90
68
ENDCHAR
STARTCHAR U+00E6
ENCODING 230
SWIDTH 259 0
DWIDTH 7 0
BBX 5 6 0 -1
BITMAP
70
A8
78
A0
A8
50
ENDCHAR
STARTCHAR U+00E7
ENCODING 231
SWIDTH 259 0
DWIDTH 7 0
BBX 5 8 0 -3
BITMAP
70
88
80
80
88
70
20
40
ENDCHAR
STARTCHAR U+00E8
ENCODING 232
SWIDTH 259 0
DWIDTH 7 0
BBX 5 9 0 -1
BITMAP
40
20
00
70
88
F8
80
88
70
ENDCHAR
STARTCHAR U+00E9
ENCODING 233
SWIDTH 259 0
DWIDTH 7 0
BBX 5 9 0 -1
BITMAP
10
20
00
70
88
F8
80
88
70
ENDCHAR
STARTCHAR U+00EA
ENCODING 234
SWIDTH 259 0
DWIDTH 7 0
BBX 5 9 0 -1
BITMAP
20
50
00
70
88
F8
80
88
70
ENDCHAR
STARTCHAR U+00EB
ENCODING 235
SWIDTH 259 0
DWIDTH 7 0
BBX 5 8 0 -1
BITMAP
50
00
70
88
F8
80
88
70
ENDCHAR
STARTCHAR U+00EC
ENCODING 236
SWIDTH 148 0
DWIDTH 4 0
BBX 2 9 0 -1
BITMAP
80
40
00
40
40
40
40
40
40
ENDCHAR
STARTCHAR U+00ED
ENCODING 237
SWIDTH 148 0
DWIDTH 4 0
BBX 2 9 0 -1
BITMAP
40
80
00
80
80
80
80
80
80
ENDCHAR
STARTCHAR U+00EE
ENCODING 238
SWIDTH 185 0
DWIDTH 5 0
BBX 3 9 0 -1
BITMAP
40
A0
00
40
40
40
40
40
40
ENDCHAR
STARTCHAR U+00EF
ENCODING 239
SWIDTH 185 0
DWIDTH 5 0
BBX 3 8 0 -1
BITMAP
A0
00
40
40
40
40
40
40
ENDCHAR
STARTCHAR U+00F0
ENCODING 240
SWIDTH 259 0
DWIDTH 7 0
BBX 5 9 0 -1
BITMAP
90
60
90
70
88
88
88
88
70
ENDCHAR
STARTCHAR U+00F1
ENCODING 241
SWIDTH 259 0
DWIDTH 7 0
BBX 5 9 0 -1
BITMAP
68
90
00
F0
88
88
88
88
88
ENDCHAR
STARTCHAR U+00F2
ENCODING 242
SWIDTH 259 0
DWIDTH 7 0
BBX 5 9 0 -1
BITMAP
40
20
00
70
88
88
88
88
70
ENDCHAR
STARTCHAR U+00F3
ENCODING 243
SWIDTH 259 0
DWIDTH 7 0
BBX 5 9 0 -1
BITMAP
10
20
00
70
88
88
88
88
70
ENDCHAR
STARTCHAR U+00F4
ENCODING 244
SWIDTH 259 0
DWIDTH 7 0
BBX 5 9 0 -1
BITMAP
20
50
00
70
88
88
88
88
70
ENDCHAR
STARTCHAR U+00F5
ENCODING 245
SWIDTH 259 0
DWIDTH 7 0
BBX 5 9 0 -1
BITMAP
68
90
00
70
88
88
88
88
70
ENDCHAR
STARTCHAR U+00F6
ENCODING 246
SWIDTH 259 0
DWIDTH 7 0
BBX 5 8 0 -1
BITMAP
50
00
70
88
88
88
88
70
ENDCHAR
STARTCHAR U+00F7
ENCODING 247
SWIDTH 407 0
DWIDTH 11 0
BBX 9 9 0 -1
BITMAP
0800
0800
0000
0000
FF80
0000
0000
0800
0800
ENDCHAR
STARTCHAR U+00F8
ENCODING 248
SWIDTH 259 0
DWIDTH 7 0
BBX 5 8 0 -2
BITMAP
08
70
98
A8
A8
C8
70
80
ENDCHAR
STARTCHAR U+00F9
ENCODING 249
SWIDTH 259 0
DWIDTH 7 0
BBX 5 9 0 -1
BITMAP
40
20
00
88
88
88
88
88
78
ENDCHAR
STARTCHAR U+00FA
ENCODING 250
SWIDTH 259 0
DWIDTH 7 0
BBX 5 9 0 -1
BITMAP
10
20
00
88
88
88
88
88
78
ENDCHAR
STARTCHAR U+00FB
ENCODING 251
SWIDTH 259 0
DWIDTH 7 0
BBX 5 9 0 -1
BITMAP
20
50
00
88
88
88
88
88
78
ENDCHAR
STARTCHAR U+00FC
ENCODING 252
SWIDTH 259 0
DWIDTH 7 0
BBX 5 8 0 -1
BITMAP
50
00
88
88
88
88
88
78
ENDCHAR
STARTCHAR U+00FD
ENCODING 253
SWIDTH 259 0
DWIDTH 7 0
BBX 5 10 0 -2
BITMAP
10
20
00
88
88
50
50
20
20
C0
ENDCHAR
STARTCHAR U+00FE
ENCODING 254
SWIDTH 259 0
DWIDTH 7 0
BBX 5 10 0 -2
BITMAP
80
80
F0
88
88
88
88
F0
80
80
ENDCHAR
STARTCHAR U+00FF
ENCODING 255
SWIDTH 259 0
DWIDTH 7 0
BBX 5 9 0 -2
BITMAP
50
00
88
88
50
50
20
20
C0
ENDCHAR
STARTCHAR U+0100
ENCODING 256
SWIDTH 259 0
DWIDTH 7 0
BBX 5 10 0 -1
BITMAP
70
00
20
20
50
50
88
F8
88
88
ENDCHAR
STARTCHAR U+0101
ENCODING 257
SWIDTH 259 0
DWIDTH 7 0
BBX 5 8 0 -1
BITMAP
70
00
60
90
70
90
90
68
ENDCHAR
STARTCHAR U+0102
ENCODING 258
SWIDTH 259 0
DWIDTH 7 0
BBX 5 10 0 -1
BITMAP
50
20
20
20
50
50
F8
88
88
88
ENDCHAR
STARTCHAR U+0103
ENCODING 259
SWIDTH 259 0
DWIDTH 7 0
BBX 5 9 0 -1
BITMAP
50
20
00
60
90
70
90
90
68
ENDCHAR
STARTCHAR U+0104
ENCODING 260
SWIDTH 259 0
DWIDTH 7 0
BBX 5 11 0 -3
BITMAP
20
20
50
50
50
88
F8
88
88
10
08
ENDCHAR
STARTCHAR U+0105
ENCODING 261
SWIDTH 259 0
DWIDTH 7 0
BBX 5 8 0 -3
BITMAP
60
90
70
90
90
68
10
08
ENDCHAR
STARTCHAR U+0106
ENCODING 262
SWIDTH 259 0
DWIDTH 7 0
BBX 5 10 0 -1
BITMAP
20
40
70
88
88
80
80
88
88
70
ENDCHAR
STARTCHAR U+0107
ENCODING 263
SWIDTH 259 0
DWIDTH 7 0
BBX 5 9 0 -1
BITMAP
20
40
00
70
88
80
80
88
70
ENDCHAR
STARTCHAR U+0108
ENCODING 264
SWIDTH 259 0
DWIDTH 7 0
BBX 5 10 0 -1
BITMAP
20
50
70
88
88
80
80
88
88
70
ENDCHAR
STARTCHAR U+0109
ENCODING 265
SWIDTH 259 0
DWIDTH 7 0
BBX 5 9 0 -1
BITMAP
20
50
00
70
88
80
80
88
70
ENDCHAR
STARTCHAR U+010A
ENCODING 266
SWIDTH 259 0
DWIDTH 7 0
BBX 5 10 0 -1
BITMAP
20
00
70
88
88
80
80
88
88
70
ENDCHAR
STARTCHAR U+010B
ENCODING 267
SWIDTH 259 0
DWIDTH 7 0
BBX 5 8 0 -1
BITMAP
20
00
70
88
80
80
88
70
ENDCHAR
STARTCHAR U+010C
ENCODING 268
SWIDTH 259 0
DWIDTH 7 0
BBX 5 10 0 -1
BITMAP
50
20
70
88
88
80
80
88
88
70
ENDCHAR
STARTCHAR U+010D
ENCODING 269
SWIDTH 259 0
DWIDTH 7 0
BBX 5 9 0 -1
BITMAP
50
20
00
70
88
80
80
88
70
ENDCHAR
STARTCHAR U+010E
ENCODING 270
SWIDTH 259 0
DWIDTH 7 0
BBX 5 10 0 -1
BITMAP
50
20
E0
90
88
88
88
88
90
E0
ENDCHAR
STARTCHAR U+010F
ENCODING 271
SWIDTH 259 0
DWIDTH 7 0
BBX 5 9 0 -1
BITMAP
28
28
30
60
A0
A0
A0
A0
60
ENDCHAR
STARTCHAR U+0110
ENCODING 272
SWIDTH 259 0
DWIDTH 7 0
BBX 5 9 0 -1
BITMAP
60
50
48
48
E8
48
48
50
60
ENDCHAR
STARTCHAR U+0111
ENCODING 273
SWIDTH 259 0
DWIDTH 7 0
BBX 5 9 0 -1
BITMAP
10
78
10
70
90
90
90
90
70
ENDCHAR
STARTCHAR U+0112
ENCODING 274
SWIDTH 259 0
DWIDTH 7 0
BBX 5 10 0 -1
BITMAP
70
00
F8
80
80
F0
80
80
80
F8
ENDCHAR
STARTCHAR U+0113
ENCODING 275
SWIDTH 259 0
DWIDTH 7 0
BBX 5 8 0 -1
BITMAP
70
00
70
88
F8
80
88
70
ENDCHAR
STARTCHAR U+0114
ENCODING 276
SWIDTH 259 0
DWIDTH 7 0
BBX 5 10 0 -1
BITMAP
50
20
F8
80
80
F0
80
80
80
F8
ENDCHAR
STARTCHAR U+0115
ENCODING 277
SWIDTH 259 0
DWIDTH 7 0
BBX 5 9 0 -1
BITMAP
50
20
00
70
88
F8
80
88
70
ENDCHAR
STARTCHAR U+0116
ENCODING 278
SWIDTH 259 0
DWIDTH 7 0
BBX 5 10 0 -1
BITMAP
20
00
F8
80
80
F0
80
80
80
F8
ENDCHAR
STARTCHAR U+0117
ENCODING 279
SWIDTH 259 0
DWIDTH 7 0
BBX 5 8 0 -1
BITMAP
20
00
70
88
F8
80
88
70
ENDCHAR
STARTCHAR U+0118
ENCODING 280
SWIDTH 259 0
DWIDTH 7 0
BBX 5 11 0 -3
BITMAP
F8
80
80
80
F0
80
80
80
F8
20
18
ENDCHAR
STARTCHAR U+0119
ENCODING 281
SWIDTH 259 0
DWIDTH 7 0
BBX 5 8 0 -3
BITMAP
70
88
F8
80
88
70
10
08
ENDCHAR
STARTCHAR U+011A
ENCODING 282
SWIDTH 259 0
DWIDTH 7 0
BBX 5 10 0 -1
BITMAP
50
20
F8
80
80
F0
80
80
80
F8
ENDCHAR
STARTCHAR U+011B
ENCODING 283
SWIDTH 259 0
DWIDTH 7 0
BBX 5 9 0 -1
BITMAP
50
20
00
70
88
F8
80
88
70
ENDCHAR
STARTCHAR U+011C
ENCODING 284
SWIDTH 259 0
DWIDTH 7 0
BBX 5 10 0 -1
BITMAP
20
50
70
88
88
80
98
88
98
68
ENDCHAR
STARTCHAR U+011D
ENCODING 285
SWIDTH 259 0
DWIDTH 7 0
BBX 5 10 0 -2
BITMAP
20
50
00
78
88
88
78
08
88
70
ENDCHAR
STARTCHAR U+011E
ENCODING 286
SWIDTH 259 0
DWIDTH 7 0
BBX 5 10 0 -1
BITMAP
90
60
70
88
88
80
98
88
98
68
ENDCHAR
STARTCHAR U+011F
ENCODING 287
SWIDTH 259 0
DWIDTH 7 0
BBX 5 10 0 -2
BITMAP
90
60
00
78
88
88
78
08
88
70
ENDCHAR
STARTCHAR U+0120
ENCODING 288
SWIDTH 259 0
DWIDTH 7 0
BBX 5 10 0 -1
BITMAP
20
00
70
88
88
80
98
88
98
68
ENDCHAR
STARTCHAR U+0121
ENCODING 289
SWIDTH 259 0
DWIDTH 7 0
BBX 5 9 0 -2
BITMAP
20
00
78
88
88
78
08
88
70
ENDCHAR
STARTCHAR U+0122
ENCODING 290
SWIDTH 259 0
DWIDTH 7 0
BBX 5 11 0 -3
BITMAP
70
88
88
80
80
98
88
98
68
20
40
ENDCHAR
STARTCHAR U+0123
ENCODING 291
SWIDTH 259 0
DWIDTH 7 0
BBX 5 11 0 -2
BITMAP
20
40
60
00
78
88
88
78
08
88
70
ENDCHAR
STARTCHAR U+0124
ENCODING 292
SWIDTH 259 0
DWIDTH 7 0
BBX 5 10 0 -1
BITMAP
20
50
00
88
88
88
F8
88
88
88
ENDCHAR
STARTCHAR U+0125
ENCODING 293
SWIDTH 259 0
DWIDTH 7 0
BBX 5 10 0 -1
BITMAP
20
50
80
80
F0
88
88
88
88
88
ENDCHAR
STARTCHAR U+0126
ENCODING 294
SWIDTH 259 0
DWIDTH 7 0
BBX 5 9 0 -1
BITMAP
90
F8
90
90
F0
90
90
90
90
ENDCHAR
STARTCHAR U+0127
ENCODING 295
SWIDTH 259 0
DWIDTH 7 0
BBX 5 9 0 -1
BITMAP
40
F0
40
70
48
48
48
48
48
ENDCHAR
STARTCHAR U+0128
ENCODING 296
SWIDTH 259 0
DWIDTH 7 0
BBX 5 10 0 -1
BITMAP
68
90
70
20
20
20
20
20
20
70
ENDCHAR
STARTCHAR U+0129
ENCODING 297
SWIDTH 259 0
DWIDTH 7 0
BBX 5 9 0 -1
BITMAP
68
90
00
20
20
20
20
20
20
ENDCHAR
STARTCHAR U+012A
ENCODING 298
SWIDTH 185 0
DWIDTH 5 0
BBX 3 10 0 -1
BITMAP
E0
00
E0
40
40
40
40
40
40
E0
ENDCHAR
STARTCHAR U+012B
ENCODING 299
SWIDTH 185 0
DWIDTH 5 0
BBX 3 8 0 -1
BITMAP
E0
00
40
40
40
40
40
40
ENDCHAR
STARTCHAR U+012C
ENCODING 300
SWIDTH 259 0
DWIDTH 7 0
BBX 4 10 0 -1
BITMAP
90
60
70
20
20
20
20
20
20
70
ENDCHAR
STARTCHAR U+012D
ENCODING 301
SWIDTH 259 0
DWIDTH 7 0
BBX 4 9 0 -1
BITMAP
90
60
00
20
20
20
20
20
20
ENDCHAR
STARTCHAR U+012E
ENCODING 302
SWIDTH 222 0
DWIDTH 6 0
BBX 4 11 0 -3
BITMAP
E0
40
40
40
40
40
40
40
E0
40
30
ENDCHAR
STARTCHAR U+012F
ENCODING 303
SWIDTH 185 0
DWIDTH 5 0
BBX 3 11 0 -3
BITMAP
80
80
00
80
80
80
80
80
80
80
60
ENDCHAR
STARTCHAR U+0130
ENCODING 304
SWIDTH 185 0
DWIDTH 5 0
BBX 3 10 0 -1
BITMAP
40
00
E0
40
40
40
40
40
40
E0
ENDCHAR
STARTCHAR U+0131
ENCODING 305
SWIDTH 111 0
DWIDTH 3 0
BBX 1 6 0 -1
BITMAP
80
80
80
80
80
80
ENDCHAR
STARTCHAR U+0132
ENCODING 306
SWIDTH 259 0
DWIDTH 7 0
BBX 5 9 0 -1
BITMAP
E8
48
48
48
48
48
48
68
D0
ENDCHAR
STARTCHAR U+0133
ENCODING 307
SWIDTH 259 0
DWIDTH 7 0
BBX 5 10 0 -2
BITMAP
88
88
00
88
88
88
88
88
88
30
ENDCHAR
STARTCHAR U+0134
ENCODING 308
SWIDTH 259 0
DWIDTH 7 0
BBX 5 10 0 -1
BITMAP
10
28
10
10
10
10
10
90
90
60
ENDCHAR
STARTCHAR U+0135
ENCODING 309
SWIDTH 259 0
DWIDTH 7 0
BBX 4 10 0 -2
BITMAP
20
50
00
20
20
20
20
20
20
C0
ENDCHAR
STARTCHAR U+0136
ENCODING 310
SWIDTH 259 0
DWIDTH 7 0
BBX 4 11 0 -3
BITMAP
90
90
A0
A0
C0
A0
A0
90
D0
40
80
ENDCHAR
STARTCHAR U+0137
ENCODING 311
SWIDTH 259 0
DWIDTH 7 0
BBX 5 11 0 -3
BITMAP
80
80
80
88
90
A0
E0
90
C8
40
80
ENDCHAR
STARTCHAR U+0138
ENCODING 312
SWIDTH 259 0
DWIDTH 7 0
BBX 5 6 0 -1
BITMAP
88
90
A0
E0
90
88
ENDCHAR
STARTCHAR U+0139
ENCODING 313
SWIDTH 259 0
DWIDTH 7 0
BBX 5 10 0 -1
BITMAP
20
40
80
80
80
80
80
80
80
F8
ENDCHAR
STARTCHAR U+013A
ENCODING 314
SWIDTH 148 0
DWIDTH 4 0
BBX 2 10 0 -1
BITMAP
40
80
80
80
80
80
80
80
80
80
ENDCHAR
STARTCHAR U+013B
ENCODING 315
SWIDTH 259 0
DWIDTH 7 0
BBX 5 11 0 -3
BITMAP
80
80
80
80
80
80
80
80
F8
20
40
ENDCHAR
STARTCHAR U+013C
ENCODING 316
SWIDTH 148 0
DWIDTH 4 0
BBX 2 11 0 -3
BITMAP
80
80
80
80
80
80
80
80
C0
40
80
ENDCHAR
STARTCHAR U+013D
ENCODING 317
SWIDTH 259 0
DWIDTH 7 0
BBX 5 9 0 -1
BITMAP
B0
90
A0
80
80
80
80
80
F8
ENDCHAR
STARTCHAR U+013E
ENCODING 318
SWIDTH 222 0
DWIDTH 6 0
BBX 4 9 0 -1
BITMAP
B0
90
A0
80
80
80
80
80
80
ENDCHAR
STARTCHAR U+013F
ENCODING 319
SWIDTH 259 0
DWIDTH 7 0
BBX 5 9 0 -1
BITMAP
80
80
80
A0
80
80
80
80
F8
ENDCHAR
STARTCHAR U+0140
ENCODING 320
SWIDTH 185 0
DWIDTH 5 0
BBX 3 9 0 -1
BITMAP
80
80
80
A0
80
80
80
80
80
ENDCHAR
STARTCHAR U+0141
ENCODING 321
SWIDTH 259 0
DWIDTH 7 0
BBX 5 9 0 -1
BITMAP
80
80
A0
C0
80
80
80
80
F8
ENDCHAR
STARTCHAR U+0142
ENCODING 322
SWIDTH 222 0
DWIDTH 6 0
BBX 4 9 0 -1
BITMAP
40
40
50
60
C0
40
40
40
40
ENDCHAR
STARTCHAR U+0143
ENCODING 323
SWIDTH 259 0
DWIDTH 7 0
BBX 5 10 0 -1
BITMAP
10
20
C8
C8
A8
A8
A8
98
98
88
ENDCHAR
STARTCHAR U+0144
ENCODING 324
SWIDTH 259 0
DWIDTH 7 0
BBX 5 9 0 -1
BITMAP
20
40
00
F0
88
88
88
88
88
ENDCHAR
STARTCHAR U+0145
ENCODING 325
SWIDTH 259 0
DWIDTH 7 0
BBX 5 11 0 -3
BITMAP
88
C8
C8
A8
A8
A8
98
98
E8
20
40
ENDCHAR
STARTCHAR U+0146
ENCODING 326
SWIDTH 259 0
DWIDTH 7 0
BBX 5 8 0 -3
BITMAP
F0
88
88
88
88
E8
20
40
ENDCHAR
STARTCHAR U+0147
ENCODING 327
SWIDTH 259 0
DWIDTH 7 0
BBX 5 10 0 -1
BITMAP
50
20
88
C8
C8
A8
A8
98
98
88
ENDCHAR
STARTCHAR U+0148
ENCODING 328
SWIDTH 259 0
DWIDTH 7 0
BBX 5 9 0 -1
BITMAP
50
20
00
F0
88
88
88
88
88
ENDCHAR
STARTCHAR U+0149
ENCODING 329
SWIDTH 259 0
DWIDTH 7 0
BBX 5 9 0 -1
BITMAP
80
80
00
F0
88
88
88
88
88
ENDCHAR
STARTCHAR U+014A
ENCODING 330
SWIDTH 259 0
DWIDTH 7 0
BBX 5 10 0 -3
BITMAP
88
C8
C8
A8
A8
98
98
88
08
30
ENDCHAR
STARTCHAR U+014B
ENCODING 331
SWIDTH 259 0
DWIDTH 7 0
BBX 5 7 0 -2
BITMAP
B0
C8
88
88
88
88
30
ENDCHAR
STARTCHAR U+014C
ENCODING 332
SWIDTH 259 0
DWIDTH 7 0
BBX 5 10 0 -1
BITMAP
70
00
70
88
88
88
88
88
88
70
ENDCHAR
STARTCHAR U+014D
ENCODING 333
SWIDTH 259 0
DWIDTH 7 0
BBX 5 8 0 -1
BITMAP
70
00
70
88
88
88
88
70
ENDCHAR
STARTCHAR U+014E
ENCODING 334
SWIDTH 259 0
DWIDTH 7 0
BBX 5 10 0 -1
BITMAP
90
60
70
88
88
88
88
88
88
70
ENDCHAR
STARTCHAR U+014F
ENCODING 335
SWIDTH 259 0
DWIDTH 7 0
BBX 5 9 0 -1
BITMAP
90
60
00
70
88
88
88
88
70
ENDCHAR
STARTCHAR U+0150
ENCODING 336
SWIDTH 259 0
DWIDTH 7 0
BBX 5 10 0 -1
BITMAP
48
90
70
88
88
88
88
88
88
70
ENDCHAR
STARTCHAR U+0151
ENCODING 337
SWIDTH 259 0
DWIDTH 7 0
BBX 5 9 0 -1
BITMAP
48
90
00
70
88
88
88
88
70
ENDCHAR
STARTCHAR U+0152
ENCODING 338
SWIDTH 259 0
DWIDTH 7 0
BBX 5 9 0 -1
BITMAP
78
A0
A0
A0
B8
A0
A0
A0
78
ENDCHAR
STARTCHAR U+0153
ENCODING 339
SWIDTH 259 0
DWIDTH 7 0
BBX 5 6 0 -1
BITMAP
50
A8
B8
A0
A8
50
ENDCHAR
STARTCHAR U+0154
ENCODING 340
SWIDTH 259 0
DWIDTH 7 0
BBX 5 10 0 -1
BITMAP
20
40
F0
88
88
88
F0
90
88
88
ENDCHAR
STARTCHAR U+0155
ENCODING 341
SWIDTH 222 0
DWIDTH 6 0
BBX 4 9 0 -1
BITMAP
20
40
00
B0
C0
80
80
80
80
ENDCHAR
STARTCHAR U+0156
ENCODING 342
SWIDTH 259 0
DWIDTH 7 0
BBX 5 11 0 -3
BITMAP
F0
88
88
88
F0
90
88
88
E8
20
40
ENDCHAR
STARTCHAR U+0157
ENCODING 343
SWIDTH 259 0
DWIDTH 7 0
BBX 4 8 0 -3
BITMAP
B0
C0
80
80
80
E0
20
40
ENDCHAR
STARTCHAR U+0158
ENCODING 344
SWIDTH 259 0
DWIDTH 7 0
BBX 5 10 0 -1
BITMAP
50
20
F0
88
88
88
F0
90
88
88
ENDCHAR
STARTCHAR U+0159
ENCODING 345
SWIDTH 259 0
DWIDTH 7 0
BBX 4 9 0 -1
BITMAP
A0
40
00
B0
C0
80
80
80
80
ENDCHAR
STARTCHAR U+015A
ENCODING 346
SWIDTH 259 0
DWIDTH 7 0
BBX 5 10 0 -1
BITMAP
20
40
70
88
48
20
10
88
88
70
ENDCHAR
STARTCHAR U+015B
ENCODING 347
SWIDTH 259 0
DWIDTH 7 0
BBX 5 9 0 -1
BITMAP
20
40
00
70
88
60
10
88
70
ENDCHAR
STARTCHAR U+015C
ENCODING 348
SWIDTH 259 0
DWIDTH 7 0
BBX 5 10 0 -1
BITMAP
20
50
70
88
48
20
10
88
88
70
ENDCHAR
STARTCHAR U+015D
ENCODING 349
SWIDTH 259 0
DWIDTH 7 0
BBX 5 9 0 -1
BITMAP
20
50
00
70
88
60
10
88
70
ENDCHAR
STARTCHAR U+015E
ENCODING 350
SWIDTH 259 0
DWIDTH 7 0
BBX 5 11 0 -3
BITMAP
70
88
88
40
20
10
88
88
70
20
40
ENDCHAR
STARTCHAR U+015F
ENCODING 351
SWIDTH 259 0
DWIDTH 7 0
BBX 5 8 0 -3
BITMAP
70
88
60
10
88
70
20
40
ENDCHAR
STARTCHAR U+0160
ENCODING 352
SWIDTH 259 0
DWIDTH 7 0
BBX 5 10 0 -1
BITMAP
50
20
70
88
48
20
10
88
88
70
ENDCHAR
STARTCHAR U+0161
ENCODING 353
SWIDTH 259 0
DWIDTH 7 0
BBX 5 9 0 -1
BITMAP
50
20
00
70
88
60
10
88
70
ENDCHAR
STARTCHAR U+0162
ENCODING 354
SWIDTH 259 0
DWIDTH 7 0
BBX 5 11 0 -3
BITMAP
F8
20
20
20
20
20
20
20
30
10
20
ENDCHAR
STARTCHAR U+0163
ENCODING 355
SWIDTH 259 0
DWIDTH 7 0
BBX 4 11 0 -3
BITMAP
40
40
40
E0
40
40
40
40
30
20
40
ENDCHAR
STARTCHAR U+0164
ENCODING 356
SWIDTH 259 0
DWIDTH 7 0
BBX 5 10 0 -1
BITMAP
50
20
F8
20
20
20
20
20
20
20
ENDCHAR
STARTCHAR U+0165
ENCODING 357
SWIDTH 259 0
DWIDTH 7 0
BBX 5 9 0 -1
BITMAP
58
48
50
E0
40
40
40
40
30
ENDCHAR
STARTCHAR U+0166
ENCODING 358
SWIDTH 259 0
DWIDTH 7 0
BBX 5 9 0 -1
BITMAP
F8
20
20
20
70
20
20
20
20
ENDCHAR
STARTCHAR U+0167
ENCODING 359
SWIDTH 259 0
DWIDTH 7 0
BBX 4 9 0 -1
BITMAP
40
40
40
E0
40
E0
40
40
30
ENDCHAR
STARTCHAR U+0168
ENCODING 360
SWIDTH 259 0
DWIDTH 7 0
BBX 5 10 0 -1
BITMAP
68
90
88
88
88
88
88
88
88
70
ENDCHAR
STARTCHAR U+0169
ENCODING 361
SWIDTH 259 0
DWIDTH 7 0
BBX 5 9 0 -1
BITMAP
68
90
00
88
88
88
88
88
78
ENDCHAR
STARTCHAR U+016A
ENCODING 362
SWIDTH 259 0
DWIDTH 7 0
BBX 5 10 0 -1
BITMAP
70
00
88
88
88
88
88
88
88
70
ENDCHAR
STARTCHAR U+016B
ENCODING 363
SWIDTH 259 0
DWIDTH 7 0
BBX 5 8 0 -1
BITMAP
70
00
88
88
88
88
88
78
ENDCHAR
STARTCHAR U+016C
ENCODING 364
SWIDTH 259 0
DWIDTH 7 0
BBX 5 10 0 -1
BITMAP
90
60
88
88
88
88
88
88
88
70
ENDCHAR
STARTCHAR U+016D
ENCODING 365
SWIDTH 259 0
DWIDTH 7 0
BBX 5 9 0 -1
BITMAP
90
60
00
88
88
88
88
88
78
ENDCHAR
STARTCHAR U+016E
ENCODING 366
SWIDTH 259 0
DWIDTH 7 0
BBX 5 10 0 -1
BITMAP
60
90
E8
88
88
88
88
88
88
70
ENDCHAR
STARTCHAR U+016F
ENCODING 367
SWIDTH 259 0
DWIDTH 7 0
BBX 5 9 0 -1
BITMAP
60
90
60
88
88
88
88
88
78
ENDCHAR
STARTCHAR U+0170
ENCODING 368
SWIDTH 259 0
DWIDTH 7 0
BBX 5 10 0 -1
BITMAP
48
90
88
88
88
88
88
88
88
70
ENDCHAR
STARTCHAR U+0171
ENCODING 369
SWIDTH 259 0
DWIDTH 7 0
BBX 5 9 0 -1
BITMAP
48
90
00
88
88
88
88
88
78
ENDCHAR
STARTCHAR U+0172
ENCODING 370
SWIDTH 259 0
DWIDTH 7 0
BBX 5 11 0 -3
BITMAP
88
88
88
88
88
88
88
88
70
20
18
ENDCHAR
STARTCHAR U+0173
ENCODING 371
SWIDTH 259 0
DWIDTH 7 0
BBX 5 8 0 -3
BITMAP
88
88
88
88
88
78
20
18
ENDCHAR
STARTCHAR U+0174
ENCODING 372
SWIDTH 259 0
DWIDTH 7 0
BBX 5 10 0 -1
BITMAP
20
50
A8
A8
A8
A8
50
50
50
50
ENDCHAR
STARTCHAR U+0175
ENCODING 373
SWIDTH 259 0
DWIDTH 7 0
BBX 5 9 0 -1
BITMAP
20
50
00
A8
A8
A8
50
50
50
ENDCHAR
STARTCHAR U+0176
ENCODING 374
SWIDTH 259 0
DWIDTH 7 0
BBX 5 10 0 -1
BITMAP
20
50
88
88
50
50
20
20
20
20
ENDCHAR
STARTCHAR U+0177
ENCODING 375
SWIDTH 259 0
DWIDTH 7 0
BBX 5 10 0 -2
BITMAP
20
50
00
88
88
50
50
20
20
C0
ENDCHAR
STARTCHAR U+0178
ENCODING 376
SWIDTH 259 0
DWIDTH 7 0
BBX 5 10 0 -1
BITMAP
50
00
88
88
50
50
20
20
20
20
ENDCHAR
STARTCHAR U+0179
ENCODING 377
SWIDTH 259 0
DWIDTH 7 0
BBX 5 10 0 -1
BITMAP
10
20
F8
08
10
20
40
40
80
F8
ENDCHAR
STARTCHAR U+017A
ENCODING 378
SWIDTH 259 0
DWIDTH 7 0
BBX 5 9 0 -1
BITMAP
10
20
00
F8
08
10
20
40
F8
ENDCHAR
STARTCHAR U+017B
ENCODING 379
SWIDTH 259 0
DWIDTH 7 0
BBX 5 10 0 -1
BITMAP
20
00
F8
08
10
20
40
40
80
F8
ENDCHAR
STARTCHAR U+017C
ENCODING 380
SWIDTH 259 0
DWIDTH 7 0
BBX 5 8 0 -1
BITMAP
20
00
F8
08
10
20
40
F8
ENDCHAR
STARTCHAR U+017D
ENCODING 381
SWIDTH 259 0
DWIDTH 7 0
BBX 5 10 0 -1
BITMAP
50
20
F8
08
10
20
40
40
80
F8
ENDCHAR
STARTCHAR U+017E
ENCODING 382
SWIDTH 259 0
DWIDTH 7 0
BBX 5 9 0 -1
BITMAP
50
20
00
F8
08
10
20
40
F8
ENDCHAR
STARTCHAR U+017F
ENCODING 383
SWIDTH 222 0
DWIDTH 6 0
BBX 4 9 0 -1
BITMAP
60
90
90
80
80
80
80
80
80
ENDCHAR
STARTCHAR U+0192
ENCODING 402
SWIDTH 259 0
DWIDTH 7 0
BBX 5 9 0 -1
BITMAP
10
28
20
70
20
20
20
A0
40
ENDCHAR
STARTCHAR U+01FA
ENCODING 506
SWIDTH 259 0
DWIDTH 7 0
BBX 5 10 0 -1
BITMAP
20
40
60
90
70
50
88
F8
88
88
ENDCHAR
STARTCHAR U+01FB
ENCODING 507
SWIDTH 259 0
DWIDTH 7 0
BBX 5 10 0 -1
BITMAP
20
40
60
90
60
90
70
90
90
68
ENDCHAR
STARTCHAR U+01FC
ENCODING 508
SWIDTH 259 0
DWIDTH 7 0
BBX 5 10 0 -1
BITMAP
10
20
78
60
A0
B8
E0
A0
A0
B8
ENDCHAR
STARTCHAR U+01FD
ENCODING 509
SWIDTH 259 0
DWIDTH 7 0
BBX 5 9 0 -1
BITMAP
10
20
00
50
A8
78
A0
A8
50
ENDCHAR
STARTCHAR U+01FE
ENCODING 510
SWIDTH 259 0
DWIDTH 7 0
BBX 5 11 0 -2
BITMAP
20
48
70
98
A8
A8
A8
A8
C8
70
80
ENDCHAR
STARTCHAR U+01FF
ENCODING 511
SWIDTH 259 0
DWIDTH 7 0
BBX 5 10 0 -2
BITMAP
20
40
10
70
A8
A8
A8
A8
70
40
ENDCHAR
STARTCHAR U+037E
ENCODING 894
SWIDTH 259 0
DWIDTH 7 0
BBX 2 8 1 -2
BITMAP
C0
C0
00
00
00
C0
40
80
ENDCHAR
STARTCHAR U+0384
ENCODING 900
SWIDTH 259 0
DWIDTH 7 0
BBX 2 2 1 7
BITMAP
40
80
ENDCHAR
STARTCHAR U+0385
ENCODING 901
SWIDTH 259 0
DWIDTH 7 0
BBX 3 4 1 5
BITMAP
40
80
00
A0
ENDCHAR
STARTCHAR U+0386
ENCODING 902
SWIDTH 259 0
DWIDTH 7 0
BBX 5 10 0 -1
BITMAP
40
80
20
20
50
50
88
F8
88
88
ENDCHAR
STARTCHAR U+0387
ENCODING 903
SWIDTH 259 0
DWIDTH 7 0
BBX 2 2 2 3
BITMAP
C0
C0
ENDCHAR
STARTCHAR U+0388
ENCODING 904
SWIDTH 259 0
DWIDTH 7 0
BBX 5 10 0 -1
BITMAP
40
80
78
40
40
70
40
40
40
78
ENDCHAR
STARTCHAR U+0389
ENCODING 905
SWIDTH 259 0
DWIDTH 7 0
BBX 5 10 0 -1
BITMAP
40
80
48
48
48
78
48
48
48
48
ENDCHAR
STARTCHAR U+038A
ENCODING 906
SWIDTH 222 0
DWIDTH 6 0
BBX 4 10 0 -1
BITMAP
40
80
70
20
20
20
20
20
20
70
ENDCHAR
STARTCHAR U+038C
ENCODING 908
SWIDTH 259 0
DWIDTH 7 0
BBX 5 10 0 -1
BITMAP
40
80
70
88
88
88
88
88
88
70
ENDCHAR
STARTCHAR U+038E
ENCODING 910
SWIDTH 259 0
DWIDTH 7 0
BBX 5 10 0 -1
BITMAP
40
80
48
48
50
50
20
20
20
20
ENDCHAR
STARTCHAR U+038F
ENCODING 911
SWIDTH 259 0
DWIDTH 7 0
BBX 5 10 0 -1
BITMAP
40
80
70
88
88
88
88
88
50
D8
ENDCHAR
STARTCHAR U+0390
ENCODING 912
SWIDTH 222 0
DWIDTH 6 0
BBX 4 10 0 -1
BITMAP
20
40
00
A0
00
40
40
40
50
20
ENDCHAR
STARTCHAR U+0391
ENCODING 913
SWIDTH 407 0
DWIDTH 11 0
BBX 9 9 0 -1
BITMAP
0800
1400
1400
2200
2200
4100
7F00
8080
8080
ENDCHAR
STARTCHAR U+0392
ENCODING 914
SWIDTH 296 0
DWIDTH 8 0
BBX 6 9 0 -1
BITMAP
F8
84
84
84
F8
84
84
84
F8
ENDCHAR
STARTCHAR U+0393
ENCODING 915
SWIDTH 296 0
DWIDTH 8 0
BBX 6 9 0 -1
BITMAP
FC
80
80
80
80
80
80
80
80
ENDCHAR
STARTCHAR U+0394
ENCODING 916
SWIDTH 407 0
DWIDTH 11 0
BBX 9 9 0 -1
BITMAP
0800
0800
1400
1400
2200
2200
4100
4100
FF80
ENDCHAR
STARTCHAR U+0395
ENCODING 917
SWIDTH 296 0
DWIDTH 8 0
BBX 6 9 0 -1
BITMAP
FC
80
80
80
F8
80
80
80
FC
ENDCHAR
STARTCHAR U+0396
ENCODING 918
SWIDTH 333 0
DWIDTH 9 0
BBX 7 9 0 -1
BITMAP
FE
04
08
08
10
20
20
40
FE
ENDCHAR
STARTCHAR U+0397
ENCODING 919
SWIDTH 333 0
DWIDTH 9 0
BBX 7 9 0 -1
BITMAP
82
82
82
82
FE
82
82
82
82
ENDCHAR
STARTCHAR U+0398
ENCODING 920
SWIDTH 370 0
DWIDTH 10 0
BBX 8 9 0 -1
BITMAP
3C
42
81
81
BD
81
81
42
3C
ENDCHAR
STARTCHAR U+0399
ENCODING 921
SWIDTH 185 0
DWIDTH 5 0
BBX 3 9 0 -1
BITMAP
E0
40
40
40
40
40
40
40
E0
ENDCHAR
STARTCHAR U+039A
ENCODING 922
SWIDTH 333 0
DWIDTH 9 0
BBX 7 9 0 -1
BITMAP
84
88
90
A0
E0
90
88
84
82
ENDCHAR
STARTCHAR U+039B
ENCODING 923
SWIDTH 444 0
DWIDTH 12 0
BBX 9 9 1 -1
BITMAP
0800
1400
1400
2200
2200
4100
4100
8080
8080
ENDCHAR
STARTCHAR U+039C
ENCODING 924
SWIDTH 444 0
DWIDTH 12 0
BBX 9 9 1 -1
BITMAP
8080
C180
C180
A280
A280
9480
9480
8880
8880
ENDCHAR
STARTCHAR U+039D
ENCODING 925
SWIDTH 407 0
DWIDTH 11 0
BBX 7 9 2 -1
BITMAP
82
C2
A2
A2
92
8A
8A
86
82
ENDCHAR
STARTCHAR U+039E
ENCODING 926
SWIDTH 333 0
DWIDTH 9 0
BBX 7 9 0 -1
BITMAP
FE
00
00
00
7C
00
00
00
FE
ENDCHAR
STARTCHAR U+039F
ENCODING 927
SWIDTH 370 0
DWIDTH 10 0
BBX 8 9 0 -1
BITMAP
3C
42
81
81
81
81
81
42
3C
ENDCHAR
STARTCHAR U+03A0
ENCODING 928
SWIDTH 370 0
DWIDTH 10 0
BBX 8 9 0 -1
BITMAP
FF
42
42
42
42
42
42
42
42
ENDCHAR
STARTCHAR U+03A1
ENCODING 929
SWIDTH 333 0
DWIDTH 9 0
BBX 7 9 0 -1
BITMAP
FC
82
82
82
FC
80
80
80
80
ENDCHAR
STARTCHAR U+03A3
ENCODING 931
SWIDTH 333 0
DWIDTH 9 0
BBX 7 9 0 -1
BITMAP
FE
40
20
10
08
10
20
40
FE
ENDCHAR
STARTCHAR U+03A4
ENCODING 932
SWIDTH 333 0
DWIDTH 9 0
BBX 7 9 0 -1
BITMAP
FE
10
10
10
10
10
10
10
10
ENDCHAR
STARTCHAR U+03A5
ENCODING 933
SWIDTH 333 0
DWIDTH 9 0
BBX 7 9 0 -1
BITMAP
82
44
44
28
28
10
10
10
10
ENDCHAR
STARTCHAR U+03A6
ENCODING 934
SWIDTH 333 0
DWIDTH 9 0
BBX 7 9 0 -1
BITMAP
10
7C
92
92
92
92
92
7C
10
ENDCHAR
STARTCHAR U+03A7
ENCODING 935
SWIDTH 333 0
DWIDTH 9 0
BBX 7 9 0 -1
BITMAP
82
44
44
28
10
28
44
44
82
ENDCHAR
STARTCHAR U+03A8
ENCODING 936
SWIDTH 407 0
DWIDTH 11 0
BBX 9 9 0 -1
BITMAP
0800
8880
4900
4900
4900
3E00
0800
0800
0800
ENDCHAR
STARTCHAR U+03A9
ENCODING 937
SWIDTH 370 0
DWIDTH 10 0
BBX 8 9 0 -1
BITMAP
3C
42
81
81
81
42
24
24
E7
ENDCHAR
STARTCHAR U+03AA
ENCODING 938
SWIDTH 185 0
DWIDTH 5 0
BBX 3 10 0 -1
BITMAP
A0
00
E0
40
40
40
40
40
40
E0
ENDCHAR
STARTCHAR U+03AB
ENCODING 939
SWIDTH 259 0
DWIDTH 7 0
BBX 5 10 0 -1
BITMAP
50
00
88
88
50
50
20
20
20
20
ENDCHAR
STARTCHAR U+03AC
ENCODING 940
SWIDTH 259 0
DWIDTH 7 0
BBX 5 9 0 -1
BITMAP
20
40
00
68
98
90
90
90
68
ENDCHAR
STARTCHAR U+03AD
ENCODING 941
SWIDTH 259 0
DWIDTH 7 0
BBX 5 9 0 -1
BITMAP
20
40
00
70
88
60
80
88
70
ENDCHAR
STARTCHAR U+03AE
ENCODING 942
SWIDTH 259 0
DWIDTH 7 0
BBX 5 10 0 -2
BITMAP
10
20
00
B0
48
48
48
90
90
10
ENDCHAR
STARTCHAR U+03AF
ENCODING 943
SWIDTH 185 0
DWIDTH 5 0
BBX 3 9 0 -1
BITMAP
40
80
00
80
80
80
80
A0
40
ENDCHAR
STARTCHAR U+03B0
ENCODING 944
SWIDTH 259 0
DWIDTH 7 0
BBX 5 10 0 -1
BITMAP
10
20
00
50
00
90
88
88
88
70
ENDCHAR
STARTCHAR U+03B1
ENCODING 945
SWIDTH 444 0
DWIDTH 12 0
BBX 9 7 1 -1
BITMAP
1900
2500
4200
8200
8400
8C80
7300
ENDCHAR
STARTCHAR U+03B2
ENCODING 946
SWIDTH 296 0
DWIDTH 8 0
BBX 6 10 0 -2
BITMAP
18
24
24
58
44
84
C4
B8
80
80
ENDCHAR
STARTCHAR U+03B3
ENCODING 947
SWIDTH 370 0
DWIDTH 10 0
BBX 8 8 0 -2
BITMAP
63
94
08
08
08
10
10
10
ENDCHAR
STARTCHAR U+03B4
ENCODING 948
SWIDTH 333 0
DWIDTH 9 0
BBX 7 9 0 -1
BITMAP
18
24
12
28
44
84
84
88
70
ENDCHAR
STARTCHAR U+03B5
ENCODING 949
SWIDTH 259 0
DWIDTH 7 0
BBX 5 7 0 -1
BITMAP
30
48
40
70
80
88
70
ENDCHAR
STARTCHAR U+03B6
ENCODING 950
SWIDTH 296 0
DWIDTH 8 0
BBX 6 10 0 -2
BITMAP
20
4C
30
20
40
80
80
70
08
70
ENDCHAR
STARTCHAR U+03B7
ENCODING 951
SWIDTH 333 0
DWIDTH 9 0
BBX 7 8 0 -2
BITMAP
6C
92
22
22
42
44
04
04
ENDCHAR
STARTCHAR U+03B8
ENCODING 952
SWIDTH 259 0
DWIDTH 7 0
BBX 5 9 0 -1
BITMAP
30
48
48
88
F8
88
90
90
60
ENDCHAR
STARTCHAR U+03B9
ENCODING 953
SWIDTH 185 0
DWIDTH 5 0
BBX 3 7 0 -1
BITMAP
40
40
40
80
80
A0
40
ENDCHAR
STARTCHAR U+03BA
ENCODING 954
SWIDTH 333 0
DWIDTH 9 0
BBX 7 7 0 -1
BITMAP
46
48
50
70
88
8A
84
ENDCHAR
STARTCHAR U+03BB
ENCODING 955
SWIDTH 333 0
DWIDTH 9 0
BBX 7 9 0 -1
BITMAP
30
48
08
18
18
28
28
48
86
ENDCHAR
STARTCHAR U+03BC
ENCODING 956
SWIDTH 370 0
DWIDTH 10 0
BBX 8 8 0 -2
BITMAP
22
22
22
44
44
7B
80
80
ENDCHAR
STARTCHAR U+03BD
ENCODING 957
SWIDTH 370 0
DWIDTH 10 0
BBX 8 7 0 -1
BITMAP
41
A1
21
22
44
58
60
ENDCHAR
STARTCHAR U+03BE
ENCODING 958
SWIDTH 259 0
DWIDTH 7 0
BBX 5 10 0 -2
BITMAP
18
20
38
40
78
80
80
70
08
70
ENDCHAR
STARTCHAR U+03BF
ENCODING 959
SWIDTH 296 0
DWIDTH 8 0
BBX 6 7 0 -1
BITMAP
38
44
84
84
84
88
70
ENDCHAR
STARTCHAR U+03C0
ENCODING 960
SWIDTH 407 0
DWIDTH 11 0
BBX 9 8 0 -1
BITMAP
0080
7F00
9200
1200
1200
2400
2480
4300
ENDCHAR
STARTCHAR U+03C1
ENCODING 961
SWIDTH 333 0
DWIDTH 9 0
BBX 7 8 0 -2
BITMAP
1C
22
42
42
44
B8
80
80
ENDCHAR
STARTCHAR U+03C2
ENCODING 962
SWIDTH 259 0
DWIDTH 7 0
BBX 5 7 0 -2
BITMAP
30
48
80
80
70
08
30
ENDCHAR
STARTCHAR U+03C3
ENCODING 963
SWIDTH 370 0
DWIDTH 10 0
BBX 8 8 0 -1
BITMAP
01
3E
44
84
84
84
88
70
ENDCHAR
STARTCHAR U+03C4
ENCODING 964
SWIDTH 333 0
DWIDTH 9 0
BBX 7 8 0 -1
BITMAP
02
7C
90
10
20
20
24
18
ENDCHAR
STARTCHAR U+03C5
ENCODING 965
SWIDTH 296 0
DWIDTH 8 0
BBX 6 7 0 -1
BITMAP
90
88
84
84
84
88
70
ENDCHAR
STARTCHAR U+03C6
ENCODING 966
SWIDTH 333 0
DWIDTH 9 0
BBX 7 10 0 -2
BITMAP
08
08
3C
4A
92
92
94
78
20
20
ENDCHAR
STARTCHAR U+03C7
ENCODING 967
SWIDTH 370 0
DWIDTH 10 0
BBX 8 8 0 -2
BITMAP
61
12
14
08
10
28
48
86
ENDCHAR
STARTCHAR U+03C8
ENCODING 968
SWIDTH 407 0
DWIDTH 11 0
BBX 9 10 0 -2
BITMAP
0400
0400
4400
A480
2480
4880
4900
3E00
0800
0800
ENDCHAR
STARTCHAR U+03C9
ENCODING 969
SWIDTH 407 0
DWIDTH 11 0
BBX 9 7 0 -1
BITMAP
4100
8080
8880
8880
8880
8880
7700
ENDCHAR
STARTCHAR U+03CA
ENCODING 970
SWIDTH 222 0
DWIDTH 6 0
BBX 4 8 0 -1
BITMAP
A0
00
40
40
40
40
50
20
ENDCHAR
STARTCHAR U+03CB
ENCODING 971
SWIDTH 259 0
DWIDTH 7 0
BBX 5 8 0 -1
BITMAP
50
00
90
88
88
88
88
70
ENDCHAR
STARTCHAR U+03CC
ENCODING 972
SWIDTH 259 0
DWIDTH 7 0
BBX 5 9 0 -1
BITMAP
20
40
00
30
48
88
88
90
60
ENDCHAR
STARTCHAR U+03CD
ENCODING 973
SWIDTH 259 0
DWIDTH 7 0
BBX 5 9 0 -1
BITMAP
20
40
00
90
88
88
88
88
70
ENDCHAR
STARTCHAR U+03CE
ENCODING 974
SWIDTH 259 0
DWIDTH 7 0
BBX 5 9 0 -1
BITMAP
20
40
00
50
88
A8
A8
A8
50
ENDCHAR
STARTCHAR U+0401
ENCODING 1025
SWIDTH 296 0
DWIDTH 8 0
BBX 6 10 0 -1
BITMAP
48
00
FC
80
80
F8
80
80
80
FC
ENDCHAR
STARTCHAR U+0402
ENCODING 1026
SWIDTH 259 0
DWIDTH 7 0
BBX 5 11 0 -3
BITMAP
F0
40
40
70
48
48
48
48
48
08
30
ENDCHAR
STARTCHAR U+0403
ENCODING 1027
SWIDTH 259 0
DWIDTH 7 0
BBX 4 10 1 -1
BITMAP
40
80
00
F0
80
80
80
80
80
80
ENDCHAR
STARTCHAR U+0404
ENCODING 1028
SWIDTH 259 0
DWIDTH 7 0
BBX 5 9 0 -1
BITMAP
30
48
80
80
F0
80
80
48
30
ENDCHAR
STARTCHAR U+0405
ENCODING 1029
SWIDTH 259 0
DWIDTH 7 0
BBX 5 9 0 -1
BITMAP
70
88
88
40
20
10
88
88
70
ENDCHAR
STARTCHAR U+0406
ENCODING 1030
SWIDTH 185 0
DWIDTH 5 0
BBX 3 9 0 -1
BITMAP
E0
40
40
40
40
40
40
40
E0
ENDCHAR
STARTCHAR U+0407
ENCODING 1031
SWIDTH 185 0
DWIDTH 5 0
BBX 3 10 0 -1
BITMAP
A0
00
E0
40
40
40
40
40
40
E0
ENDCHAR
STARTCHAR U+0408
ENCODING 1032
SWIDTH 222 0
DWIDTH 6 0
BBX 4 9 0 -1
BITMAP
10
10
10
10
10
10
90
90
60
ENDCHAR
STARTCHAR U+0409
ENCODING 1033
SWIDTH 259 0
DWIDTH 7 0
BBX 5 9 0 -1
BITMAP
A0
A0
A0
A0
B0
A8
A8
A8
B0
ENDCHAR
STARTCHAR U+040A
ENCODING 1034
SWIDTH 259 0
DWIDTH 7 0
BBX 5 9 0 -1
BITMAP
A0
A0
A0
A0
F0
A8
A8
A8
B0
ENDCHAR
STARTCHAR U+040B
ENCODING 1035
SWIDTH 259 0
DWIDTH 7 0
BBX 5 9 0 -1
BITMAP
E0
40
40
70
48
48
48
48
48
ENDCHAR
STARTCHAR U+040C
ENCODING 1036
SWIDTH 259 0
DWIDTH 7 0
BBX 5 10 0 -1
BITMAP
20
40
98
A0
A0
C0
A0
A0
90
88
ENDCHAR
STARTCHAR U+040E
ENCODING 1038
SWIDTH 259 0
DWIDTH 7 0
BBX 5 10 0 -1
BITMAP
90
60
88
88
88
50
50
20
20
C0
ENDCHAR
STARTCHAR U+040F
ENCODING 1039
SWIDTH 259 0
DWIDTH 7 0
BBX 5 10 0 -2
BITMAP
88
88
88
88
88
88
88
88
F8
20
ENDCHAR
STARTCHAR U+0410
ENCODING 1040
SWIDTH 407 0
DWIDTH 11 0
BBX 9 9 0 -1
BITMAP
0800
1400
1400
2200
2200
4100
7F00
8080
8080
ENDCHAR
STARTCHAR U+0411
ENCODING 1041
SWIDTH 296 0
DWIDTH 8 0
BBX 6 9 0 -1
BITMAP
F8
80
80
80
F8
84
84
84
F8
ENDCHAR
STARTCHAR U+0412
ENCODING 1042
SWIDTH 296 0
DWIDTH 8 0
BBX 6 9 0 -1
BITMAP
F8
84
84
84
F8
84
84
84
F8
ENDCHAR
STARTCHAR U+0413
ENCODING 1043
SWIDTH 296 0
DWIDTH 8 0
BBX 6 9 0 -1
BITMAP
FC
80
80
80
80
80
80
80
80
ENDCHAR
STARTCHAR U+0414
ENCODING 1044
SWIDTH 370 0
DWIDTH 10 0
BBX 8 10 0 -2
BITMAP
1E
22
22
22
22
22
22
42
FF
81
ENDCHAR
STARTCHAR U+0415
ENCODING 1045
SWIDTH 296 0
DWIDTH 8 0
BBX 6 9 0 -1
BITMAP
FC
80
80
80
F8
80
80
80
FC
ENDCHAR
STARTCHAR U+0416
ENCODING 1046
SWIDTH 481 0
DWIDTH 13 0
BBX 11 9 0 -1
BITMAP
C460
2480
2480
2480
1F00
2480
4440
4440
8420
ENDCHAR
STARTCHAR U+0417
ENCODING 1047
SWIDTH 296 0
DWIDTH 8 0
BBX 6 9 0 -1
BITMAP
78
84
04
04
38
04
04
84
78
ENDCHAR
STARTCHAR U+0418
ENCODING 1048
SWIDTH 333 0
DWIDTH 9 0
BBX 7 9 0 -1
BITMAP
82
82
86
8A
92
A2
C2
82
82
ENDCHAR
STARTCHAR U+0419
ENCODING 1049
SWIDTH 333 0
DWIDTH 9 0
BBX 7 10 0 -1
BITMAP
44
38
82
86
8A
92
A2
C2
82
82
ENDCHAR
STARTCHAR U+041A
ENCODING 1050
SWIDTH 333 0
DWIDTH 9 0
BBX 7 9 0 -1
BITMAP
86
88
88
88
F0
88
84
84
82
ENDCHAR
STARTCHAR U+041B
ENCODING 1051
SWIDTH 333 0
DWIDTH 9 0
BBX 7 9 0 -1
BITMAP
3E
22
22
22
22
22
22
22
C2
ENDCHAR
STARTCHAR U+041C
ENCODING 1052
SWIDTH 407 0
DWIDTH 11 0
BBX 9 9 0 -1
BITMAP
8080
C180
C180
A280
A280
9480
9480
8880
8880
ENDCHAR
STARTCHAR U+041D
ENCODING 1053
SWIDTH 333 0
DWIDTH 9 0
BBX 7 9 0 -1
BITMAP
82
82
82
82
FE
82
82
82
82
ENDCHAR
STARTCHAR U+041E
ENCODING 1054
SWIDTH 370 0
DWIDTH 10 0
BBX 8 9 0 -1
BITMAP
3C
42
81
81
81
81
81
42
3C
ENDCHAR
STARTCHAR U+041F
ENCODING 1055
SWIDTH 333 0
DWIDTH 9 0
BBX 7 9 0 -1
BITMAP
FE
82
82
82
82
82
82
82
82
ENDCHAR
STARTCHAR U+0420
ENCODING 1056
SWIDTH 333 0
DWIDTH 9 0
BBX 7 9 0 -1
BITMAP
FC
82
82
82
FC
80
80
80
80
ENDCHAR
STARTCHAR U+0421
ENCODING 1057
SWIDTH 333 0
DWIDTH 9 0
BBX 7 9 0 -1
BITMAP
38
44
82
80
80
80
82
44
38
ENDCHAR
STARTCHAR U+0422
ENCODING 1058
SWIDTH 333 0
DWIDTH 9 0
BBX 7 9 0 -1
BITMAP
FE
10
10
10
10
10
10
10
10
ENDCHAR
STARTCHAR U+0423
ENCODING 1059
SWIDTH 333 0
DWIDTH 9 0
BBX 7 9 0 -1
BITMAP
82
44
44
28
28
10
10
20
C0
ENDCHAR
STARTCHAR U+0424
ENCODING 1060
SWIDTH 333 0
DWIDTH 9 0
BBX 7 9 0 -1
BITMAP
10
7C
92
92
92
92
92
7C
10
ENDCHAR
STARTCHAR U+0425
ENCODING 1061
SWIDTH 333 0
DWIDTH 9 0
BBX 7 9 0 -1
BITMAP
82
44
44
28
10
28
44
44
82
ENDCHAR
STARTCHAR U+0426
ENCODING 1062
SWIDTH 370 0
DWIDTH 10 0
BBX 8 10 0 -2
BITMAP
84
84
84
84
84
84
84
84
FF
01
ENDCHAR
STARTCHAR U+0427
ENCODING 1063
SWIDTH 333 0
DWIDTH 9 0
BBX 7 9 0 -1
BITMAP
82
82
82
82
86
7A
02
02
02
ENDCHAR
STARTCHAR U+0428
ENCODING 1064
SWIDTH 407 0
DWIDTH 11 0
BBX 9 9 0 -1
BITMAP
8880
8880
8880
8880
8880
8880
8880
8880
FF80
ENDCHAR
STARTCHAR U+0429
ENCODING 1065
SWIDTH 444 0
DWIDTH 12 0
BBX 10 10 0 -2
BITMAP
8880
8880
8880
8880
8880
8880
8880
8880
FFC0
0040
ENDCHAR
STARTCHAR U+042A
ENCODING 1066
SWIDTH 407 0
DWIDTH 11 0
BBX 9 9 0 -1
BITMAP
F000
1000
1000
1000
1F00
1080
1080
1080
1F00
ENDCHAR
STARTCHAR U+042B
ENCODING 1067
SWIDTH 370 0
DWIDTH 10 0
BBX 8 9 0 -1
BITMAP
81
81
81
81
F1
89
89
89
F1
ENDCHAR
STARTCHAR U+042C
ENCODING 1068
SWIDTH 296 0
DWIDTH 8 0
BBX 6 9 0 -1
BITMAP
80
80
80
80
F8
84
84
84
F8
ENDCHAR
STARTCHAR U+042D
ENCODING 1069
SWIDTH 333 0
DWIDTH 9 0
BBX 7 9 0 -1
BITMAP
38
44
82
02
1E
02
82
44
38
ENDCHAR
STARTCHAR U+042E
ENCODING 1070
SWIDTH 407 0
DWIDTH 11 0
BBX 9 9 0 -1
BITMAP
8600
8900
9080
9080
F080
9080
9080
8900
8600
ENDCHAR
STARTCHAR U+042F
ENCODING 1071
SWIDTH 333 0
DWIDTH 9 0
BBX 7 9 0 -1
BITMAP
3E
42
42
42
3E
22
42
42
82
ENDCHAR
STARTCHAR U+0430
ENCODING 1072
SWIDTH 333 0
DWIDTH 9 0
BBX 7 7 0 -1
BITMAP
78
84
04
7C
84
8C
76
ENDCHAR
STARTCHAR U+0431
ENCODING 1073
SWIDTH 259 0
DWIDTH 7 0
BBX 5 10 0 -1
BITMAP
08
30
40
80
F0
88
88
88
88
70
ENDCHAR
STARTCHAR U+0432
ENCODING 1074
SWIDTH 296 0
DWIDTH 8 0
BBX 6 7 0 -1
BITMAP
F8
84
84
F8
84
84
F8
ENDCHAR
STARTCHAR U+0433
ENCODING 1075
SWIDTH 259 0
DWIDTH 7 0
BBX 5 7 0 -1
BITMAP
F8
80
80
80
80
80
80
ENDCHAR
STARTCHAR U+0434
ENCODING 1076
SWIDTH 333 0
DWIDTH 9 0
BBX 7 8 0 -2
BITMAP
3C
24
24
24
24
44
FE
82
ENDCHAR
STARTCHAR U+0435
ENCODING 1077
SWIDTH 296 0
DWIDTH 8 0
BBX 6 7 0 -1
BITMAP
78
84
84
FC
80
84
78
ENDCHAR
STARTCHAR U+0436
ENCODING 1078
SWIDTH 407 0
DWIDTH 11 0
BBX 9 7 0 -1
BITMAP
C980
2A00
2A00
3E00
4900
4900
8880
ENDCHAR
STARTCHAR U+0437
ENCODING 1079
SWIDTH 296 0
DWIDTH 8 0
BBX 6 7 0 -1
BITMAP
78
84
04
78
04
84
78
ENDCHAR
STARTCHAR U+0438
ENCODING 1080
SWIDTH 296 0
DWIDTH 8 0
BBX 6 7 0 -1
BITMAP
84
8C
94
A4
C4
84
84
ENDCHAR
STARTCHAR U+0439
ENCODING 1081
SWIDTH 296 0
DWIDTH 8 0
BBX 6 9 0 -1
BITMAP
48
30
84
8C
94
A4
C4
84
84
ENDCHAR
STARTCHAR U+043A
ENCODING 1082
SWIDTH 296 0
DWIDTH 8 0
BBX 6 7 0 -1
BITMAP
8C
90
90
E0
90
88
84
ENDCHAR
STARTCHAR U+043B
ENCODING 1083
SWIDTH 296 0
DWIDTH 8 0
BBX 6 7 0 -1
BITMAP
7C
44
44
44
44
44
84
ENDCHAR
STARTCHAR U+043C
ENCODING 1084
SWIDTH 333 0
DWIDTH 9 0
BBX 7 7 0 -1
BITMAP
82
C6
C6
AA
AA
92
92
ENDCHAR
STARTCHAR U+043D
ENCODING 1085
SWIDTH 296 0
DWIDTH 8 0
BBX 6 7 0 -1
BITMAP
84
84
84
FC
84
84
84
ENDCHAR
STARTCHAR U+043E
ENCODING 1086
SWIDTH 296 0
DWIDTH 8 0
BBX 6 7 0 -1
BITMAP
78
84
84
84
84
84
78
ENDCHAR
STARTCHAR U+043F
ENCODING 1087
SWIDTH 296 0
DWIDTH 8 0
BBX 6 7 0 -1
BITMAP
FC
84
84
84
84
84
84
ENDCHAR
STARTCHAR U+0440
ENCODING 1088
SWIDTH 296 0
DWIDTH 8 0
BBX 6 8 0 -2
BITMAP
B8
C4
84
84
C4
B8
80
80
ENDCHAR
STARTCHAR U+0441
ENCODING 1089
SWIDTH 296 0
DWIDTH 8 0
BBX 6 7 0 -1
BITMAP
38
44
80
80
80
44
38
ENDCHAR
STARTCHAR U+0442
ENCODING 1090
SWIDTH 333 0
DWIDTH 9 0
BBX 7 7 0 -1
BITMAP
FE
10
10
10
10
10
10
ENDCHAR
STARTCHAR U+0443
ENCODING 1091
SWIDTH 333 0
DWIDTH 9 0
BBX 7 8 0 -2
BITMAP
82
44
44
28
28
10
10
60
ENDCHAR
STARTCHAR U+0444
ENCODING 1092
SWIDTH 407 0
DWIDTH 11 0
BBX 9 10 0 -2
BITMAP
0800
0800
6B00
9C80
8880
8880
9C80
6B00
0800
0800
ENDCHAR
STARTCHAR U+0445
ENCODING 1093
SWIDTH 333 0
DWIDTH 9 0
BBX 7 7 0 -1
BITMAP
82
44
28
10
28
44
82
ENDCHAR
STARTCHAR U+0446
ENCODING 1094
SWIDTH 333 0
DWIDTH 9 0
BBX 7 8 0 -2
BITMAP
84
84
84
84
84
84
FE
02
ENDCHAR
STARTCHAR U+0447
ENCODING 1095
SWIDTH 296 0
DWIDTH 8 0
BBX 6 7 0 -1
BITMAP
84
84
84
8C
74
04
04
ENDCHAR
STARTCHAR U+0448
ENCODING 1096
SWIDTH 407 0
DWIDTH 11 0
BBX 9 7 0 -1
BITMAP
8880
8880
8880
8880
8880
8880
FF80
ENDCHAR
STARTCHAR U+0449
ENCODING 1097
SWIDTH 444 0
DWIDTH 12 0
BBX 10 8 0 -2
BITMAP
8880
8880
8880
8880
8880
8880
FFC0
0040
ENDCHAR
STARTCHAR U+044A
ENCODING 1098
SWIDTH 333 0
DWIDTH 9 0
BBX 7 7 0 -1
BITMAP
E0
20
20
3C
22
22
3C
ENDCHAR
STARTCHAR U+044B
ENCODING 1099
SWIDTH 333 0
DWIDTH 9 0
BBX 7 7 0 -1
BITMAP
82
82
82
F2
8A
8A
F2
ENDCHAR
STARTCHAR U+044C
ENCODING 1100
SWIDTH 259 0
DWIDTH 7 0
BBX 5 7 0 -1
BITMAP
80
80
80
F0
88
88
F0
ENDCHAR
STARTCHAR U+044D
ENCODING 1101
SWIDTH 296 0
DWIDTH 8 0
BBX 6 7 0 -1
BITMAP
70
88
04
3C
04
88
70
ENDCHAR
STARTCHAR U+044E
ENCODING 1102
SWIDTH 370 0
DWIDTH 10 0
BBX 8 7 0 -1
BITMAP
8E
91
91
F1
91
91
8E
ENDCHAR
STARTCHAR U+044F
ENCODING 1103
SWIDTH 296 0
DWIDTH 8 0
BBX 6 7 0 -1
BITMAP
7C
84
84
7C
24
44
84
ENDCHAR
STARTCHAR U+0451
ENCODING 1105
SWIDTH 296 0
DWIDTH 8 0
BBX 6 9 0 -1
BITMAP
48
00
78
84
84
FC
80
84
78
ENDCHAR
STARTCHAR U+0452
ENCODING 1106
SWIDTH 259 0
DWIDTH 7 0
BBX 5 10 0 -2
BITMAP
80
F0
80
F0
88
88
88
88
88
10
ENDCHAR
STARTCHAR U+0453
ENCODING 1107
SWIDTH 222 0
DWIDTH 6 0
BBX 4 9 0 -1
BITMAP
20
40
00
F0
80
80
80
80
80
ENDCHAR
STARTCHAR U+0454
ENCODING 1108
SWIDTH 259 0
DWIDTH 7 0
BBX 5 6 0 -1
BITMAP
70
88
E0
80
88
70
ENDCHAR
STARTCHAR U+0455
ENCODING 1109
SWIDTH 259 0
DWIDTH 7 0
BBX 5 6 0 -1
BITMAP
70
88
60
10
88
70
ENDCHAR
STARTCHAR U+0456
ENCODING 1110
SWIDTH 111 0
DWIDTH 3 0
BBX 1 9 0 -1
BITMAP
80
80
00
80
80
80
80
80
80
ENDCHAR
STARTCHAR U+0457
ENCODING 1111
SWIDTH 185 0
DWIDTH 5 0
BBX 3 8 0 -1
BITMAP
A0
00
40
40
40
40
40
40
ENDCHAR
STARTCHAR U+0458
ENCODING 1112
SWIDTH 185 0
DWIDTH 5 0
BBX 3 10 0 -2
BITMAP
20
20
00
20
20
20
20
20
20
C0
ENDCHAR
STARTCHAR U+0459
ENCODING 1113
SWIDTH 259 0
DWIDTH 7 0
BBX 5 6 0 -1
BITMAP
60
60
70
68
68
F0
ENDCHAR
STARTCHAR U+045A
ENCODING 1114
SWIDTH 259 0
DWIDTH 7 0
BBX 5 6 0 -1
BITMAP
A0
A0
F0
A8
A8
B0
ENDCHAR
STARTCHAR U+045B
ENCODING 1115
SWIDTH 259 0
DWIDTH 7 0
BBX 5 9 0 -1
BITMAP
40
F0
40
70
48
48
48
48
48
ENDCHAR
STARTCHAR U+045C
ENCODING 1116
SWIDTH 259 0
DWIDTH 7 0
BBX 5 9 0 -1
BITMAP
20
40
00
88
90
A0
E0
90
88
ENDCHAR
STARTCHAR U+045E
ENCODING 1118
SWIDTH 259 0
DWIDTH 7 0
BBX 5 10 0 -2
BITMAP
88
70
00
88
88
50
50
20
20
C0
ENDCHAR
STARTCHAR U+045F
ENCODING 1119
SWIDTH 259 0
DWIDTH 7 0
BBX 5 7 0 -2
BITMAP
88
88
88
88
88
F8
20
ENDCHAR
STARTCHAR U+0490
ENCODING 1168
SWIDTH 185 0
DWIDTH 5 0
BBX 3 10 0 -1
BITMAP
20
E0
80
80
80
80
80
80
80
80
ENDCHAR
STARTCHAR U+0491
ENCODING 1169
SWIDTH 185 0
DWIDTH 5 0
BBX 3 7 0 -1
BITMAP
20
E0
80
80
80
80
80
ENDCHAR
STARTCHAR U+2010
ENCODING 8208
SWIDTH 481 0
DWIDTH 13 0
BBX 3 1 4 3
BITMAP
E0
ENDCHAR
STARTCHAR U+2013
ENCODING 8211
SWIDTH 481 0
DWIDTH 13 0
BBX 3 1 4 3
BITMAP
E0
ENDCHAR
STARTCHAR U+2014
ENCODING 8212
SWIDTH 481 0
DWIDTH 13 0
BBX 6 1 3 3
BITMAP
FC
ENDCHAR
STARTCHAR U+2015
ENCODING 8213
SWIDTH 481 0
DWIDTH 13 0
BBX 12 1 0 3
BITMAP
FFF0
ENDCHAR
STARTCHAR U+2016
ENCODING 8214
SWIDTH 481 0
DWIDTH 13 0
BBX 4 12 4 -3
BITMAP
90
90
90
90
90
90
90
90
90
90
90
90
ENDCHAR
STARTCHAR U+2017
ENCODING 8215
SWIDTH 481 0
DWIDTH 13 0
BBX 6 3 0 -3
BITMAP
FC
00
FC
ENDCHAR
STARTCHAR U+2018
ENCODING 8216
SWIDTH 481 0
DWIDTH 13 0
BBX 2 4 8 5
BITMAP
40
80
C0
C0
ENDCHAR
STARTCHAR U+2019
ENCODING 8217
SWIDTH 481 0
DWIDTH 13 0
BBX 2 4 1 5
BITMAP
C0
C0
40
80
ENDCHAR
STARTCHAR U+201A
ENCODING 8218
SWIDTH 481 0
DWIDTH 13 0
BBX 2 4 4 1
BITMAP
C0
C0
40
80
ENDCHAR
STARTCHAR U+201B
ENCODING 8219
SWIDTH 481 0
DWIDTH 13 0
BBX 2 4 1 4
BITMAP
C0
C0
80
40
ENDCHAR
STARTCHAR U+201C
ENCODING 8220
SWIDTH 481 0
DWIDTH 13 0
BBX 5 4 6 5
BITMAP
48
90
D8
D8
ENDCHAR
STARTCHAR U+201D
ENCODING 8221
SWIDTH 481 0
DWIDTH 13 0
BBX 5 4 0 5
BITMAP
D8
D8
48
90
ENDCHAR
STARTCHAR U+201E
ENCODING 8222
SWIDTH 481 0
DWIDTH 13 0
BBX 5 4 0 -2
BITMAP
D8
D8
48
90
ENDCHAR
STARTCHAR U+2020
ENCODING 8224
SWIDTH 481 0
DWIDTH 13 0
BBX 5 11 3 -2
BITMAP
20
20
F8
20
20
20
20
20
20
20
20
ENDCHAR
STARTCHAR U+2021
ENCODING 8225
SWIDTH 481 0
DWIDTH 13 0
BBX 5 11 3 -2
BITMAP
20
20
20
F8
20
20
F8
20
20
20
20
ENDCHAR
STARTCHAR U+2022
ENCODING 8226
SWIDTH 481 0
DWIDTH 13 0
BBX 2 2 1 3
BITMAP
C0
C0
ENDCHAR
STARTCHAR U+2025
ENCODING 8229
SWIDTH 481 0
DWIDTH 13 0
BBX 8 2 1 0
BITMAP
C3
C3
ENDCHAR
STARTCHAR U+2026
ENCODING 8230
SWIDTH 481 0
DWIDTH 13 0
BBX 10 2 0 0
BITMAP
CCC0
CCC0
ENDCHAR
STARTCHAR U+2030
ENCODING 8240
SWIDTH 481 0
DWIDTH 13 0
BBX 11 9 0 -1
BITMAP
4200
A400
A400
4800
1000
2440
2AA0
4AA0
8440
ENDCHAR
STARTCHAR U+2032
ENCODING 8242
SWIDTH 481 0
DWIDTH 13 0
BBX 2 3 1 6
BITMAP
40
40
80
ENDCHAR
STARTCHAR U+2033
ENCODING 8243
SWIDTH 481 0
DWIDTH 13 0
BBX 4 3 1 6
BITMAP
50
50
A0
ENDCHAR
STARTCHAR U+2035
ENCODING 8245
SWIDTH 481 0
DWIDTH 13 0
BBX 2 4 4 5
BITMAP
80
80
40
40
ENDCHAR
STARTCHAR U+2039
ENCODING 8249
SWIDTH 481 0
DWIDTH 13 0
BBX 4 7 1 0
BITMAP
10
20
40
80
40
20
10
ENDCHAR
STARTCHAR U+203A
ENCODING 8250
SWIDTH 481 0
DWIDTH 13 0
BBX 4 7 1 0
BITMAP
80
40
20
10
20
40
80
ENDCHAR
STARTCHAR U+203B
ENCODING 8251
SWIDTH 481 0
DWIDTH 13 0
BBX 9 9 1 -1
BITMAP
8880
4900
2200
1400
C980
1400
2200
4900
8880
ENDCHAR
STARTCHAR U+203C
ENCODING 8252
SWIDTH 481 0
DWIDTH 13 0
BBX 3 9 1 -1
BITMAP
A0
A0
A0
A0
A0
00
00
A0
A0
ENDCHAR
STARTCHAR U+203E
ENCODING 8254
SWIDTH 481 0
DWIDTH 13 0
BBX 3 1 0 8
BITMAP
E0
ENDCHAR
STARTCHAR U+2051
ENCODING 8273
SWIDTH 481 0
DWIDTH 13 0
BBX 0 0 0 0
BITMAP
ENDCHAR
STARTCHAR U+207F
ENCODING 8319
SWIDTH 481 0
DWIDTH 13 0
BBX 4 4 0 4
BITMAP
E0
90
90
90
ENDCHAR
STARTCHAR U+20A3
ENCODING 8355
SWIDTH 481 0
DWIDTH 13 0
BBX 5 9 0 -1
BITMAP
F8
80
80
F0
80
E0
80
80
80
ENDCHAR
STARTCHAR U+20A4
ENCODING 8356
SWIDTH 481 0
DWIDTH 13 0
BBX 5 10 0 -1
BITMAP
30
48
40
F8
20
F8
20
E0
A8
58
ENDCHAR
STARTCHAR U+20A7
ENCODING 8359
SWIDTH 481 0
DWIDTH 13 0
BBX 6 9 0 -1
BITMAP
C0
A0
A0
A0
EC
B0
A8
A4
98
ENDCHAR
STARTCHAR U+20AB
ENCODING 8363
SWIDTH 481 0
DWIDTH 13 0
BBX 5 10 0 -2
BITMAP
10
78
10
70
90
90
90
70
00
70
ENDCHAR
STARTCHAR U+20AC
ENCODING 8364
SWIDTH 481 0
DWIDTH 13 0
BBX 8 9 1 -1
BITMAP
1E
21
40
FC
40
FC
40
21
1E
ENDCHAR
STARTCHAR U+20AD
ENCODING 8365
SWIDTH 481 0
DWIDTH 13 0
BBX 5 9 0 -1
BITMAP
48
50
50
60
F8
60
50
50
48
ENDCHAR
STARTCHAR U+20AE
ENCODING 8366
SWIDTH 481 0
DWIDTH 13 0
BBX 5 9 0 -1
BITMAP
F8
20
30
60
30
60
20
20
20
ENDCHAR
STARTCHAR U+20AF
ENCODING 8367
SWIDTH 481 0
DWIDTH 13 0
BBX 5 11 0 -2
BITMAP
10
E0
50
50
50
50
90
98
A8
F0
20
ENDCHAR
STARTCHAR U+20B0
ENCODING 8368
SWIDTH 481 0
DWIDTH 13 0
BBX 5 10 0 -2
BITMAP
10
28
28
28
10
28
A8
C8
48
10
ENDCHAR
STARTCHAR U+20B1
ENCODING 8369
SWIDTH 481 0
DWIDTH 13 0
BBX 5 9 0 -1
BITMAP
E0
90
F8
90
F8
90
E0
80
80
ENDCHAR
STARTCHAR U+2103
ENCODING 8451
SWIDTH 444 0
DWIDTH 12 0
BBX 10 10 0 -1
BITMAP
4000
A780
4840
1040
1000
1000
1000
1040
0840
0780
ENDCHAR
STARTCHAR U+2105
ENCODING 8453
SWIDTH 481 0
DWIDTH 13 0
BBX 8 8 0 -1
BITMAP
61
82
94
68
16
29
49
06
ENDCHAR
STARTCHAR U+2109
ENCODING 8457
SWIDTH 444 0
DWIDTH 12 0
BBX 10 10 0 -2
BITMAP
4FC0
A800
A800
4800
0F80
0800
0800
0800
0800
0800
ENDCHAR
STARTCHAR U+2113
ENCODING 8467
SWIDTH 259 0
DWIDTH 7 0
BBX 5 9 0 -1
BITMAP
20
50
50
50
50
50
60
C8
30
ENDCHAR
STARTCHAR U+2116
ENCODING 8470
SWIDTH 444 0
DWIDTH 12 0
BBX 10 8 0 -1
BITMAP
8800
C800
C980
AA40
AA40
9A40
9980
8BC0
ENDCHAR
STARTCHAR U+2121
ENCODING 8481
SWIDTH 481 0
DWIDTH 13 0
BBX 11 9 0 -1
BITMAP
F800
2000
2000
2E80
2880
2E80
2880
2880
2EE0
ENDCHAR
STARTCHAR U+2122
ENCODING 8482
SWIDTH 481 0
DWIDTH 13 0
BBX 5 5 0 3
BITMAP
E8
B8
B8
A8
A8
ENDCHAR
STARTCHAR U+2126
ENCODING 8486
SWIDTH 481 0
DWIDTH 13 0
BBX 5 9 0 -1
BITMAP
70
88
88
88
88
88
50
50
D8
ENDCHAR
STARTCHAR U+212B
ENCODING 8491
SWIDTH 481 0
DWIDTH 13 0
BBX 7 10 2 -1
BITMAP
10
28
10
10
28
28
44
7C
82
82
ENDCHAR
STARTCHAR U+212E
ENCODING 8494
SWIDTH 481 0
DWIDTH 13 0
BBX 5 8 0 -1
BITMAP
70
88
88
F8
80
88
88
70
ENDCHAR
STARTCHAR U+215B
ENCODING 8539
SWIDTH 481 0
DWIDTH 13 0
BBX 5 10 0 -1
BITMAP
C0
50
50
60
E0
78
68
B8
A8
38
ENDCHAR
STARTCHAR U+215C
ENCODING 8540
SWIDTH 481 0
DWIDTH 13 0
BBX 5 10 0 -1
BITMAP
C0
50
D0
60
E0
78
68
B8
A8
38
ENDCHAR
STARTCHAR U+215D
ENCODING 8541
SWIDTH 481 0
DWIDTH 13 0
BBX 5 10 0 -1
BITMAP
C0
90
50
E0
20
78
68
B8
A8
38
ENDCHAR
STARTCHAR U+215E
ENCODING 8542
SWIDTH 481 0
DWIDTH 13 0
BBX 5 10 0 -1
BITMAP
E0
30
50
60
60
78
68
B8
A8
38
ENDCHAR
STARTCHAR U+2160
ENCODING 8544
SWIDTH 481 0
DWIDTH 13 0
BBX 3 9 4 -1
BITMAP
E0
40
40
40
40
40
40
40
E0
ENDCHAR
STARTCHAR U+2161
ENCODING 8545
SWIDTH 481 0
DWIDTH 13 0
BBX 6 9 2 -1
BITMAP
FC
48
48
48
48
48
48
48
FC
ENDCHAR
STARTCHAR U+2162
ENCODING 8546
SWIDTH 481 0
DWIDTH 13 0
BBX 9 9 1 -1
BITMAP
FF80
4900
4900
4900
4900
4900
4900
4900
FF80
ENDCHAR
STARTCHAR U+2163
ENCODING 8547
SWIDTH 481 0
DWIDTH 13 0
BBX 11 9 0 -1
BITMAP
F8E0
5040
5040
4880
4880
4500
4500
4200
E200
ENDCHAR
STARTCHAR U+2164
ENCODING 8548
SWIDTH 481 0
DWIDTH 13 0
BBX 9 9 1 -1
BITMAP
E380
4100
4100
2200
2200
1400
1400
0800
0800
ENDCHAR
STARTCHAR U+2165
ENCODING 8549
SWIDTH 481 0
DWIDTH 13 0
BBX 11 9 0 -1
BITMAP
E3E0
4140
4140
2240
2240
1440
1440
0840
08E0
ENDCHAR
STARTCHAR U+2166
ENCODING 8550
SWIDTH 481 0
DWIDTH 13 0
BBX 11 9 0 -1
BITMAP
EFE0
4540
4540
4540
2940
2940
2940
1140
13E0
ENDCHAR
STARTCHAR U+2167
ENCODING 8551
SWIDTH 481 0
DWIDTH 13 0
BBX 11 9 0 -1
BITMAP
DFE0
8AA0
8AA0
8AA0
52A0
52A0
52A0
22A0
27E0
ENDCHAR
STARTCHAR U+2168
ENCODING 8552
SWIDTH 481 0
DWIDTH 13 0
BBX 9 9 1 -1
BITMAP
FB80
5100
4A00
4A00
4400
4A00
4A00
5100
FB80
ENDCHAR
STARTCHAR U+2169
ENCODING 8553
SWIDTH 481 0
DWIDTH 13 0
BBX 8 9 1 -1
BITMAP
E7
42
24
24
18
24
24
42
E7
ENDCHAR
STARTCHAR U+216A
ENCODING 8554
SWIDTH 481 0
DWIDTH 13 0
BBX 11 9 0 -1
BITMAP
EEE0
4440
2840
2840
1040
2840
2840
4440
EEE0
ENDCHAR
STARTCHAR U+216B
ENCODING 8555
SWIDTH 481 0
DWIDTH 13 0
BBX 11 9 0 -1
BITMAP
EFE0
4540
2940
2940
1140
2940
2940
4540
EFE0
ENDCHAR
STARTCHAR U+2170
ENCODING 8560
SWIDTH 481 0
DWIDTH 13 0
BBX 3 9 4 -1
BITMAP
40
40
00
C0
40
40
40
40
E0
ENDCHAR
STARTCHAR U+2171
ENCODING 8561
SWIDTH 481 0
DWIDTH 13 0
BBX 6 9 3 -1
BITMAP
48
48
00
D8
48
48
48
48
FC
ENDCHAR
STARTCHAR U+2172
ENCODING 8562
SWIDTH 481 0
DWIDTH 13 0
BBX 9 9 1 -1
BITMAP
4900
4900
0000
DB00
4900
4900
4900
4900
FF80
ENDCHAR
STARTCHAR U+2173
ENCODING 8563
SWIDTH 481 0
DWIDTH 13 0
BBX 9 9 1 -1
BITMAP
4000
4000
0000
FB80
5100
4A00
4A00
4400
E400
ENDCHAR
STARTCHAR U+2174
ENCODING 8564
SWIDTH 481 0
DWIDTH 13 0
BBX 7 6 2 -1
BITMAP
EE
44
28
28
10
10
ENDCHAR
STARTCHAR U+2175
ENCODING 8565
SWIDTH 481 0
DWIDTH 13 0
BBX 9 9 1 -1
BITMAP
0100
0100
0000
EF00
4500
2900
2900
1100
1380
ENDCHAR
STARTCHAR U+2176
ENCODING 8566
SWIDTH 481 0
DWIDTH 13 0
BBX 11 9 0 -1
BITMAP
0140
0140
0000
EFC0
4540
2940
2940
1140
13E0
ENDCHAR
STARTCHAR U+2177
ENCODING 8567
SWIDTH 481 0
DWIDTH 13 0
BBX 11 9 0 -1
BITMAP
0540
0540
0000
DFC0
5540
5540
5540
2540
2FE0
ENDCHAR
STARTCHAR U+2178
ENCODING 8568
SWIDTH 481 0
DWIDTH 13 0
BBX 9 9 0 -1
BITMAP
4000
4000
0000
FB80
5100
4E00
4A00
5100
FB80
ENDCHAR
STARTCHAR U+2179
ENCODING 8569
SWIDTH 481 0
DWIDTH 13 0
BBX 7 6 2 -1
BITMAP
EE
44
38
28
44
EE
ENDCHAR
STARTCHAR U+2190
ENCODING 8592
SWIDTH 481 0
DWIDTH 13 0
BBX 11 5 0 1
BITMAP
2000
4000
FFE0
4000
2000
ENDCHAR
STARTCHAR U+2191
ENCODING 8593
SWIDTH 481 0
DWIDTH 13 0
BBX 5 11 3 -2
BITMAP
20
70
A8
20
20
20
20
20
20
20
20
ENDCHAR
STARTCHAR U+2192
ENCODING 8594
SWIDTH 481 0
DWIDTH 13 0
BBX 11 5 0 1
BITMAP
0080
0040
FFE0
0040
0080
ENDCHAR
STARTCHAR U+2193
ENCODING 8595
SWIDTH 481 0
DWIDTH 13 0
BBX 5 11 3 -2
BITMAP
20
20
20
20
20
20
20
20
A8
70
20
ENDCHAR
STARTCHAR U+2194
ENCODING 8596
SWIDTH 481 0
DWIDTH 13 0
BBX 5 5 0 1
BITMAP
50
88
F8
88
50
ENDCHAR
STARTCHAR U+2195
ENCODING 8597
SWIDTH 481 0
DWIDTH 13 0
BBX 5 9 0 -1
BITMAP
20
70
A8
20
20
20
A8
70
20
ENDCHAR
STARTCHAR U+21A8
ENCODING 8616
SWIDTH 481 0
DWIDTH 13 0
BBX 5 9 0 -1
BITMAP
20
70
A8
20
A8
70
20
00
F8
ENDCHAR
STARTCHAR U+21D2
ENCODING 8658
SWIDTH 481 0
DWIDTH 13 0
BBX 11 7 0 0
BITMAP
0100
0080
FFC0
0020
FFC0
0080
0100
ENDCHAR
STARTCHAR U+21D3
ENCODING 8659
SWIDTH 481 0
DWIDTH 13 0
BBX 0 0 0 0
BITMAP
ENDCHAR
STARTCHAR U+21D4
ENCODING 8660
SWIDTH 481 0
DWIDTH 13 0
BBX 11 7 0 0
BITMAP
1100
2080
7FC0
8020
7FC0
2080
1100
ENDCHAR
STARTCHAR U+2200
ENCODING 8704
SWIDTH 481 0
DWIDTH 13 0
BBX 9 9 1 -1
BITMAP
8080
4100
4100
3E00
2200
1400
1400
0800
0800
ENDCHAR
STARTCHAR U+2202
ENCODING 8706
SWIDTH 481 0
DWIDTH 13 0
BBX 6 9 3 -1
BITMAP
38
44
04
34
48
88
88
90
60
ENDCHAR
STARTCHAR U+2203
ENCODING 8707
SWIDTH 481 0
DWIDTH 13 0
BBX 7 9 2 -1
BITMAP
FE
02
02
02
FE
02
02
02
FE
ENDCHAR
STARTCHAR U+2206
ENCODING 8710
SWIDTH 481 0
DWIDTH 13 0
BBX 5 8 0 -1
BITMAP
20
20
50
50
50
88
88
F8
ENDCHAR
STARTCHAR U+2207
ENCODING 8711
SWIDTH 481 0
DWIDTH 13 0
BBX 9 9 1 -1
BITMAP
FF80
4100
6100
2200
3200
1400
1C00
0800
0800
ENDCHAR
STARTCHAR U+2208
ENCODING 8712
SWIDTH 481 0
DWIDTH 13 0
BBX 8 9 1 -1
BITMAP
3F
40
80
80
FF
80
80
40
3F
ENDCHAR
STARTCHAR U+220B
ENCODING 8715
SWIDTH 481 0
DWIDTH 13 0
BBX 8 9 2 -1
BITMAP
FC
02
01
01
FF
01
01
02
FC
ENDCHAR
STARTCHAR U+220F
ENCODING 8719
SWIDTH 481 0
DWIDTH 13 0
BBX 5 9 0 -1
BITMAP
F8
88
88
88
88
88
88
88
88
ENDCHAR
STARTCHAR U+2211
ENCODING 8721
SWIDTH 481 0
DWIDTH 13 0
BBX 9 9 1 -1
BITMAP
FF80
4000
2000
1000
0800
1000
2000
4000
FF80
ENDCHAR
STARTCHAR U+2212
ENCODING 8722
SWIDTH 481 0
DWIDTH 13 0
BBX 5 1 0 3
BITMAP
F8
ENDCHAR
STARTCHAR U+2215
ENCODING 8725
SWIDTH 481 0
DWIDTH 13 0
BBX 5 11 0 -2
BITMAP
08
08
10
10
20
20
20
40
40
80
80
ENDCHAR
STARTCHAR U+2219
ENCODING 8729
SWIDTH 481 0
DWIDTH 13 0
BBX 2 2 5 3
BITMAP
C0
C0
ENDCHAR
STARTCHAR U+221A
ENCODING 8730
SWIDTH 481 0
DWIDTH 13 0
BBX 11 11 0 -2
BITMAP
0FE0
0800
0800
1000
1000
1000
5000
A000
2000
2000
2000
ENDCHAR
STARTCHAR U+221D
ENCODING 8733
SWIDTH 481 0
DWIDTH 13 0
BBX 11 5 0 1
BITMAP
71C0
8A20
8400
8A20
71C0
ENDCHAR
STARTCHAR U+221E
ENCODING 8734
SWIDTH 481 0
DWIDTH 13 0
BBX 11 5 0 1
BITMAP
71C0
8A20
8420
8A20
71C0
ENDCHAR
STARTCHAR U+221F
ENCODING 8735
SWIDTH 481 0
DWIDTH 13 0
BBX 8 8 2 0
BITMAP
80
80
80
80
80
80
80
FF
ENDCHAR
STARTCHAR U+2220
ENCODING 8736
SWIDTH 481 0
DWIDTH 13 0
BBX 8 8 1 0
BITMAP
01
02
04
08
10
20
40
FF
ENDCHAR
STARTCHAR U+2225
ENCODING 8741
SWIDTH 481 0
DWIDTH 13 0
BBX 6 10 2 -2
BITMAP
24
24
24
48
48
48
48
90
90
90
ENDCHAR
STARTCHAR U+2227
ENCODING 8743
SWIDTH 481 0
DWIDTH 13 0
BBX 9 9 1 -1
BITMAP
0800
0800
1400
1400
2200
2200
4100
4100
8080
ENDCHAR
STARTCHAR U+2228
ENCODING 8744
SWIDTH 481 0
DWIDTH 13 0
BBX 9 9 1 -1
BITMAP
8080
4100
4100
2200
2200
1400
1400
0800
0800
ENDCHAR
STARTCHAR U+2229
ENCODING 8745
SWIDTH 481 0
DWIDTH 13 0
BBX 8 9 1 -1
BITMAP
3C
42
81
81
81
81
81
81
81
ENDCHAR
STARTCHAR U+222A
ENCODING 8746
SWIDTH 481 0
DWIDTH 13 0
BBX 8 9 1 -1
BITMAP
81
81
81
81
81
81
81
42
3C
ENDCHAR
STARTCHAR U+222B
ENCODING 8747
SWIDTH 481 0
DWIDTH 13 0
BBX 3 11 4 -2
BITMAP
40
A0
80
80
40
40
40
20
20
A0
40
ENDCHAR
STARTCHAR U+222C
ENCODING 8748
SWIDTH 481 0
DWIDTH 13 0
BBX 8 11 1 -2
BITMAP
22
55
44
44
44
22
22
22
22
AA
44
ENDCHAR
STARTCHAR U+222E
ENCODING 8750
SWIDTH 481 0
DWIDTH 13 0
BBX 5 11 3 -2
BITMAP
20
50
40
70
A8
A8
A8
70
10
50
20
ENDCHAR
STARTCHAR U+2234
ENCODING 8756
SWIDTH 481 0
DWIDTH 13 0
BBX 7 7 2 0
BITMAP
10
10
00
00
00
82
82
ENDCHAR
STARTCHAR U+2235
ENCODING 8757
SWIDTH 481 0
DWIDTH 13 0
BBX 7 7 2 0
BITMAP
82
82
00
00
00
10
10
ENDCHAR
STARTCHAR U+223D
ENCODING 8765
SWIDTH 481 0
DWIDTH 13 0
BBX 11 5 0 1
BITMAP
71C0
8220
8420
8820
71C0
ENDCHAR
STARTCHAR U+2248
ENCODING 8776
SWIDTH 481 0
DWIDTH 13 0
BBX 5 5 0 1
BITMAP
68
90
00
68
90
ENDCHAR
STARTCHAR U+2252
ENCODING 8786
SWIDTH 481 0
DWIDTH 13 0
BBX 9 8 1 0
BITMAP
6000
0000
FF80
0000
0000
FF80
0000
0300
ENDCHAR
STARTCHAR U+2260
ENCODING 8800
SWIDTH 481 0
DWIDTH 13 0
BBX 8 8 1 0
BITMAP
02
04
FF
08
10
FF
20
40
ENDCHAR
STARTCHAR U+2261
ENCODING 8801
SWIDTH 481 0
DWIDTH 13 0
BBX 8 7 1 0
BITMAP
FF
00
00
FF
00
00
FF
ENDCHAR
STARTCHAR U+2264
ENCODING 8804
SWIDTH 481 0
DWIDTH 13 0
BBX 4 9 0 -1
BITMAP
10
20
40
80
40
20
10
00
F0
ENDCHAR
STARTCHAR U+2265
ENCODING 8805
SWIDTH 481 0
DWIDTH 13 0
BBX 4 9 1 -1
BITMAP
80
40
20
10
20
40
80
00
F0
ENDCHAR
STARTCHAR U+2266
ENCODING 8806
SWIDTH 481 0
DWIDTH 13 0
BBX 7 10 2 -1
BITMAP
06
38
C0
C0
38
06
00
FE
00
FE
ENDCHAR
STARTCHAR U+2267
ENCODING 8807
SWIDTH 481 0
DWIDTH 13 0
BBX 7 10 2 -1
BITMAP
C0
38
06
06
38
C0
00
FE
00
FE
ENDCHAR
STARTCHAR U+226A
ENCODING 8810
SWIDTH 481 0
DWIDTH 13 0
BBX 9 10 1 -1
BITMAP
0880
1100
2200
4400
8800
8800
4400
2200
1100
0880
ENDCHAR
STARTCHAR U+226B
ENCODING 8811
SWIDTH 481 0
DWIDTH 13 0
BBX 9 10 1 -1
BITMAP
8800
4400
2200
1100
0880
0880
1100
2200
4400
8800
ENDCHAR
STARTCHAR U+2282
ENCODING 8834
SWIDTH 481 0
DWIDTH 13 0
BBX 9 8 1 0
BITMAP
3F80
4000
8000
8000
8000
8000
4000
3F80
ENDCHAR
STARTCHAR U+2283
ENCODING 8835
SWIDTH 481 0
DWIDTH 13 0
BBX 9 8 1 0
BITMAP
FE00
0100
0080
0080
0080
0080
0100
FE00
ENDCHAR
STARTCHAR U+2286
ENCODING 8838
SWIDTH 481 0
DWIDTH 13 0
BBX 9 9 1 -1
BITMAP
3F80
4000
8000
8000
8000
4000
3F80
0000
FF80
ENDCHAR
STARTCHAR U+2287
ENCODING 8839
SWIDTH 481 0
DWIDTH 13 0
BBX 9 9 1 -1
BITMAP
FE00
0100
0080
0080
0080
0100
FE00
0000
FF80
ENDCHAR
STARTCHAR U+2295
ENCODING 8853
SWIDTH 481 0
DWIDTH 13 0
BBX 7 7 2 0
BITMAP
38
44
92
BA
92
44
38
ENDCHAR
STARTCHAR U+2299
ENCODING 8857
SWIDTH 481 0
DWIDTH 13 0
BBX 11 11 0 -2
BITMAP
1F00
2080
4040
8020
8E20
8E20
8E20
8020
4040
2080
1F00
ENDCHAR
STARTCHAR U+22A5
ENCODING 8869
SWIDTH 481 0
DWIDTH 13 0
BBX 7 7 2 0
BITMAP
10
10
10
10
10
10
FE
ENDCHAR
STARTCHAR U+22BF
ENCODING 8895
SWIDTH 481 0
DWIDTH 13 0
BBX 9 9 1 -1
BITMAP
0080
0180
0280
0480
0880
1080
2080
4080
FF80
ENDCHAR
STARTCHAR U+22EF
ENCODING 8943
SWIDTH 481 0
DWIDTH 13 0
BBX 10 2 0 3
BITMAP
CCC0
CCC0
ENDCHAR
STARTCHAR U+2312
ENCODING 8978
SWIDTH 481 0
DWIDTH 13 0
BBX 11 3 0 7
BITMAP
1F00
60C0
8020
ENDCHAR
STARTCHAR U+2460
ENCODING 9312
SWIDTH 481 0
DWIDTH 13 0
BBX 11 11 0 -2
BITMAP
0E00
3180
4440
4C40
8420
8420
8420
4440
4440
3180
0E00
ENDCHAR
STARTCHAR U+2461
ENCODING 9313
SWIDTH 481 0
DWIDTH 13 0
BBX 11 11 0 -2
BITMAP
0E00
3180
4E40
5140
8120
8220
8420
4840
5F40
3180
0E00
ENDCHAR
STARTCHAR U+2462
ENCODING 9314
SWIDTH 481 0
DWIDTH 13 0
BBX 11 11 0 -2
BITMAP
0E00
3180
4E40
5140
8120
8620
8120
5140
4E40
3180
0E00
ENDCHAR
STARTCHAR U+2463
ENCODING 9315
SWIDTH 481 0
DWIDTH 13 0
BBX 11 11 0 -2
BITMAP
0E00
3180
4240
4640
8A20
8A20
9220
5F40
4240
3180
0E00
ENDCHAR
STARTCHAR U+2464
ENCODING 9316
SWIDTH 481 0
DWIDTH 13 0
BBX 11 11 0 -2
BITMAP
0E00
3180
5F40
5040
9020
9E20
8120
5140
4E40
3180
0E00
ENDCHAR
STARTCHAR U+2465
ENCODING 9317
SWIDTH 481 0
DWIDTH 13 0
BBX 11 11 0 -2
BITMAP
0E00
3180
4E40
5140
9020
9E20
9120
5140
4E40
3180
0E00
ENDCHAR
STARTCHAR U+2466
ENCODING 9318
SWIDTH 481 0
DWIDTH 13 0
BBX 11 11 0 -2
BITMAP
0E00
3180
5F40
4140
8220
8420
8420
4840
4840
3180
0E00
ENDCHAR
STARTCHAR U+2467
ENCODING 9319
SWIDTH 481 0
DWIDTH 13 0
BBX 11 11 0 -2
BITMAP
0E00
3180
4E40
5140
9120
8E20
9120
5140
4E40
3180
0E00
ENDCHAR
STARTCHAR U+2468
ENCODING 9320
SWIDTH 481 0
DWIDTH 13 0
BBX 11 11 0 -2
BITMAP
0E00
3180
4E40
5140
9120
8F20
8120
5140
4E40
3180
0E00
ENDCHAR
STARTCHAR U+2469
ENCODING 9321
SWIDTH 481 0
DWIDTH 13 0
BBX 11 11 0 -2
BITMAP
0E00
3180
5340
74C0
94A0
94A0
94A0
54C0
5340
3180
0E00
ENDCHAR
STARTCHAR U+246A
ENCODING 9322
SWIDTH 481 0
DWIDTH 13 0
BBX 11 11 0 -2
BITMAP
0E00
3180
5140
7340
9120
9120
9120
5140
5140
3180
0E00
ENDCHAR
STARTCHAR U+246B
ENCODING 9323
SWIDTH 481 0
DWIDTH 13 0
BBX 11 11 0 -2
BITMAP
0E00
3180
5340
74C0
90A0
9120
9220
5440
57C0
3180
0E00
ENDCHAR
STARTCHAR U+246C
ENCODING 9324
SWIDTH 481 0
DWIDTH 13 0
BBX 11 11 0 -2
BITMAP
0E00
3180
5340
74C0
90A0
9320
90A0
54C0
5340
3180
0E00
ENDCHAR
STARTCHAR U+246D
ENCODING 9325
SWIDTH 481 0
DWIDTH 13 0
BBX 11 11 0 -2
BITMAP
0E00
3180
5140
7340
9320
9520
9520
57C0
5140
3180
0E00
ENDCHAR
STARTCHAR U+246E
ENCODING 9326
SWIDTH 481 0
DWIDTH 13 0
BBX 11 11 0 -2
BITMAP
0E00
3180
5740
7440
9420
9720
90A0
54C0
5340
3180
0E00
ENDCHAR
STARTCHAR U+246F
ENCODING 9327
SWIDTH 481 0
DWIDTH 13 0
BBX 11 11 0 -2
BITMAP
0E00
3180
5340
74C0
9420
9720
94A0
54C0
5340
3180
0E00
ENDCHAR
STARTCHAR U+2470
ENCODING 9328
SWIDTH 481 0
DWIDTH 13 0
BBX 11 11 0 -2
BITMAP
0E00
3180
57C0
70C0
9120
9120
9220
5240
5240
3180
0E00
ENDCHAR
STARTCHAR U+2471
ENCODING 9329
SWIDTH 481 0
DWIDTH 13 0
BBX 11 11 0 -2
BITMAP
0E00
3180
5340
74C0
94A0
9320
94A0
54C0
5340
3180
0E00
ENDCHAR
STARTCHAR U+2472
ENCODING 9330
SWIDTH 481 0
DWIDTH 13 0
BBX 11 11 0 -2
BITMAP
0E00
3180
5340
74C0
94A0
93A0
90A0
54C0
5340
3180
0E00
ENDCHAR
STARTCHAR U+2473
ENCODING 9331
SWIDTH 481 0
DWIDTH 13 0
BBX 11 11 0 -2
BITMAP
0E00
3180
5140
6AC0
8AA0
92A0
92A0
62C0
7940
3180
0E00
ENDCHAR
STARTCHAR U+2474
ENCODING 9332
SWIDTH 481 0
DWIDTH 13 0
BBX 11 11 0 -2
BITMAP
2080
4440
8C20
8420
8420
8420
8420
8420
8E20
4040
2080
ENDCHAR
STARTCHAR U+2475
ENCODING 9333
SWIDTH 481 0
DWIDTH 13 0
BBX 11 11 0 -2
BITMAP
2080
4E40
9120
9120
8120
8220
8420
8920
9F20
4040
2080
ENDCHAR
STARTCHAR U+2476
ENCODING 9334
SWIDTH 481 0
DWIDTH 13 0
BBX 11 11 0 -2
BITMAP
2080
4E40
9120
8120
8620
8120
8120
9120
8E20
4040
2080
ENDCHAR
STARTCHAR U+2477
ENCODING 9335
SWIDTH 481 0
DWIDTH 13 0
BBX 11 11 0 -2
BITMAP
2080
4240
8220
8620
8620
8A20
9F20
8220
8720
4040
2080
ENDCHAR
STARTCHAR U+2478
ENCODING 9336
SWIDTH 481 0
DWIDTH 13 0
BBX 11 11 0 -2
BITMAP
2080
5F40
9020
9020
9E20
8120
8120
9120
8E20
4040
2080
ENDCHAR
STARTCHAR U+2479
ENCODING 9337
SWIDTH 481 0
DWIDTH 13 0
BBX 11 11 0 -2
BITMAP
2080
4E40
9120
9020
9E20
9120
9120
9120
8E20
4040
2080
ENDCHAR
STARTCHAR U+247A
ENCODING 9338
SWIDTH 481 0
DWIDTH 13 0
BBX 11 11 0 -2
BITMAP
2080
5F40
9120
8220
8220
8420
8420
8420
8420
4040
2080
ENDCHAR
STARTCHAR U+247B
ENCODING 9339
SWIDTH 481 0
DWIDTH 13 0
BBX 11 11 0 -2
BITMAP
2080
4E40
9120
9120
8E20
9120
9120
9120
8E20
4040
2080
ENDCHAR
STARTCHAR U+247C
ENCODING 9340
SWIDTH 481 0
DWIDTH 13 0
BBX 11 11 0 -2
BITMAP
2080
4E40
9120
9120
9320
8D20
8120
9120
8E20
4040
2080
ENDCHAR
STARTCHAR U+247D
ENCODING 9341
SWIDTH 481 0
DWIDTH 13 0
BBX 11 11 0 -2
BITMAP
2080
5740
B520
9520
9520
9520
9520
9520
BF20
4040
2080
ENDCHAR
STARTCHAR U+247E
ENCODING 9342
SWIDTH 481 0
DWIDTH 13 0
BBX 11 11 0 -2
BITMAP
2080
5140
B320
9120
9120
9120
9120
9120
BBA0
4040
2080
ENDCHAR
STARTCHAR U+247F
ENCODING 9343
SWIDTH 481 0
DWIDTH 13 0
BBX 11 11 0 -2
BITMAP
2080
5340
B4A0
94A0
90A0
9120
9220
94A0
BFA0
4040
2080
ENDCHAR
STARTCHAR U+2480
ENCODING 9344
SWIDTH 481 0
DWIDTH 13 0
BBX 11 11 0 -2
BITMAP
2080
5340
B4A0
90A0
9120
90A0
90A0
94A0
BB20
4040
2080
ENDCHAR
STARTCHAR U+2481
ENCODING 9345
SWIDTH 481 0
DWIDTH 13 0
BBX 11 11 0 -2
BITMAP
2080
5140
B120
9320
9320
9520
97A0
9120
BBA0
4040
2080
ENDCHAR
STARTCHAR U+2482
ENCODING 9346
SWIDTH 481 0
DWIDTH 13 0
BBX 11 11 0 -2
BITMAP
2080
57C0
B420
9420
9720
94A0
90A0
94A0
BB20
4040
2080
ENDCHAR
STARTCHAR U+2483
ENCODING 9347
SWIDTH 481 0
DWIDTH 13 0
BBX 11 11 0 -2
BITMAP
2080
5340
B4A0
9420
9720
94A0
94A0
94A0
BB20
4040
2080
ENDCHAR
STARTCHAR U+2484
ENCODING 9348
SWIDTH 481 0
DWIDTH 13 0
BBX 11 11 0 -2
BITMAP
2080
5740
B520
9120
9120
9220
9220
9220
BA20
4040
2080
ENDCHAR
STARTCHAR U+2485
ENCODING 9349
SWIDTH 481 0
DWIDTH 13 0
BBX 11 11 0 -2
BITMAP
2080
5340
B4A0
94A0
9320
94A0
94A0
94A0
BB20
4040
2080
ENDCHAR
STARTCHAR U+2486
ENCODING 9350
SWIDTH 481 0
DWIDTH 13 0
BBX 11 11 0 -2
BITMAP
2080
5340
B4A0
94A0
94A0
93A0
90A0
94A0
BB20
4040
2080
ENDCHAR
STARTCHAR U+2487
ENCODING 9351
SWIDTH 481 0
DWIDTH 13 0
BBX 11 11 0 -2
BITMAP
2080
7BC0
AAA0
8AA0
8AA0
92A0
92A0
A2A0
BBA0
4040
2080
ENDCHAR
STARTCHAR U+2488
ENCODING 9352
SWIDTH 481 0
DWIDTH 13 0
BBX 16 14 -7 -6
BITMAP
0008
0018
0028
0008
0008
0008
0008
0008
0009
0000
0000
0000
0000
8000
ENDCHAR
STARTCHAR U+2489
ENCODING 9353
SWIDTH 481 0
DWIDTH 13 0
BBX 7 9 2 -1
BITMAP
70
88
08
08
10
20
40
80
FA
ENDCHAR
STARTCHAR U+248A
ENCODING 9354
SWIDTH 481 0
DWIDTH 13 0
BBX 7 9 2 -1
BITMAP
F8
08
10
20
10
08
08
88
72
ENDCHAR
STARTCHAR U+248B
ENCODING 9355
SWIDTH 481 0
DWIDTH 13 0
BBX 8 9 2 -1
BITMAP
20
20
40
48
88
88
FC
08
09
ENDCHAR
STARTCHAR U+248C
ENCODING 9356
SWIDTH 481 0
DWIDTH 13 0
BBX 7 9 2 -1
BITMAP
F8
80
80
F0
08
08
08
88
72
ENDCHAR
STARTCHAR U+248D
ENCODING 9357
SWIDTH 481 0
DWIDTH 13 0
BBX 7 9 2 -1
BITMAP
20
40
80
B0
C8
88
88
88
72
ENDCHAR
STARTCHAR U+248E
ENCODING 9358
SWIDTH 481 0
DWIDTH 13 0
BBX 7 9 2 -1
BITMAP
F8
08
08
10
10
20
20
20
22
ENDCHAR
STARTCHAR U+248F
ENCODING 9359
SWIDTH 481 0
DWIDTH 13 0
BBX 7 9 2 -1
BITMAP
70
88
88
88
70
88
88
88
72
ENDCHAR
STARTCHAR U+2490
ENCODING 9360
SWIDTH 481 0
DWIDTH 13 0
BBX 7 9 2 -1
BITMAP
70
88
88
88
98
68
08
10
22
ENDCHAR
STARTCHAR U+2491
ENCODING 9361
SWIDTH 481 0
DWIDTH 13 0
BBX 11 9 0 -1
BITMAP
2300
6480
A480
2480
2480
2480
2480
2480
2320
ENDCHAR
STARTCHAR U+2492
ENCODING 9362
SWIDTH 481 0
DWIDTH 13 0
BBX 10 9 0 -1
BITMAP
2200
6600
AA00
2200
2200
2200
2200
2240
2200
ENDCHAR
STARTCHAR U+2493
ENCODING 9363
SWIDTH 481 0
DWIDTH 13 0
BBX 11 9 0 -1
BITMAP
2300
6480
A080
2080
2100
2200
2200
2400
27A0
ENDCHAR
STARTCHAR U+2494
ENCODING 9364
SWIDTH 481 0
DWIDTH 13 0
BBX 11 9 0 -1
BITMAP
2780
6080
A100
2200
2100
2080
2080
2480
2320
ENDCHAR
STARTCHAR U+2495
ENCODING 9365
SWIDTH 481 0
DWIDTH 13 0
BBX 11 9 0 -1
BITMAP
2200
6200
A400
2500
2900
2900
2F80
2100
2120
ENDCHAR
STARTCHAR U+2496
ENCODING 9366
SWIDTH 481 0
DWIDTH 13 0
BBX 11 9 0 -1
BITMAP
2780
6400
A400
2700
2080
2080
2080
2480
2320
ENDCHAR
STARTCHAR U+2497
ENCODING 9367
SWIDTH 481 0
DWIDTH 13 0
BBX 11 9 0 -1
BITMAP
2200
6400
A800
2B00
2C80
2880
2880
2880
2720
ENDCHAR
STARTCHAR U+2498
ENCODING 9368
SWIDTH 481 0
DWIDTH 13 0
BBX 11 9 0 -1
BITMAP
27C0
6040
A040
2080
2080
2100
2100
2100
2120
ENDCHAR
STARTCHAR U+2499
ENCODING 9369
SWIDTH 481 0
DWIDTH 13 0
BBX 11 9 0 -1
BITMAP
2700
6880
A880
2880
2700
2880
2880
2880
2720
ENDCHAR
STARTCHAR U+249A
ENCODING 9370
SWIDTH 481 0
DWIDTH 13 0
BBX 11 9 0 -1
BITMAP
2700
6880
A880
2880
2980
2680
2080
2100
2220
ENDCHAR
STARTCHAR U+249B
ENCODING 9371
SWIDTH 481 0
DWIDTH 13 0
BBX 11 9 0 -1
BITMAP
6300
9480
1480
1480
2480
2480
4480
8480
F320
ENDCHAR
STARTCHAR U+2500
ENCODING 9472
SWIDTH 481 0
DWIDTH 13 0
BBX 12 1 0 3
BITMAP
FFF0
ENDCHAR
STARTCHAR U+2501
ENCODING 9473
SWIDTH 481 0
DWIDTH 13 0
BBX 12 2 0 3
BITMAP
FFF0
FFF0
ENDCHAR
STARTCHAR U+2502
ENCODING 9474
SWIDTH 481 0
DWIDTH 13 0
BBX 1 12 5 -3
BITMAP
80
80
80
80
80
80
80
80
80
80
80
80
ENDCHAR
STARTCHAR U+2503
ENCODING 9475
SWIDTH 481 0
DWIDTH 13 0
BBX 2 12 4 -3
BITMAP
C0
C0
C0
C0
C0
C0
C0
C0
C0
C0
C0
C0
ENDCHAR
STARTCHAR U+2504
ENCODING 9476
SWIDTH 481 0
DWIDTH 13 0
BBX 12 1 0 3
BITMAP
EEF0
ENDCHAR
STARTCHAR U+2505
ENCODING 9477
SWIDTH 481 0
DWIDTH 13 0
BBX 12 2 0 2
BITMAP
EEF0
EEF0
ENDCHAR
STARTCHAR U+2506
ENCODING 9478
SWIDTH 481 0
DWIDTH 13 0
BBX 1 12 5 -3
BITMAP
80
80
80
00
80
80
80
00
80
80
80
80
ENDCHAR
STARTCHAR U+2507
ENCODING 9479
SWIDTH 481 0
DWIDTH 13 0
BBX 2 12 5 -3
BITMAP
C0
C0
C0
00
C0
C0
C0
00
C0
C0
C0
C0
ENDCHAR
STARTCHAR U+2508
ENCODING 9480
SWIDTH 481 0
DWIDTH 13 0
BBX 12 1 0 3
BITMAP
DB70
ENDCHAR
STARTCHAR U+2509
ENCODING 9481
SWIDTH 481 0
DWIDTH 13 0
BBX 12 2 0 2
BITMAP
DB70
DB70
ENDCHAR
STARTCHAR U+250A
ENCODING 9482
SWIDTH 481 0
DWIDTH 13 0
BBX 1 12 5 -3
BITMAP
80
80
00
80
80
00
80
80
00
80
80
80
ENDCHAR
STARTCHAR U+250B
ENCODING 9483
SWIDTH 481 0
DWIDTH 13 0
BBX 2 12 5 -3
BITMAP
C0
C0
00
C0
C0
00
C0
C0
00
C0
C0
C0
ENDCHAR
STARTCHAR U+250C
ENCODING 9484
SWIDTH 481 0
DWIDTH 13 0
BBX 7 7 5 -3
BITMAP
FE
80
80
80
80
80
80
ENDCHAR
STARTCHAR U+250D
ENCODING 9485
SWIDTH 481 0
DWIDTH 13 0
BBX 7 7 5 -3
BITMAP
FE
FE
80
80
80
80
80
ENDCHAR
STARTCHAR U+250E
ENCODING 9486
SWIDTH 481 0
DWIDTH 13 0
BBX 7 7 5 -3
BITMAP
FE
C0
C0
C0
C0
C0
C0
ENDCHAR
STARTCHAR U+250F
ENCODING 9487
SWIDTH 481 0
DWIDTH 13 0
BBX 8 8 4 -3
BITMAP
FF
FF
C0
C0
C0
C0
C0
C0
ENDCHAR
STARTCHAR U+2510
ENCODING 9488
SWIDTH 481 0
DWIDTH 13 0
BBX 6 7 0 -3
BITMAP
FC
04
04
04
04
04
04
ENDCHAR
STARTCHAR U+2511
ENCODING 9489
SWIDTH 481 0
DWIDTH 13 0
BBX 6 7 0 -3
BITMAP
FC
FC
04
04
04
04
04
ENDCHAR
STARTCHAR U+2512
ENCODING 9490
SWIDTH 481 0
DWIDTH 13 0
BBX 7 7 0 -3
BITMAP
FE
06
06
06
06
06
06
ENDCHAR
STARTCHAR U+2513
ENCODING 9491
SWIDTH 481 0
DWIDTH 13 0
BBX 6 8 0 -3
BITMAP
FC
FC
0C
0C
0C
0C
0C
0C
ENDCHAR
STARTCHAR U+2514
ENCODING 9492
SWIDTH 481 0
DWIDTH 13 0
BBX 7 6 5 3
BITMAP
80
80
80
80
80
FE
ENDCHAR
STARTCHAR U+2515
ENCODING 9493
SWIDTH 481 0
DWIDTH 13 0
BBX 7 7 5 2
BITMAP
80
80
80
80
80
FE
FE
ENDCHAR
STARTCHAR U+2516
ENCODING 9494
SWIDTH 481 0
DWIDTH 13 0
BBX 7 6 5 3
BITMAP
C0
C0
C0
C0
C0
FE
ENDCHAR
STARTCHAR U+2517
ENCODING 9495
SWIDTH 481 0
DWIDTH 13 0
BBX 8 6 4 3
BITMAP
C0
C0
C0
C0
FF
FF
ENDCHAR
STARTCHAR U+2518
ENCODING 9496
SWIDTH 481 0
DWIDTH 13 0
BBX 6 6 0 3
BITMAP
04
04
04
04
04
FC
ENDCHAR
STARTCHAR U+2519
ENCODING 9497
SWIDTH 481 0
DWIDTH 13 0
BBX 6 7 0 2
BITMAP
04
04
04
04
04
FC
FC
ENDCHAR
STARTCHAR U+251A
ENCODING 9498
SWIDTH 481 0
DWIDTH 13 0
BBX 7 6 0 3
BITMAP
06
06
06
06
06
FE
ENDCHAR
STARTCHAR U+251B
ENCODING 9499
SWIDTH 481 0
DWIDTH 13 0
BBX 6 6 0 3
BITMAP
0C
0C
0C
0C
FC
FC
ENDCHAR
STARTCHAR U+251C
ENCODING 9500
SWIDTH 481 0
DWIDTH 13 0
BBX 7 12 5 -3
BITMAP
80
80
80
80
80
FE
80
80
80
80
80
80
ENDCHAR
STARTCHAR U+251D
ENCODING 9501
SWIDTH 481 0
DWIDTH 13 0
BBX 7 12 5 -3
BITMAP
80
80
80
80
FE
FE
80
80
80
80
80
80
ENDCHAR
STARTCHAR U+251E
ENCODING 9502
SWIDTH 481 0
DWIDTH 13 0
BBX 7 12 5 -3
BITMAP
C0
C0
C0
C0
C0
FE
80
80
80
80
80
80
ENDCHAR
STARTCHAR U+251F
ENCODING 9503
SWIDTH 481 0
DWIDTH 13 0
BBX 7 12 5 -3
BITMAP
80
80
80
80
80
FE
C0
C0
C0
C0
C0
C0
ENDCHAR
STARTCHAR U+2520
ENCODING 9504
SWIDTH 481 0
DWIDTH 13 0
BBX 8 12 4 -3
BITMAP
C0
C0
C0
C0
C0
FF
C0
C0
C0
C0
C0
C0
ENDCHAR
STARTCHAR U+2521
ENCODING 9505
SWIDTH 481 0
DWIDTH 13 0
BBX 7 12 5 -3
BITMAP
C0
C0
C0
C0
C0
FE
FE
80
80
80
80
80
ENDCHAR
STARTCHAR U+2522
ENCODING 9506
SWIDTH 481 0
DWIDTH 13 0
BBX 7 12 5 -3
BITMAP
80
80
80
80
80
FE
FE
C0
C0
C0
C0
C0
ENDCHAR
STARTCHAR U+2523
ENCODING 9507
SWIDTH 481 0
DWIDTH 13 0
BBX 8 12 4 -3
BITMAP
C0
C0
C0
C0
FF
FF
C0
C0
C0
C0
C0
C0
ENDCHAR
STARTCHAR U+2524
ENCODING 9508
SWIDTH 481 0
DWIDTH 13 0
BBX 6 12 0 -3
BITMAP
04
04
04
04
04
FC
04
04
04
04
04
04
ENDCHAR
STARTCHAR U+2525
ENCODING 9509
SWIDTH 481 0
DWIDTH 13 0
BBX 6 12 0 -3
BITMAP
04
04
04
04
FC
FC
04
04
04
04
04
04
ENDCHAR
STARTCHAR U+2526
ENCODING 9510
SWIDTH 481 0
DWIDTH 13 0
BBX 7 12 0 -3
BITMAP
06
06
06
06
06
FE
04
04
04
04
04
04
ENDCHAR
STARTCHAR U+2527
ENCODING 9511
SWIDTH 481 0
DWIDTH 13 0
BBX 7 12 0 -3
BITMAP
04
04
04
04
04
FE
06
06
06
06
06
06
ENDCHAR
STARTCHAR U+2528
ENCODING 9512
SWIDTH 481 0
DWIDTH 13 0
BBX 6 12 0 -3
BITMAP
0C
0C
0C
0C
0C
FC
0C
0C
0C
0C
0C
0C
ENDCHAR
STARTCHAR U+2529
ENCODING 9513
SWIDTH 481 0
DWIDTH 13 0
BBX 7 12 0 -3
BITMAP
06
06
06
06
06
FE
FE
04
04
04
04
04
ENDCHAR
STARTCHAR U+252A
ENCODING 9514
SWIDTH 481 0
DWIDTH 13 0
BBX 7 12 0 -3
BITMAP
04
04
04
04
04
FE
FE
06
06
06
06
06
ENDCHAR
STARTCHAR U+252B
ENCODING 9515
SWIDTH 481 0
DWIDTH 13 0
BBX 6 12 0 -3
BITMAP
0C
0C
0C
0C
FC
FC
0C
0C
0C
0C
0C
0C
ENDCHAR
STARTCHAR U+252C
ENCODING 9516
SWIDTH 481 0
DWIDTH 13 0
BBX 12 7 0 -3
BITMAP
FFF0
0400
0400
0400
0400
0400
0400
ENDCHAR
STARTCHAR U+252D
ENCODING 9517
SWIDTH 481 0
DWIDTH 13 0
BBX 12 7 0 -3
BITMAP
FFF0
FC00
0400
0400
0400
0400
0400
ENDCHAR
STARTCHAR U+252E
ENCODING 9518
SWIDTH 481 0
DWIDTH 13 0
BBX 12 7 0 -3
BITMAP
FFF0
07F0
0400
0400
0400
0400
0400
ENDCHAR
STARTCHAR U+252F
ENCODING 9519
SWIDTH 481 0
DWIDTH 13 0
BBX 12 8 0 -3
BITMAP
FFF0
FFF0
0400
0400
0400
0400
0400
0400
ENDCHAR
STARTCHAR U+2530
ENCODING 9520
SWIDTH 481 0
DWIDTH 13 0
BBX 12 7 0 -3
BITMAP
FFF0
0C00
0C00
0C00
0C00
0C00
0C00
ENDCHAR
STARTCHAR U+2531
ENCODING 9521
SWIDTH 481 0
DWIDTH 13 0
BBX 12 7 0 -3
BITMAP
FFF0
FE00
0600
0600
0600
0600
0600
ENDCHAR
STARTCHAR U+2532
ENCODING 9522
SWIDTH 481 0
DWIDTH 13 0
BBX 12 7 0 -3
BITMAP
FFF0
07F0
0600
0600
0600
0600
0600
ENDCHAR
STARTCHAR U+2533
ENCODING 9523
SWIDTH 481 0
DWIDTH 13 0
BBX 12 8 0 -3
BITMAP
FFF0
FFF0
0C00
0C00
0C00
0C00
0C00
0C00
ENDCHAR
STARTCHAR U+2534
ENCODING 9524
SWIDTH 481 0
DWIDTH 13 0
BBX 12 6 0 3
BITMAP
0400
0400
0400
0400
0400
FFF0
ENDCHAR
STARTCHAR U+2535
ENCODING 9525
SWIDTH 481 0
DWIDTH 13 0
BBX 12 7 0 2
BITMAP
0400
0400
0400
0400
0400
FFF0
FC00
ENDCHAR
STARTCHAR U+2536
ENCODING 9526
SWIDTH 481 0
DWIDTH 13 0
BBX 12 7 0 2
BITMAP
0400
0400
0400
0400
0400
FFF0
07F0
ENDCHAR
STARTCHAR U+2537
ENCODING 9527
SWIDTH 481 0
DWIDTH 13 0
BBX 12 6 0 3
BITMAP
0400
0400
0400
0400
FFF0
FFF0
ENDCHAR
STARTCHAR U+2538
ENCODING 9528
SWIDTH 481 0
DWIDTH 13 0
BBX 12 6 0 3
BITMAP
0C00
0C00
0C00
0C00
0C00
FFF0
ENDCHAR
STARTCHAR U+2539
ENCODING 9529
SWIDTH 481 0
DWIDTH 13 0
BBX 12 7 0 2
BITMAP
0600
0600
0600
0600
0600
FFF0
FE00
ENDCHAR
STARTCHAR U+253A
ENCODING 9530
SWIDTH 481 0
DWIDTH 13 0
BBX 12 7 0 2
BITMAP
0600
0600
0600
0600
0600
FFF0
07F0
ENDCHAR
STARTCHAR U+253B
ENCODING 9531
SWIDTH 481 0
DWIDTH 13 0
BBX 12 6 0 3
BITMAP
0C00
0C00
0C00
0C00
FFF0
FFF0
ENDCHAR
STARTCHAR U+253C
ENCODING 9532
SWIDTH 481 0
DWIDTH 13 0
BBX 12 12 0 -3
BITMAP
0400
0400
0400
0400
0400
FFF0
0400
0400
0400
0400
0400
0400
ENDCHAR
STARTCHAR U+253D
ENCODING 9533
SWIDTH 481 0
DWIDTH 13 0
BBX 12 12 0 -3
BITMAP
0400
0400
0400
0400
0400
FFF0
FC00
0400
0400
0400
0400
0400
ENDCHAR
STARTCHAR U+253E
ENCODING 9534
SWIDTH 481 0
DWIDTH 13 0
BBX 12 12 0 -3
BITMAP
0400
0400
0400
0400
0400
FFF0
07F0
0400
0400
0400
0400
0400
ENDCHAR
STARTCHAR U+253F
ENCODING 9535
SWIDTH 481 0
DWIDTH 13 0
BBX 12 12 0 -3
BITMAP
0400
0400
0400
0400
FFF0
FFF0
0400
0400
0400
0400
0400
0400
ENDCHAR
STARTCHAR U+2540
ENCODING 9536
SWIDTH 481 0
DWIDTH 13 0
BBX 12 12 0 -3
BITMAP
0600
0600
0600
0600
0600
FFF0
0400
0400
0400
0400
0400
0400
ENDCHAR
STARTCHAR U+2541
ENCODING 9537
SWIDTH 481 0
DWIDTH 13 0
BBX 12 12 0 -3
BITMAP
0400
0400
0400
0400
0400
FFF0
0600
0600
0600
0600
0600
0600
ENDCHAR
STARTCHAR U+2542
ENCODING 9538
SWIDTH 481 0
DWIDTH 13 0
BBX 12 12 0 -3
BITMAP
0C00
0C00
0C00
0C00
0C00
FFF0
0C00
0C00
0C00
0C00
0C00
0C00
ENDCHAR
STARTCHAR U+2543
ENCODING 9539
SWIDTH 481 0
DWIDTH 13 0
BBX 12 12 0 -3
BITMAP
0600
0600
0600
0600
0600
FFF0
FE00
0400
0400
0400
0400
0400
ENDCHAR
STARTCHAR U+2544
ENCODING 9540
SWIDTH 481 0
DWIDTH 13 0
BBX 12 12 0 -3
BITMAP
0600
0600
0600
0600
0600
FFF0
07F0
0400
0400
0400
0400
0400
ENDCHAR
STARTCHAR U+2545
ENCODING 9541
SWIDTH 481 0
DWIDTH 13 0
BBX 12 12 0 -3
BITMAP
0400
0400
0400
0400
0400
FFF0
FE00
0600
0600
0600
0600
0600
ENDCHAR
STARTCHAR U+2546
ENCODING 9542
SWIDTH 481 0
DWIDTH 13 0
BBX 12 12 0 -3
BITMAP
0400
0400
0400
0400
0400
FFF0
07F0
0600
0600
0600
0600
0600
ENDCHAR
STARTCHAR U+2547
ENCODING 9543
SWIDTH 481 0
DWIDTH 13 0
BBX 12 12 0 -3
BITMAP
0600
0600
0600
0600
0600
FFF0
FFF0
0400
0400
0400
0400
0400
ENDCHAR
STARTCHAR U+2548
ENCODING 9544
SWIDTH 481 0
DWIDTH 13 0
BBX 12 12 0 -3
BITMAP
0400
0400
0400
0400
0400
FFF0
FFF0
0600
0600
0600
0600
0600
ENDCHAR
STARTCHAR U+2549
ENCODING 9545
SWIDTH 481 0
DWIDTH 13 0
BBX 12 12 0 -3
BITMAP
0600
0600
0600
0600
0600
FFF0
FE00
0600
0600
0600
0600
0600
ENDCHAR
STARTCHAR U+254A
ENCODING 9546
SWIDTH 481 0
DWIDTH 13 0
BBX 12 12 0 -3
BITMAP
0600
0600
0600
0600
0600
FFF0
07F0
0600
0600
0600
0600
0600
ENDCHAR
STARTCHAR U+254B
ENCODING 9547
SWIDTH 481 0
DWIDTH 13 0
BBX 12 12 0 -3
BITMAP
0C00
0C00
0C00
0C00
FFF0
FFF0
0C00
0C00
0C00
0C00
0C00
0C00
ENDCHAR
STARTCHAR U+2550
ENCODING 9552
SWIDTH 481 0
DWIDTH 13 0
BBX 12 3 0 2
BITMAP
FFF0
0000
FFF0
ENDCHAR
STARTCHAR U+2551
ENCODING 9553
SWIDTH 481 0
DWIDTH 13 0
BBX 3 12 4 -3
BITMAP
A0
A0
A0
A0
A0
A0
A0
A0
A0
A0
A0
A0
ENDCHAR
STARTCHAR U+2552
ENCODING 9554
SWIDTH 481 0
DWIDTH 13 0
BBX 7 8 5 -3
BITMAP
FE
80
FE
80
80
80
80
80
ENDCHAR
STARTCHAR U+2553
ENCODING 9555
SWIDTH 481 0
DWIDTH 13 0
BBX 8 7 4 -3
BITMAP
FF
A0
A0
A0
A0
A0
A0
ENDCHAR
STARTCHAR U+2554
ENCODING 9556
SWIDTH 481 0
DWIDTH 13 0
BBX 8 8 4 -3
BITMAP
FF
80
BF
A0
A0
A0
A0
A0
ENDCHAR
STARTCHAR U+2555
ENCODING 9557
SWIDTH 481 0
DWIDTH 13 0
BBX 6 8 0 -3
BITMAP
FC
04
FC
04
04
04
04
04
ENDCHAR
STARTCHAR U+2556
ENCODING 9558
SWIDTH 481 0
DWIDTH 13 0
BBX 7 7 0 -3
BITMAP
FE
0A
0A
0A
0A
0A
0A
ENDCHAR
STARTCHAR U+2557
ENCODING 9559
SWIDTH 481 0
DWIDTH 13 0
BBX 7 8 0 -3
BITMAP
FE
02
FA
0A
0A
0A
0A
0A
ENDCHAR
STARTCHAR U+2558
ENCODING 9560
SWIDTH 481 0
DWIDTH 13 0
BBX 7 7 5 2
BITMAP
80
80
80
80
FE
80
FE
ENDCHAR
STARTCHAR U+2559
ENCODING 9561
SWIDTH 481 0
DWIDTH 13 0
BBX 8 6 4 3
BITMAP
A0
A0
A0
A0
A0
FF
ENDCHAR
STARTCHAR U+255A
ENCODING 9562
SWIDTH 481 0
DWIDTH 13 0
BBX 8 7 4 2
BITMAP
A0
A0
A0
A0
BF
80
FF
ENDCHAR
STARTCHAR U+255B
ENCODING 9563
SWIDTH 481 0
DWIDTH 13 0
BBX 6 7 0 2
BITMAP
04
04
04
04
FC
04
FC
ENDCHAR
STARTCHAR U+255C
ENCODING 9564
SWIDTH 481 0
DWIDTH 13 0
BBX 7 6 0 3
BITMAP
0A
0A
0A
0A
0A
FE
ENDCHAR
STARTCHAR U+255D
ENCODING 9565
SWIDTH 481 0
DWIDTH 13 0
BBX 7 7 0 2
BITMAP
0A
0A
0A
0A
FA
02
FE
ENDCHAR
STARTCHAR U+255E
ENCODING 9566
SWIDTH 481 0
DWIDTH 13 0
BBX 7 12 5 -3
BITMAP
80
80
80
80
FE
80
FE
80
80
80
80
80
ENDCHAR
STARTCHAR U+255F
ENCODING 9567
SWIDTH 481 0
DWIDTH 13 0
BBX 8 12 4 -3
BITMAP
A0
A0
A0
A0
A0
BF
A0
A0
A0
A0
A0
A0
ENDCHAR
STARTCHAR U+2560
ENCODING 9568
SWIDTH 481 0
DWIDTH 13 0
BBX 8 12 4 -3
BITMAP
A0
A0
A0
A0
BF
80
BF
A0
A0
A0
A0
A0
ENDCHAR
STARTCHAR U+2561
ENCODING 9569
SWIDTH 481 0
DWIDTH 13 0
BBX 6 12 0 -3
BITMAP
04
04
04
04
FC
04
FC
04
04
04
04
04
ENDCHAR
STARTCHAR U+2562
ENCODING 9570
SWIDTH 481 0
DWIDTH 13 0
BBX 7 12 0 -3
BITMAP
0A
0A
0A
0A
0A
FA
0A
0A
0A
0A
0A
0A
ENDCHAR
STARTCHAR U+2563
ENCODING 9571
SWIDTH 481 0
DWIDTH 13 0
BBX 7 12 0 -3
BITMAP
0A
0A
0A
0A
FA
02
FA
0A
0A
0A
0A
0A
ENDCHAR
STARTCHAR U+2564
ENCODING 9572
SWIDTH 481 0
DWIDTH 13 0
BBX 12 8 0 -3
BITMAP
FFF0
0000
FFF0
0400
0400
0400
0400
0400
ENDCHAR
STARTCHAR U+2565
ENCODING 9573
SWIDTH 481 0
DWIDTH 13 0
BBX 12 7 0 -3
BITMAP
FFF0
0A00
0A00
0A00
0A00
0A00
0A00
ENDCHAR
STARTCHAR U+2566
ENCODING 9574
SWIDTH 481 0
DWIDTH 13 0
BBX 12 8 0 -3
BITMAP
FFF0
0000
FBF0
0A00
0A00
0A00
0A00
0A00
ENDCHAR
STARTCHAR U+2567
ENCODING 9575
SWIDTH 481 0
DWIDTH 13 0
BBX 12 7 0 2
BITMAP
0400
0400
0400
0400
FFF0
0000
FFF0
ENDCHAR
STARTCHAR U+2568
ENCODING 9576
SWIDTH 481 0
DWIDTH 13 0
BBX 12 6 0 3
BITMAP
0A00
0A00
0A00
0A00
0A00
FFF0
ENDCHAR
STARTCHAR U+2569
ENCODING 9577
SWIDTH 481 0
DWIDTH 13 0
BBX 12 7 0 2
BITMAP
0A00
0A00
0A00
0A00
FBF0
0000
FFF0
ENDCHAR
STARTCHAR U+256A
ENCODING 9578
SWIDTH 481 0
DWIDTH 13 0
BBX 12 12 0 -3
BITMAP
0400
0400
0400
0400
FFF0
0400
FFF0
0400
0400
0400
0400
0400
ENDCHAR
STARTCHAR U+256B
ENCODING 9579
SWIDTH 481 0
DWIDTH 13 0
BBX 12 12 0 -3
BITMAP
0A00
0A00
0A00
0A00
0A00
FFF0
0A00
0A00
0A00
0A00
0A00
0A00
ENDCHAR
STARTCHAR U+256C
ENCODING 9580
SWIDTH 481 0
DWIDTH 13 0
BBX 12 12 0 -3
BITMAP
0A00
0A00
0A00
0A00
FBF0
0000
FBF0
0A00
0A00
0A00
0A00
0A00
ENDCHAR
STARTCHAR U+256D
ENCODING 9581
SWIDTH 481 0
DWIDTH 13 0
BBX 7 7 5 -3
BITMAP
0E
30
40
40
80
80
80
ENDCHAR
STARTCHAR U+256E
ENCODING 9582
SWIDTH 481 0
DWIDTH 13 0
BBX 6 7 0 -3
BITMAP
C0
30
08
08
04
04
04
ENDCHAR
STARTCHAR U+256F
ENCODING 9583
SWIDTH 481 0
DWIDTH 13 0
BBX 6 6 0 3
BITMAP
04
04
08
08
30
C0
ENDCHAR
STARTCHAR U+2570
ENCODING 9584
SWIDTH 481 0
DWIDTH 13 0
BBX 7 6 5 3
BITMAP
80
80
40
40
30
0E
ENDCHAR
STARTCHAR U+2571
ENCODING 9585
SWIDTH 481 0
DWIDTH 13 0
BBX 12 12 0 -3
BITMAP
0010
0020
0040
0080
0100
0200
0400
0800
1000
2000
4000
8000
ENDCHAR
STARTCHAR U+2572
ENCODING 9586
SWIDTH 481 0
DWIDTH 13 0
BBX 12 12 0 -3
BITMAP
8000
4000
2000
1000
0800
0400
0200
0100
0080
0040
0020
0010
ENDCHAR
STARTCHAR U+2573
ENCODING 9587
SWIDTH 481 0
DWIDTH 13 0
BBX 12 12 0 -3
BITMAP
8010
4020
2040
1080
0900
0600
0600
0900
1080
2040
4020
8010
ENDCHAR
STARTCHAR U+2581
ENCODING 9601
SWIDTH 481 0
DWIDTH 13 0
BBX 12 2 0 -3
BITMAP
FFF0
FFF0
ENDCHAR
STARTCHAR U+2582
ENCODING 9602
SWIDTH 481 0
DWIDTH 13 0
BBX 12 3 0 -3
BITMAP
FFF0
FFF0
FFF0
ENDCHAR
STARTCHAR U+2583
ENCODING 9603
SWIDTH 481 0
DWIDTH 13 0
BBX 12 4 0 -3
BITMAP
FFF0
FFF0
FFF0
FFF0
ENDCHAR
STARTCHAR U+2584
ENCODING 9604
SWIDTH 481 0
DWIDTH 13 0
BBX 12 6 0 -3
BITMAP
FFF0
FFF0
FFF0
FFF0
FFF0
FFF0
ENDCHAR
STARTCHAR U+2585
ENCODING 9605
SWIDTH 481 0
DWIDTH 13 0
BBX 12 8 0 -3
BITMAP
FFF0
FFF0
FFF0
FFF0
FFF0
FFF0
FFF0
FFF0
ENDCHAR
STARTCHAR U+2586
ENCODING 9606
SWIDTH 481 0
DWIDTH 13 0
BBX 12 9 0 -3
BITMAP
FFF0
FFF0
FFF0
FFF0
FFF0
FFF0
FFF0
FFF0
FFF0
ENDCHAR
STARTCHAR U+2587
ENCODING 9607
SWIDTH 481 0
DWIDTH 13 0
BBX 12 11 0 -3
BITMAP
FFF0
FFF0
FFF0
FFF0
FFF0
FFF0
FFF0
FFF0
FFF0
FFF0
FFF0
ENDCHAR
STARTCHAR U+2588
ENCODING 9608
SWIDTH 481 0
DWIDTH 13 0
BBX 12 12 0 -3
BITMAP
FFF0
FFF0
FFF0
FFF0
FFF0
FFF0
FFF0
FFF0
FFF0
FFF0
FFF0
FFF0
ENDCHAR
STARTCHAR U+2589
ENCODING 9609
SWIDTH 481 0
DWIDTH 13 0
BBX 11 12 0 -3
BITMAP
FFE0
FFE0
FFE0
FFE0
FFE0
FFE0
FFE0
FFE0
FFE0
FFE0
FFE0
FFE0
ENDCHAR
STARTCHAR U+258A
ENCODING 9610
SWIDTH 481 0
DWIDTH 13 0
BBX 9 12 0 -3
BITMAP
FF80
FF80
FF80
FF80
FF80
FF80
FF80
FF80
FF80
FF80
FF80
FF80
ENDCHAR
STARTCHAR U+258B
ENCODING 9611
SWIDTH 481 0
DWIDTH 13 0
BBX 8 12 0 -3
BITMAP
FF
FF
FF
FF
FF
FF
FF
FF
FF
FF
FF
FF
ENDCHAR
STARTCHAR U+258C
ENCODING 9612
SWIDTH 481 0
DWIDTH 13 0
BBX 6 12 0 -3
BITMAP
FC
FC
FC
FC
FC
FC
FC
FC
FC
FC
FC
FC
ENDCHAR
STARTCHAR U+258D
ENCODING 9613
SWIDTH 481 0
DWIDTH 13 0
BBX 4 12 0 -3
BITMAP
F0
F0
F0
F0
F0
F0
F0
F0
F0
F0
F0
F0
ENDCHAR
STARTCHAR U+258E
ENCODING 9614
SWIDTH 481 0
DWIDTH 13 0
BBX 3 12 0 -3
BITMAP
E0
E0
E0
E0
E0
E0
E0
E0
E0
E0
E0
E0
ENDCHAR
STARTCHAR U+258F
ENCODING 9615
SWIDTH 481 0
DWIDTH 13 0
BBX 1 12 0 -3
BITMAP
80
80
80
80
80
80
80
80
80
80
80
80
ENDCHAR
STARTCHAR U+2593
ENCODING 9619
SWIDTH 481 0
DWIDTH 13 0
BBX 11 11 0 -2
BITMAP
FFE0
AAA0
D560
AAA0
D560
AAA0
D560
AAA0
D560
AAA0
FFE0
ENDCHAR
STARTCHAR U+2594
ENCODING 9620
SWIDTH 481 0
DWIDTH 13 0
BBX 11 1 0 8
BITMAP
FFE0
ENDCHAR
STARTCHAR U+2595
ENCODING 9621
SWIDTH 481 0
DWIDTH 13 0
BBX 2 12 10 -3
BITMAP
C0
C0
C0
C0
C0
C0
C0
C0
C0
C0
C0
C0
ENDCHAR
STARTCHAR U+25A0
ENCODING 9632
SWIDTH 481 0
DWIDTH 13 0
BBX 9 9 1 -1
BITMAP
FF80
FF80
FF80
FF80
FF80
FF80
FF80
FF80
FF80
ENDCHAR
STARTCHAR U+25A1
ENCODING 9633
SWIDTH 481 0
DWIDTH 13 0
BBX 9 9 1 -1
BITMAP
FF80
8080
8080
8080
8080
8080
8080
8080
FF80
ENDCHAR
STARTCHAR U+25B2
ENCODING 9650
SWIDTH 481 0
DWIDTH 13 0
BBX 9 9 1 -1
BITMAP
0800
1C00
1C00
3E00
3E00
7F00
7F00
FF80
FF80
ENDCHAR
STARTCHAR U+25B3
ENCODING 9651
SWIDTH 481 0
DWIDTH 13 0
BBX 9 9 1 -1
BITMAP
0800
1400
1400
2200
2200
4100
4100
8080
FF80
ENDCHAR
STARTCHAR U+25BC
ENCODING 9660
SWIDTH 481 0
DWIDTH 13 0
BBX 9 9 1 -1
BITMAP
FF80
FF80
7F00
7F00
3E00
3E00
1C00
1C00
0800
ENDCHAR
STARTCHAR U+25BD
ENCODING 9661
SWIDTH 481 0
DWIDTH 13 0
BBX 9 9 1 -1
BITMAP
FF80
8080
4100
4100
2200
2200
1400
1400
0800
ENDCHAR
STARTCHAR U+25C6
ENCODING 9670
SWIDTH 481 0
DWIDTH 13 0
BBX 11 11 0 -2
BITMAP
0400
0E00
1F00
3F80
7FC0
FFE0
7FC0
3F80
1F00
0E00
0400
ENDCHAR
STARTCHAR U+25C7
ENCODING 9671
SWIDTH 481 0
DWIDTH 13 0
BBX 11 11 0 -2
BITMAP
0400
0A00
1100
2080
4040
8020
4040
2080
1100
0A00
0400
ENDCHAR
STARTCHAR U+25CB
ENCODING 9675
SWIDTH 481 0
DWIDTH 13 0
BBX 10 10 1 -1
BITMAP
0C00
3300
4080
4080
8040
8040
4080
4080
3300
0C00
ENDCHAR
STARTCHAR U+25CE
ENCODING 9678
SWIDTH 481 0
DWIDTH 13 0
BBX 10 10 1 -1
BITMAP
0C00
3300
4080
4C80
9240
9240
4C80
4080
3300
0C00
ENDCHAR
STARTCHAR U+25CF
ENCODING 9679
SWIDTH 481 0
DWIDTH 13 0
BBX 10 10 1 -1
BITMAP
0C00
3F00
7F80
7F80
FFC0
FFC0
7F80
7F80
3F00
0C00
ENDCHAR
STARTCHAR U+25E2
ENCODING 9698
SWIDTH 481 0
DWIDTH 13 0
BBX 12 12 0 -3
BITMAP
0010
0030
0070
00F0
01F0
03F0
07F0
0FF0
1FF0
3FF0
7FF0
FFF0
ENDCHAR
STARTCHAR U+25E3
ENCODING 9699
SWIDTH 481 0
DWIDTH 13 0
BBX 12 12 0 -3
BITMAP
8000
C000
E000
F000
F800
FC00
FE00
FF00
FF80
FFC0
FFE0
FFF0
ENDCHAR
STARTCHAR U+25E4
ENCODING 9700
SWIDTH 481 0
DWIDTH 13 0
BBX 11 11 0 -2
BITMAP
FFE0
FFC0
FF80
FF00
FE00
FC00
F800
F000
E000
C000
8000
ENDCHAR
STARTCHAR U+25E5
ENCODING 9701
SWIDTH 481 0
DWIDTH 13 0
BBX 11 11 1 -2
BITMAP
FFE0
7FE0
3FE0
1FE0
0FE0
07E0
03E0
01E0
00E0
0060
0020
ENDCHAR
STARTCHAR U+2605
ENCODING 9733
SWIDTH 481 0
DWIDTH 13 0
BBX 11 11 0 -2
BITMAP
0400
0400
0E00
0E00
FFE0
7FC0
1F00
1F00
3B80
2080
4040
ENDCHAR
STARTCHAR U+2606
ENCODING 9734
SWIDTH 481 0
DWIDTH 13 0
BBX 11 11 0 -2
BITMAP
0400
0400
0400
0A00
FBE0
4040
3180
1500
1A80
3180
2080
ENDCHAR
STARTCHAR U+2609
ENCODING 9737
SWIDTH 481 0
DWIDTH 13 0
BBX 7 7 2 0
BITMAP
38
44
82
92
82
44
38
ENDCHAR
STARTCHAR U+2640
ENCODING 9792
SWIDTH 481 0
DWIDTH 13 0
BBX 7 10 2 -2
BITMAP
38
44
44
44
38
10
FE
10
10
10
ENDCHAR
STARTCHAR U+2642
ENCODING 9794
SWIDTH 481 0
DWIDTH 13 0
BBX 9 9 1 -1
BITMAP
0F80
0180
0280
0480
6880
9000
8800
8800
7000
ENDCHAR
STARTCHAR U+3000
ENCODING 12288
SWIDTH 481 0
DWIDTH 13 0
BBX 0 0 0 0
BITMAP
ENDCHAR
STARTCHAR U+3001
ENCODING 12289
SWIDTH 481 0
DWIDTH 13 0
BBX 3 3 2 -2
BITMAP
80
40
20
ENDCHAR
STARTCHAR U+3002
ENCODING 12290
SWIDTH 481 0
DWIDTH 13 0
BBX 4 4 1 -2
BITMAP
60
90
90
60
ENDCHAR
STARTCHAR U+3003
ENCODING 12291
SWIDTH 481 0
DWIDTH 13 0
BBX 6 5 3 1
BITMAP
6C
48
48
90
90
ENDCHAR
STARTCHAR U+3005
ENCODING 12293
SWIDTH 481 0
DWIDTH 13 0
BBX 6 7 2 0
BITMAP
20
20
7C
44
88
30
08
ENDCHAR
STARTCHAR U+3006
ENCODING 12294
SWIDTH 481 0
DWIDTH 13 0
BBX 10 10 0 -2
BITMAP
0040
0080
1900
2600
4600
4900
5000
6000
C000
8000
ENDCHAR
STARTCHAR U+3007
ENCODING 12295
SWIDTH 481 0
DWIDTH 13 0
BBX 11 9 0 -1
BITMAP
1F00
60C0
4040
8020
8020
8020
4040
60C0
1F00
ENDCHAR
STARTCHAR U+3008
ENCODING 12296
SWIDTH 481 0
DWIDTH 13 0
BBX 4 11 7 -2
BITMAP
10
20
20
40
40
80
40
40
20
20
10
ENDCHAR
STARTCHAR U+3009
ENCODING 12297
SWIDTH 481 0
DWIDTH 13 0
BBX 4 11 0 -2
BITMAP
80
40
40
20
20
10
20
20
40
40
80
ENDCHAR
STARTCHAR U+300A
ENCODING 12298
SWIDTH 481 0
DWIDTH 13 0
BBX 5 11 6 -2
BITMAP
28
28
50
50
50
A0
50
50
50
28
28
ENDCHAR
STARTCHAR U+300B
ENCODING 12299
SWIDTH 481 0
DWIDTH 13 0
BBX 5 11 0 -2
BITMAP
A0
A0
50
50
50
28
50
50
50
A0
A0
ENDCHAR
STARTCHAR U+300C
ENCODING 12300
SWIDTH 481 0
DWIDTH 13 0
BBX 4 9 7 0
BITMAP
F0
80
80
80
80
80
80
80
80
ENDCHAR
STARTCHAR U+300D
ENCODING 12301
SWIDTH 481 0
DWIDTH 13 0
BBX 4 9 0 -2
BITMAP
10
10
10
10
10
10
10
10
F0
ENDCHAR
STARTCHAR U+300E
ENCODING 12302
SWIDTH 481 0
DWIDTH 13 0
BBX 5 9 6 0
BITMAP
F8
88
B8
A0
A0
A0
A0
A0
E0
ENDCHAR
STARTCHAR U+300F
ENCODING 12303
SWIDTH 481 0
DWIDTH 13 0
BBX 5 9 0 -2
BITMAP
38
28
28
28
28
28
E8
88
F8
ENDCHAR
STARTCHAR U+3010
ENCODING 12304
SWIDTH 481 0
DWIDTH 13 0
BBX 4 11 7 -2
BITMAP
F0
E0
C0
C0
80
80
80
C0
C0
E0
F0
ENDCHAR
STARTCHAR U+3011
ENCODING 12305
SWIDTH 481 0
DWIDTH 13 0
BBX 4 11 0 -2
BITMAP
F0
70
30
30
10
10
10
30
30
70
F0
ENDCHAR
STARTCHAR U+3012
ENCODING 12306
SWIDTH 481 0
DWIDTH 13 0
BBX 9 9 1 -1
BITMAP
FF80
0000
0000
FF80
0800
0800
0800
0800
0800
ENDCHAR
STARTCHAR U+3013
ENCODING 12307
SWIDTH 481 0
DWIDTH 13 0
BBX 9 6 1 0
BITMAP
FF80
FF80
0000
0000
FF80
FF80
ENDCHAR
STARTCHAR U+3014
ENCODING 12308
SWIDTH 481 0
DWIDTH 13 0
BBX 4 11 7 -2
BITMAP
30
C0
80
80
80
80
80
80
80
C0
30
ENDCHAR
STARTCHAR U+3015
ENCODING 12309
SWIDTH 481 0
DWIDTH 13 0
BBX 4 11 0 -2
BITMAP
C0
30
10
10
10
10
10
10
10
30
C0
ENDCHAR
STARTCHAR U+3016
ENCODING 12310
SWIDTH 481 0
DWIDTH 13 0
BBX 5 11 4 -2
BITMAP
F8
88
90
90
A0
A0
A0
90
90
88
F8
ENDCHAR
STARTCHAR U+3017
ENCODING 12311
SWIDTH 481 0
DWIDTH 13 0
BBX 5 11 4 -2
BITMAP
F8
88
48
48
28
28
28
48
48
88
F8
ENDCHAR
STARTCHAR U+301C
ENCODING 12316
SWIDTH 481 0
DWIDTH 13 0
BBX 11 3 1 2
BITMAP
7800
8420
03C0
ENDCHAR
STARTCHAR U+301D
ENCODING 12317
SWIDTH 481 0
DWIDTH 13 0
BBX 4 4 4 5
BITMAP
A0
A0
50
50
ENDCHAR
STARTCHAR U+301E
ENCODING 12318
SWIDTH 481 0
DWIDTH 13 0
BBX 4 4 4 5
BITMAP
50
50
A0
A0
ENDCHAR
STARTCHAR U+3021
ENCODING 12321
SWIDTH 481 0
DWIDTH 13 0
BBX 1 10 6 -1
BITMAP
80
80
80
80
80
80
80
80
80
80
ENDCHAR
STARTCHAR U+3022
ENCODING 12322
SWIDTH 481 0
DWIDTH 13 0
BBX 5 11 4 -2
BITMAP
08
88
88
88
88
88
88
88
88
08
08
ENDCHAR
STARTCHAR U+3023
ENCODING 12323
SWIDTH 481 0
DWIDTH 13 0
BBX 7 11 3 -2
BITMAP
82
82
92
92
92
92
92
92
92
92
82
ENDCHAR
STARTCHAR U+3024
ENCODING 12324
SWIDTH 481 0
DWIDTH 13 0
BBX 7 8 3 1
BITMAP
04
04
C8
28
18
14
22
C0
ENDCHAR
STARTCHAR U+3025
ENCODING 12325
SWIDTH 481 0
DWIDTH 13 0
BBX 7 11 3 -2
BITMAP
20
22
4C
F0
28
44
84
84
84
48
30
ENDCHAR
STARTCHAR U+3026
ENCODING 12326
SWIDTH 481 0
DWIDTH 13 0
BBX 11 5 1 3
BITMAP
0400
0400
0400
0400
FFE0
ENDCHAR
STARTCHAR U+3027
ENCODING 12327
SWIDTH 481 0
DWIDTH 13 0
BBX 11 7 1 1
BITMAP
0400
0400
0400
FFE0
0000
0000
7FC0
ENDCHAR
STARTCHAR U+3028
ENCODING 12328
SWIDTH 481 0
DWIDTH 13 0
BBX 11 9 1 0
BITMAP
0400
0400
FFE0
0000
0000
7FC0
0000
0000
FFE0
ENDCHAR
STARTCHAR U+3029
ENCODING 12329
SWIDTH 481 0
DWIDTH 13 0
BBX 10 11 1 -2
BITMAP
2000
2000
3FC0
2100
5900
0500
0200
0500
0900
3100
C000
ENDCHAR
STARTCHAR U+3041
ENCODING 12353
SWIDTH 481 0
DWIDTH 13 0
BBX 8 9 2 -2
BITMAP
20
7C
20
3C
6A
A9
B1
62
0C
ENDCHAR
STARTCHAR U+3042
ENCODING 12354
SWIDTH 481 0
DWIDTH 13 0
BBX 10 11 1 -2
BITMAP
1000
FF80
1000
3F00
5280
9240
9440
9440
9840
7080
0700
ENDCHAR
STARTCHAR U+3043
ENCODING 12355
SWIDTH 481 0
DWIDTH 13 0
BBX 8 8 1 -2
BITMAP
80
82
82
81
81
91
A0
40
ENDCHAR
STARTCHAR U+3044
ENCODING 12356
SWIDTH 481 0
DWIDTH 13 0
BBX 10 10 1 -2
BITMAP
8000
8080
8080
8040
8040
8040
8040
5040
5000
2000
ENDCHAR
STARTCHAR U+3045
ENCODING 12357
SWIDTH 481 0
DWIDTH 13 0
BBX 6 8 2 -2
BITMAP
78
00
38
C4
04
04
08
30
ENDCHAR
STARTCHAR U+3046
ENCODING 12358
SWIDTH 481 0
DWIDTH 13 0
BBX 7 11 2 -2
BITMAP
60
18
00
3C
C2
02
02
02
04
08
70
ENDCHAR
STARTCHAR U+3047
ENCODING 12359
SWIDTH 481 0
DWIDTH 13 0
BBX 8 8 2 -2
BITMAP
38
00
7C
08
10
38
48
8F
ENDCHAR
STARTCHAR U+3048
ENCODING 12360
SWIDTH 481 0
DWIDTH 13 0
BBX 10 11 1 -2
BITMAP
1E00
0000
0000
7F00
0200
0400
0C00
1200
2200
4200
81C0
ENDCHAR
STARTCHAR U+3049
ENCODING 12361
SWIDTH 481 0
DWIDTH 13 0
BBX 9 9 1 -2
BITMAP
2000
2000
F900
2080
3E00
6100
A100
A100
6E00
ENDCHAR
STARTCHAR U+304A
ENCODING 12362
SWIDTH 481 0
DWIDTH 13 0
BBX 10 11 0 -2
BITMAP
1000
1000
7E80
1040
1000
3F00
5080
9040
9040
9040
6380
ENDCHAR
STARTCHAR U+304B
ENCODING 12363
SWIDTH 481 0
DWIDTH 13 0
BBX 11 11 0 -2
BITMAP
2000
2000
FC80
2240
2240
2220
4220
4220
4200
9400
8C00
ENDCHAR
STARTCHAR U+304C
ENCODING 12364
SWIDTH 481 0
DWIDTH 13 0
BBX 11 11 0 -2
BITMAP
2140
2140
FC00
2280
2240
2220
4220
4220
4200
9400
8C00
ENDCHAR
STARTCHAR U+304D
ENCODING 12365
SWIDTH 481 0
DWIDTH 13 0
BBX 9 11 1 -2
BITMAP
0800
FF00
0800
FF80
0400
0400
7E00
8200
8000
8000
7C00
ENDCHAR
STARTCHAR U+304E
ENCODING 12366
SWIDTH 481 0
DWIDTH 13 0
BBX 9 11 1 -2
BITMAP
0A80
FE80
0800
FF80
0400
0400
7E00
8200
8000
8000
7C00
ENDCHAR
STARTCHAR U+304F
ENCODING 12367
SWIDTH 481 0
DWIDTH 13 0
BBX 6 11 2 -2
BITMAP
08
10
20
40
80
80
40
20
10
08
04
ENDCHAR
STARTCHAR U+3050
ENCODING 12368
SWIDTH 481 0
DWIDTH 13 0
BBX 8 11 2 -2
BITMAP
08
10
25
45
80
80
40
20
10
08
04
ENDCHAR
STARTCHAR U+3051
ENCODING 12369
SWIDTH 481 0
DWIDTH 13 0
BBX 10 11 0 -2
BITMAP
0100
8100
8100
9FC0
8100
8100
8100
8100
8100
8200
1C00
ENDCHAR
STARTCHAR U+3052
ENCODING 12370
SWIDTH 481 0
DWIDTH 13 0
BBX 11 11 0 -2
BITMAP
00A0
81A0
8100
9FC0
8100
8100
8100
8100
8100
8200
0C00
ENDCHAR
STARTCHAR U+3053
ENCODING 12371
SWIDTH 481 0
DWIDTH 13 0
BBX 9 9 1 -2
BITMAP
7F00
0000
0000
0000
0000
8000
8000
8000
7F80
ENDCHAR
STARTCHAR U+3054
ENCODING 12372
SWIDTH 481 0
DWIDTH 13 0
BBX 10 11 1 -2
BITMAP
0140
0140
7E00
0000
0000
0000
0000
8000
8000
8000
7F80
ENDCHAR
STARTCHAR U+3055
ENCODING 12373
SWIDTH 481 0
DWIDTH 13 0
BBX 8 11 1 -2
BITMAP
04
04
FF
04
02
3E
43
81
80
40
3E
ENDCHAR
STARTCHAR U+3056
ENCODING 12374
SWIDTH 481 0
DWIDTH 13 0
BBX 10 11 1 -2
BITMAP
0940
0940
FE00
0400
0200
3E00
4300
8100
8000
4000
3E00
ENDCHAR
STARTCHAR U+3057
ENCODING 12375
SWIDTH 481 0
DWIDTH 13 0
BBX 8 10 2 -2
BITMAP
80
80
80
80
80
80
81
81
42
3C
ENDCHAR
STARTCHAR U+3058
ENCODING 12376
SWIDTH 481 0
DWIDTH 13 0
BBX 8 10 2 -2
BITMAP
8A
8A
80
80
80
80
81
81
42
3C
ENDCHAR
STARTCHAR U+3059
ENCODING 12377
SWIDTH 481 0
DWIDTH 13 0
BBX 11 11 0 -2
BITMAP
0200
0200
FFE0
0200
0E00
1200
1200
0E00
0200
0400
1800
ENDCHAR
STARTCHAR U+305A
ENCODING 12378
SWIDTH 481 0
DWIDTH 13 0
BBX 11 11 0 -2
BITMAP
02A0
02A0
0200
FFE0
0200
0E00
1200
0E00
0200
0400
1800
ENDCHAR
STARTCHAR U+305B
ENCODING 12379
SWIDTH 481 0
DWIDTH 13 0
BBX 11 10 0 -2
BITMAP
2100
2100
2100
FFE0
2100
2100
2600
2000
2000
1F80
ENDCHAR
STARTCHAR U+305C
ENCODING 12380
SWIDTH 481 0
DWIDTH 13 0
BBX 11 11 0 -2
BITMAP
00A0
20A0
2100
2100
FFE0
2100
2100
2600
2000
2000
1F80
ENDCHAR
STARTCHAR U+305D
ENCODING 12381
SWIDTH 481 0
DWIDTH 13 0
BBX 10 10 0 -2
BITMAP
3F80
0100
0600
1800
FFC0
0800
1000
1000
0800
0780
ENDCHAR
STARTCHAR U+305E
ENCODING 12382
SWIDTH 481 0
DWIDTH 13 0
BBX 11 10 0 -2
BITMAP
3F00
02A0
04A0
1800
FFE0
0800
1000
1000
0800
0780
ENDCHAR
STARTCHAR U+305F
ENCODING 12383
SWIDTH 481 0
DWIDTH 13 0
BBX 10 11 0 -2
BITMAP
2000
2000
FC00
2000
2780
2000
4000
4000
4800
8800
87C0
ENDCHAR
STARTCHAR U+3060
ENCODING 12384
SWIDTH 481 0
DWIDTH 13 0
BBX 10 11 0 -2
BITMAP
2140
2140
FC00
2000
2780
2000
4000
4000
4800
8800
87C0
ENDCHAR
STARTCHAR U+3061
ENCODING 12385
SWIDTH 481 0
DWIDTH 13 0
BBX 9 11 1 -2
BITMAP
1000
1000
FF80
1000
2000
3F00
6080
4080
0080
0100
1E00
ENDCHAR
STARTCHAR U+3062
ENCODING 12386
SWIDTH 481 0
DWIDTH 13 0
BBX 10 11 1 -2
BITMAP
1140
1140
FE00
1000
2000
3F00
6080
4080
0080
0100
1E00
ENDCHAR
STARTCHAR U+3063
ENCODING 12387
SWIDTH 481 0
DWIDTH 13 0
BBX 7 6 2 -2
BITMAP
FC
02
02
02
04
38
ENDCHAR
STARTCHAR U+3064
ENCODING 12388
SWIDTH 481 0
DWIDTH 13 0
BBX 10 8 0 -1
BITMAP
0F00
F080
0040
0040
0040
0080
0300
3C00
ENDCHAR
STARTCHAR U+3065
ENCODING 12389
SWIDTH 481 0
DWIDTH 13 0
BBX 11 10 0 -1
BITMAP
00A0
00A0
0E00
F180
0040
0040
0040
0080
0300
1C00
ENDCHAR
STARTCHAR U+3066
ENCODING 12390
SWIDTH 481 0
DWIDTH 13 0
BBX 10 10 0 -2
BITMAP
0FC0
F200
0400
0800
0800
0800
0800
0800
0400
0380
ENDCHAR
STARTCHAR U+3067
ENCODING 12391
SWIDTH 481 0
DWIDTH 13 0
BBX 10 10 0 -2
BITMAP
0FC0
F200
0440
0940
0900
0800
0800
0800
0400
0380
ENDCHAR
STARTCHAR U+3068
ENCODING 12392
SWIDTH 481 0
DWIDTH 13 0
BBX 8 11 1 -2
BITMAP
20
20
20
13
1C
30
40
80
80
40
3F
ENDCHAR
STARTCHAR U+3069
ENCODING 12393
SWIDTH 481 0
DWIDTH 13 0
BBX 10 11 1 -2
BITMAP
2140
2140
2000
1300
1C00
3000
4000
8000
8000
4000
3F00
ENDCHAR
STARTCHAR U+306A
ENCODING 12394
SWIDTH 481 0
DWIDTH 13 0
BBX 10 11 1 -2
BITMAP
2000
2000
F980
2040
4100
4100
4100
8F00
9180
1140
0E00
ENDCHAR
STARTCHAR U+306B
ENCODING 12395
SWIDTH 481 0
DWIDTH 13 0
BBX 10 9 0 -1
BITMAP
8000
8FC0
8000
8000
8000
8000
8800
8800
87C0
ENDCHAR
STARTCHAR U+306C
ENCODING 12396
SWIDTH 481 0
DWIDTH 13 0
BBX 11 11 0 -2
BITMAP
0400
4400
4F80
5440
6420
4820
A820
9020
99A0
6240
01A0
ENDCHAR
STARTCHAR U+306D
ENCODING 12397
SWIDTH 481 0
DWIDTH 13 0
BBX 11 11 0 -2
BITMAP
2000
2000
F780
2840
3040
6040
6040
A040
A3C0
2440
23A0
ENDCHAR
STARTCHAR U+306E
ENCODING 12398
SWIDTH 481 0
DWIDTH 13 0
BBX 11 10 0 -2
BITMAP
1F00
2480
4440
4420
8420
8820
8820
9040
6080
0300
ENDCHAR
STARTCHAR U+306F
ENCODING 12399
SWIDTH 481 0
DWIDTH 13 0
BBX 11 11 0 -2
BITMAP
0080
8080
8FE0
8080
8080
8080
8080
8780
88C0
88A0
8700
ENDCHAR
STARTCHAR U+3070
ENCODING 12400
SWIDTH 481 0
DWIDTH 13 0
BBX 11 11 0 -2
BITMAP
00A0
81A0
8100
9FC0
8100
8100
8100
8F00
9180
9140
8E00
ENDCHAR
STARTCHAR U+3071
ENCODING 12401
SWIDTH 481 0
DWIDTH 13 0
BBX 11 11 0 -2
BITMAP
0040
81A0
8140
9F80
8100
8100
8100
8F00
9180
9140
8E00
ENDCHAR
STARTCHAR U+3072
ENCODING 12402
SWIDTH 481 0
DWIDTH 13 0
BBX 11 10 0 -2
BITMAP
F880
1080
20C0
40C0
80A0
80A0
8100
8100
4200
3C00
ENDCHAR
STARTCHAR U+3073
ENCODING 12403
SWIDTH 481 0
DWIDTH 13 0
BBX 11 11 0 -2
BITMAP
00A0
F8A0
1000
2080
40C0
80C0
80A0
8120
8100
4200
3C00
ENDCHAR
STARTCHAR U+3074
ENCODING 12404
SWIDTH 481 0
DWIDTH 13 0
BBX 11 11 0 -2
BITMAP
0040
F8A0
1040
2080
40C0
80C0
80A0
8120
8100
4200
3C00
ENDCHAR
STARTCHAR U+3075
ENCODING 12405
SWIDTH 481 0
DWIDTH 13 0
BBX 11 11 0 -2
BITMAP
1800
0600
0000
0800
0800
4840
4440
8220
8220
2200
1C00
ENDCHAR
STARTCHAR U+3076
ENCODING 12406
SWIDTH 481 0
DWIDTH 13 0
BBX 11 11 0 -2
BITMAP
1800
06A0
00A0
0800
0800
4840
4440
8220
8220
2200
1C00
ENDCHAR
STARTCHAR U+3077
ENCODING 12407
SWIDTH 481 0
DWIDTH 13 0
BBX 11 11 0 -2
BITMAP
1800
0640
00A0
0840
0800
4840
4440
8220
8220
2200
1C00
ENDCHAR
STARTCHAR U+3078
ENCODING 12408
SWIDTH 481 0
DWIDTH 13 0
BBX 11 7 0 0
BITMAP
0800
1400
2200
4100
8080
0040
0020
ENDCHAR
STARTCHAR U+3079
ENCODING 12409
SWIDTH 481 0
DWIDTH 13 0
BBX 11 8 0 0
BITMAP
0140
0940
1400
2200
4100
8080
0040
0020
ENDCHAR
STARTCHAR U+307A
ENCODING 12410
SWIDTH 481 0
DWIDTH 13 0
BBX 11 8 0 0
BITMAP
0080
0940
1480
2200
4100
8080
0040
0020
ENDCHAR
STARTCHAR U+307B
ENCODING 12411
SWIDTH 481 0
DWIDTH 13 0
BBX 11 10 0 -2
BITMAP
8FC0
8080
8080
8FE0
8080
8080
8080
8780
88C0
8720
ENDCHAR
STARTCHAR U+307C
ENCODING 12412
SWIDTH 481 0
DWIDTH 13 0
BBX 11 11 0 -2
BITMAP
00A0
80A0
8000
8FC0
8080
8FE0
8080
8080
8780
88C0
8720
ENDCHAR
STARTCHAR U+307D
ENCODING 12413
SWIDTH 481 0
DWIDTH 13 0
BBX 11 11 0 -2
BITMAP
0040
80A0
8040
8FC0
8080
8FE0
8080
8080
8780
88C0
8720
ENDCHAR
STARTCHAR U+307E
ENCODING 12414
SWIDTH 481 0
DWIDTH 13 0
BBX 9 11 1 -2
BITMAP
0800
0800
FF80
0800
0800
7F00
0800
0800
7C00
8B00
7080
ENDCHAR
STARTCHAR U+307F
ENCODING 12415
SWIDTH 481 0
DWIDTH 13 0
BBX 11 10 0 -2
BITMAP
3C00
0400
0880
0880
3E80
51C0
90A0
A080
C100
0600
ENDCHAR
STARTCHAR U+3080
ENCODING 12416
SWIDTH 481 0
DWIDTH 13 0
BBX 11 11 0 -2
BITMAP
1000
1000
FC40
1020
7000
9000
9000
6000
2040
2040
1F80
ENDCHAR
STARTCHAR U+3081
ENCODING 12417
SWIDTH 481 0
DWIDTH 13 0
BBX 11 11 0 -2
BITMAP
0200
4200
5F80
6240
4420
A420
A820
9020
A840
40C0
0300
ENDCHAR
STARTCHAR U+3082
ENCODING 12418
SWIDTH 481 0
DWIDTH 13 0
BBX 9 11 1 -2
BITMAP
1000
9000
7C00
2000
A000
7D00
2080
2080
2080
1080
0F00
ENDCHAR
STARTCHAR U+3083
ENCODING 12419
SWIDTH 481 0
DWIDTH 13 0
BBX 8 8 1 -2
BITMAP
04
24
3E
E1
21
16
10
10
ENDCHAR
STARTCHAR U+3084
ENCODING 12420
SWIDTH 481 0
DWIDTH 13 0
BBX 11 10 0 -2
BITMAP
2100
2100
2FC0
F020
1020
1020
11C0
0800
0800
0800
ENDCHAR
STARTCHAR U+3085
ENCODING 12421
SWIDTH 481 0
DWIDTH 13 0
BBX 7 9 2 -2
BITMAP
08
88
BC
CA
8A
AA
9C
08
30
ENDCHAR
STARTCHAR U+3086
ENCODING 12422
SWIDTH 481 0
DWIDTH 13 0
BBX 10 11 0 -2
BITMAP
0200
8200
8F00
B280
C240
C240
8240
9280
8F00
0400
1800
ENDCHAR
STARTCHAR U+3087
ENCODING 12423
SWIDTH 481 0
DWIDTH 13 0
BBX 8 8 2 -2
BITMAP
08
08
0E
08
08
78
8E
71
ENDCHAR
STARTCHAR U+3088
ENCODING 12424
SWIDTH 481 0
DWIDTH 13 0
BBX 9 11 1 -2
BITMAP
0800
0800
0800
0F80
0800
0800
0800
0800
7C00
8B00
7080
ENDCHAR
STARTCHAR U+3089
ENCODING 12425
SWIDTH 481 0
DWIDTH 13 0
BBX 9 11 1 -2
BITMAP
3800
0600
4000
4000
5E00
6100
C080
8080
0080
0100
1E00
ENDCHAR
STARTCHAR U+308A
ENCODING 12426
SWIDTH 481 0
DWIDTH 13 0
BBX 7 11 2 -2
BITMAP
02
82
82
82
82
A2
C2
02
02
04
38
ENDCHAR
STARTCHAR U+308B
ENCODING 12427
SWIDTH 481 0
DWIDTH 13 0
BBX 9 10 1 -2
BITMAP
7C00
0800
1000
3E00
4100
8080
0080
1880
2500
1E00
ENDCHAR
STARTCHAR U+308C
ENCODING 12428
SWIDTH 481 0
DWIDTH 13 0
BBX 11 11 0 -2
BITMAP
2000
2000
F700
2880
3080
6080
6080
A080
A080
20A0
2040
ENDCHAR
STARTCHAR U+308D
ENCODING 12429
SWIDTH 481 0
DWIDTH 13 0
BBX 9 10 1 -2
BITMAP
7C00
0800
1000
3E00
4100
8080
0080
0080
0100
3E00
ENDCHAR
STARTCHAR U+308E
ENCODING 12430
SWIDTH 481 0
DWIDTH 13 0
BBX 7 8 2 -2
BITMAP
40
40
DC
62
42
C2
44
48
ENDCHAR
STARTCHAR U+308F
ENCODING 12431
SWIDTH 481 0
DWIDTH 13 0
BBX 11 11 0 -2
BITMAP
2000
2000
F780
2840
3020
6020
6020
A040
A040
2080
2300
ENDCHAR
STARTCHAR U+3090
ENCODING 12432
SWIDTH 481 0
DWIDTH 13 0
BBX 10 10 0 -2
BITMAP
3C00
0400
0400
1F00
2880
4840
8840
9340
94C0
6380
ENDCHAR
STARTCHAR U+3091
ENCODING 12433
SWIDTH 481 0
DWIDTH 13 0
BBX 11 11 0 -2
BITMAP
1E00
0200
0400
0F00
1080
2C80
0F00
1000
21C0
5220
8C60
ENDCHAR
STARTCHAR U+3092
ENCODING 12434
SWIDTH 481 0
DWIDTH 13 0
BBX 9 11 1 -2
BITMAP
0800
0980
FE00
1000
3D80
4600
8A00
1200
2000
2000
1F80
ENDCHAR
STARTCHAR U+3093
ENCODING 12435
SWIDTH 481 0
DWIDTH 13 0
BBX 11 10 0 -2
BITMAP
0400
0800
0800
1000
1000
3C00
2220
4220
4240
8180
ENDCHAR
STARTCHAR U+3099
ENCODING 12441
SWIDTH 37 0
DWIDTH 1 0
BBX 0 0 0 0
BITMAP
ENDCHAR
STARTCHAR U+309A
ENCODING 12442
SWIDTH 37 0
DWIDTH 1 0
BBX 0 0 0 0
BITMAP
ENDCHAR
STARTCHAR U+309B
ENCODING 12443
SWIDTH 481 0
DWIDTH 13 0
BBX 4 3 0 6
BITMAP
20
90
40
ENDCHAR
STARTCHAR U+309C
ENCODING 12444
SWIDTH 481 0
DWIDTH 13 0
BBX 3 3 0 6
BITMAP
40
A0
40
ENDCHAR
STARTCHAR U+309D
ENCODING 12445
SWIDTH 481 0
DWIDTH 13 0
BBX 4 5 4 1
BITMAP
80
80
40
30
C0
ENDCHAR
STARTCHAR U+309E
ENCODING 12446
SWIDTH 481 0
DWIDTH 13 0
BBX 6 7 3 1
BITMAP
08
24
90
80
40
30
C0
ENDCHAR
STARTCHAR U+30A1
ENCODING 12449
SWIDTH 481 0
DWIDTH 13 0
BBX 8 7 1 -2
BITMAP
FF
01
12
14
10
20
40
ENDCHAR
STARTCHAR U+30A2
ENCODING 12450
SWIDTH 481 0
DWIDTH 13 0
BBX 10 10 1 -2
BITMAP
FFC0
0040
0080
0900
0A00
0800
0800
1000
1000
2000
ENDCHAR
STARTCHAR U+30A3
ENCODING 12451
SWIDTH 481 0
DWIDTH 13 0
BBX 7 8 2 -2
BITMAP
02
04
08
38
C8
08
08
08
ENDCHAR
STARTCHAR U+30A4
ENCODING 12452
SWIDTH 481 0
DWIDTH 13 0
BBX 9 11 0 -2
BITMAP
0080
0100
0200
0400
0C00
3400
C400
0400
0400
0400
0400
ENDCHAR
STARTCHAR U+30A5
ENCODING 12453
SWIDTH 481 0
DWIDTH 13 0
BBX 7 8 2 -2
BITMAP
10
10
FE
82
82
02
04
18
ENDCHAR
STARTCHAR U+30A6
ENCODING 12454
SWIDTH 481 0
DWIDTH 13 0
BBX 9 11 1 -2
BITMAP
0800
0800
FF80
8080
8080
8080
8080
0100
0100
0600
3800
ENDCHAR
STARTCHAR U+30A7
ENCODING 12455
SWIDTH 481 0
DWIDTH 13 0
BBX 7 5 2 -1
BITMAP
7C
10
10
10
FE
ENDCHAR
STARTCHAR U+30A8
ENCODING 12456
SWIDTH 481 0
DWIDTH 13 0
BBX 10 8 1 -1
BITMAP
7F80
0800
0800
0800
0800
0800
0800
FFC0
ENDCHAR
STARTCHAR U+30A9
ENCODING 12457
SWIDTH 481 0
DWIDTH 13 0
BBX 8 8 1 -2
BITMAP
04
04
FF
0C
14
24
C4
0C
ENDCHAR
STARTCHAR U+30AA
ENCODING 12458
SWIDTH 481 0
DWIDTH 13 0
BBX 10 11 0 -2
BITMAP
0100
0100
FFC0
0300
0500
0900
1100
2100
C100
0100
0700
ENDCHAR
STARTCHAR U+30AB
ENCODING 12459
SWIDTH 481 0
DWIDTH 13 0
BBX 9 11 1 -2
BITMAP
1000
1000
FF80
1080
1080
1080
1080
2080
2080
4080
8700
ENDCHAR
STARTCHAR U+30AC
ENCODING 12460
SWIDTH 481 0
DWIDTH 13 0
BBX 10 11 1 -2
BITMAP
1140
1140
1000
FF80
1080
1080
1080
2080
2080
4080
8700
ENDCHAR
STARTCHAR U+30AD
ENCODING 12461
SWIDTH 481 0
DWIDTH 13 0
BBX 11 11 0 -2
BITMAP
0400
0400
0400
7FC0
0400
0400
FFE0
0200
0200
0200
0200
ENDCHAR
STARTCHAR U+30AE
ENCODING 12462
SWIDTH 481 0
DWIDTH 13 0
BBX 11 11 0 -2
BITMAP
04A0
04A0
0400
7FC0
0400
0400
FFE0
0200
0200
0200
0200
ENDCHAR
STARTCHAR U+30AF
ENCODING 12463
SWIDTH 481 0
DWIDTH 13 0
BBX 9 11 1 -2
BITMAP
1000
1000
1F80
2080
4080
8100
0100
0200
0400
1800
6000
ENDCHAR
STARTCHAR U+30B0
ENCODING 12464
SWIDTH 481 0
DWIDTH 13 0
BBX 10 11 1 -2
BITMAP
1140
1140
2000
3F80
4080
8080
0100
0100
0200
0C00
7000
ENDCHAR
STARTCHAR U+30B1
ENCODING 12465
SWIDTH 481 0
DWIDTH 13 0
BBX 10 11 0 -2
BITMAP
2000
2000
3FC0
4200
4200
8200
0200
0400
0400
0800
3000
ENDCHAR
STARTCHAR U+30B2
ENCODING 12466
SWIDTH 481 0
DWIDTH 13 0
BBX 11 11 0 -2
BITMAP
10A0
10A0
2000
3FC0
4100
8100
0100
0200
0200
0C00
3000
ENDCHAR
STARTCHAR U+30B3
ENCODING 12467
SWIDTH 481 0
DWIDTH 13 0
BBX 9 8 1 -2
BITMAP
FF80
0080
0080
0080
0080
0080
FF80
0080
ENDCHAR
STARTCHAR U+30B4
ENCODING 12468
SWIDTH 481 0
DWIDTH 13 0
BBX 10 11 1 -2
BITMAP
0140
0140
0000
FF80
0080
0080
0080
0080
0080
FF80
0080
ENDCHAR
STARTCHAR U+30B5
ENCODING 12469
SWIDTH 481 0
DWIDTH 13 0
BBX 11 10 0 -2
BITMAP
2100
2100
FFE0
2100
2100
2100
0100
0100
0200
1C00
ENDCHAR
STARTCHAR U+30B6
ENCODING 12470
SWIDTH 481 0
DWIDTH 13 0
BBX 11 11 0 -2
BITMAP
00A0
20A0
2100
FFC0
2100
2100
2100
0100
0100
0200
1C00
ENDCHAR
STARTCHAR U+30B7
ENCODING 12471
SWIDTH 481 0
DWIDTH 13 0
BBX 10 10 1 -2
BITMAP
6000
1000
0040
C040
2080
0100
0200
0400
1800
6000
ENDCHAR
STARTCHAR U+30B8
ENCODING 12472
SWIDTH 481 0
DWIDTH 13 0
BBX 10 11 1 -2
BITMAP
0140
6140
1000
0040
C040
2080
0100
0200
0400
1800
6000
ENDCHAR
STARTCHAR U+30B9
ENCODING 12473
SWIDTH 481 0
DWIDTH 13 0
BBX 10 10 0 -2
BITMAP
7F00
0100
0100
0200
0200
0400
0A00
1100
2080
C040
ENDCHAR
STARTCHAR U+30BA
ENCODING 12474
SWIDTH 481 0
DWIDTH 13 0
BBX 11 11 0 -2
BITMAP
00A0
00A0
7F00
0100
0200
0200
0400
0A00
1100
2080
C040
ENDCHAR
STARTCHAR U+30BB
ENCODING 12475
SWIDTH 481 0
DWIDTH 13 0
BBX 10 10 0 -2
BITMAP
2000
2000
27C0
F840
2080
2100
2200
2000
2000
1FC0
ENDCHAR
STARTCHAR U+30BC
ENCODING 12476
SWIDTH 481 0
DWIDTH 13 0
BBX 11 11 0 -2
BITMAP
00A0
20A0
2000
27C0
F840
2080
2100
2200
2000
2000
1FC0
ENDCHAR
STARTCHAR U+30BD
ENCODING 12477
SWIDTH 481 0
DWIDTH 13 0
BBX 9 9 1 -2
BITMAP
8080
4080
4080
0080
0100
0100
0200
0C00
3000
ENDCHAR
STARTCHAR U+30BE
ENCODING 12478
SWIDTH 481 0
DWIDTH 13 0
BBX 10 11 1 -2
BITMAP
0140
0140
8000
4080
4080
0080
0100
0100
0200
0C00
3000
ENDCHAR
STARTCHAR U+30BF
ENCODING 12479
SWIDTH 481 0
DWIDTH 13 0
BBX 8 11 1 -2
BITMAP
10
10
1F
21
41
99
06
02
05
18
E0
ENDCHAR
STARTCHAR U+30C0
ENCODING 12480
SWIDTH 481 0
DWIDTH 13 0
BBX 10 11 1 -2
BITMAP
1140
1140
2000
3F00
4100
9900
0500
0200
0500
1800
E000
ENDCHAR
STARTCHAR U+30C1
ENCODING 12481
SWIDTH 481 0
DWIDTH 13 0
BBX 10 10 1 -2
BITMAP
0380
7C00
0400
0400
FFC0
0400
0400
0400
0800
3000
ENDCHAR
STARTCHAR U+30C2
ENCODING 12482
SWIDTH 481 0
DWIDTH 13 0
BBX 11 11 0 -2
BITMAP
0080
0300
7CA0
04A0
0400
FFE0
0400
0400
0400
0800
3000
ENDCHAR
STARTCHAR U+30C3
ENCODING 12483
SWIDTH 481 0
DWIDTH 13 0
BBX 7 7 2 -2
BITMAP
22
92
42
04
04
08
30
ENDCHAR
STARTCHAR U+30C4
ENCODING 12484
SWIDTH 481 0
DWIDTH 13 0
BBX 9 10 1 -2
BITMAP
1000
8800
4880
4080
0080
0100
0100
0200
0C00
3000
ENDCHAR
STARTCHAR U+30C5
ENCODING 12485
SWIDTH 481 0
DWIDTH 13 0
BBX 10 11 1 -2
BITMAP
0140
1140
8800
4880
4080
0080
0100
0100
0200
0C00
3000
ENDCHAR
STARTCHAR U+30C6
ENCODING 12486
SWIDTH 481 0
DWIDTH 13 0
BBX 10 10 1 -2
BITMAP
7F80
0000
0000
FFC0
0400
0400
0400
0400
0800
3000
ENDCHAR
STARTCHAR U+30C7
ENCODING 12487
SWIDTH 481 0
DWIDTH 13 0
BBX 11 11 0 -2
BITMAP
00A0
7EA0
0000
0000
FFC0
0400
0400
0400
0400
0800
3000
ENDCHAR
STARTCHAR U+30C8
ENCODING 12488
SWIDTH 481 0
DWIDTH 13 0
BBX 5 11 4 -2
BITMAP
80
80
80
80
E0
98
80
80
80
80
80
ENDCHAR
STARTCHAR U+30C9
ENCODING 12489
SWIDTH 481 0
DWIDTH 13 0
BBX 6 11 4 -2
BITMAP
80
94
94
80
E0
98
80
80
80
80
80
ENDCHAR
STARTCHAR U+30CA
ENCODING 12490
SWIDTH 481 0
DWIDTH 13 0
BBX 10 10 0 -2
BITMAP
0400
0400
0400
FFC0
0400
0400
0800
0800
1000
6000
ENDCHAR
STARTCHAR U+30CB
ENCODING 12491
SWIDTH 481 0
DWIDTH 13 0
BBX 10 8 1 -1
BITMAP
7F80
0000
0000
0000
0000
0000
0000
FFC0
ENDCHAR
STARTCHAR U+30CC
ENCODING 12492
SWIDTH 481 0
DWIDTH 13 0
BBX 9 10 1 -2
BITMAP
7F80
0080
0080
3100
0D00
0200
0500
0880
3000
C000
ENDCHAR
STARTCHAR U+30CD
ENCODING 12493
SWIDTH 481 0
DWIDTH 13 0
BBX 10 11 0 -2
BITMAP
0400
0400
7F80
0100
0200
0400
1D80
E440
0400
0400
0400
ENDCHAR
STARTCHAR U+30CE
ENCODING 12494
SWIDTH 481 0
DWIDTH 13 0
BBX 7 9 1 -1
BITMAP
02
02
02
04
04
08
10
20
C0
ENDCHAR
STARTCHAR U+30CF
ENCODING 12495
SWIDTH 481 0
DWIDTH 13 0
BBX 10 8 0 -1
BITMAP
2100
2080
2080
2040
2040
4040
4040
8040
ENDCHAR
STARTCHAR U+30D0
ENCODING 12496
SWIDTH 481 0
DWIDTH 13 0
BBX 11 10 0 -1
BITMAP
00A0
00A0
2000
2100
2080
2080
2040
4040
4040
8040
ENDCHAR
STARTCHAR U+30D1
ENCODING 12497
SWIDTH 481 0
DWIDTH 13 0
BBX 11 10 0 -1
BITMAP
0040
00A0
2040
2100
2080
2080
2040
4040
4040
8040
ENDCHAR
STARTCHAR U+30D2
ENCODING 12498
SWIDTH 481 0
DWIDTH 13 0
BBX 8 10 2 -2
BITMAP
80
80
87
F8
80
80
80
80
80
7F
ENDCHAR
STARTCHAR U+30D3
ENCODING 12499
SWIDTH 481 0
DWIDTH 13 0
BBX 9 11 2 -2
BITMAP
0280
8280
8000
8700
F800
8000
8000
8000
8000
8000
7F00
ENDCHAR
STARTCHAR U+30D4
ENCODING 12500
SWIDTH 481 0
DWIDTH 13 0
BBX 9 11 2 -2
BITMAP
0100
8280
8100
8600
F800
8000
8000
8000
8000
8000
7F00
ENDCHAR
STARTCHAR U+30D5
ENCODING 12501
SWIDTH 481 0
DWIDTH 13 0
BBX 9 9 1 -2
BITMAP
FF80
0080
0080
0080
0100
0100
0200
0C00
7000
ENDCHAR
STARTCHAR U+30D6
ENCODING 12502
SWIDTH 481 0
DWIDTH 13 0
BBX 10 11 1 -2
BITMAP
0140
0140
0000
FF80
0080
0080
0100
0100
0200
0C00
7000
ENDCHAR
STARTCHAR U+30D7
ENCODING 12503
SWIDTH 481 0
DWIDTH 13 0
BBX 10 11 1 -2
BITMAP
0080
0140
0080
FF80
0080
0080
0100
0100
0200
0C00
7000
ENDCHAR
STARTCHAR U+30D8
ENCODING 12504
SWIDTH 481 0
DWIDTH 13 0
BBX 10 6 0 0
BITMAP
1800
2400
4200
8100
0080
0040
ENDCHAR
STARTCHAR U+30D9
ENCODING 12505
SWIDTH 481 0
DWIDTH 13 0
BBX 10 7 0 0
BITMAP
0140
1940
2400
4200
8100
0080
0040
ENDCHAR
STARTCHAR U+30DA
ENCODING 12506
SWIDTH 481 0
DWIDTH 13 0
BBX 10 7 0 0
BITMAP
0080
1940
2480
4200
8100
0080
0040
ENDCHAR
STARTCHAR U+30DB
ENCODING 12507
SWIDTH 481 0
DWIDTH 13 0
BBX 9 11 1 -2
BITMAP
0800
0800
FF80
0800
0800
2A00
2900
4880
8880
0800
0800
ENDCHAR
STARTCHAR U+30DC
ENCODING 12508
SWIDTH 481 0
DWIDTH 13 0
BBX 10 11 1 -2
BITMAP
0940
0940
0800
FF80
0800
2A00
2900
4880
8880
0800
0800
ENDCHAR
STARTCHAR U+30DD
ENCODING 12509
SWIDTH 481 0
DWIDTH 13 0
BBX 10 11 1 -2
BITMAP
0880
0940
0880
FF80
0800
2A00
2900
4880
8880
0800
0800
ENDCHAR
STARTCHAR U+30DE
ENCODING 12510
SWIDTH 481 0
DWIDTH 13 0
BBX 10 9 0 -2
BITMAP
FFC0
0040
0080
0100
2200
1400
0800
0400
0400
ENDCHAR
STARTCHAR U+30DF
ENCODING 12511
SWIDTH 481 0
DWIDTH 13 0
BBX 7 9 2 -1
BITMAP
78
06
00
70
0C
00
00
F0
0E
ENDCHAR
STARTCHAR U+30E0
ENCODING 12512
SWIDTH 481 0
DWIDTH 13 0
BBX 11 10 0 -2
BITMAP
0800
0800
0800
1000
1080
1080
2040
23C0
FC20
0020
ENDCHAR
STARTCHAR U+30E1
ENCODING 12513
SWIDTH 481 0
DWIDTH 13 0
BBX 8 10 1 -2
BITMAP
01
01
01
62
1A
04
0A
11
20
C0
ENDCHAR
STARTCHAR U+30E2
ENCODING 12514
SWIDTH 481 0
DWIDTH 13 0
BBX 10 10 1 -2
BITMAP
7F80
0800
0800
0800
FFC0
0800
0800
0800
0800
0780
ENDCHAR
STARTCHAR U+30E3
ENCODING 12515
SWIDTH 481 0
DWIDTH 13 0
BBX 7 8 2 -2
BITMAP
20
20
3E
E2
24
10
10
10
ENDCHAR
STARTCHAR U+30E4
ENCODING 12516
SWIDTH 481 0
DWIDTH 13 0
BBX 11 11 0 -2
BITMAP
1000
1000
1FE0
F020
0840
0880
0800
0400
0400
0400
0400
ENDCHAR
STARTCHAR U+30E5
ENCODING 12517
SWIDTH 481 0
DWIDTH 13 0
BBX 8 5 1 -1
BITMAP
7C
04
04
04
FF
ENDCHAR
STARTCHAR U+30E6
ENCODING 12518
SWIDTH 481 0
DWIDTH 13 0
BBX 11 8 0 -1
BITMAP
3F80
0080
0080
0080
0100
0100
0100
FFE0
ENDCHAR
STARTCHAR U+30E7
ENCODING 12519
SWIDTH 481 0
DWIDTH 13 0
BBX 6 7 3 -2
BITMAP
FC
04
FC
04
04
FC
04
ENDCHAR
STARTCHAR U+30E8
ENCODING 12520
SWIDTH 481 0
DWIDTH 13 0
BBX 8 9 2 -2
BITMAP
FF
01
01
FF
01
01
01
FF
01
ENDCHAR
STARTCHAR U+30E9
ENCODING 12521
SWIDTH 481 0
DWIDTH 13 0
BBX 9 10 1 -2
BITMAP
7F00
0000
0000
FF80
0080
0080
0100
0100
0600
3800
ENDCHAR
STARTCHAR U+30EA
ENCODING 12522
SWIDTH 481 0
DWIDTH 13 0
BBX 7 10 2 -2
BITMAP
82
82
82
82
82
82
84
04
18
60
ENDCHAR
STARTCHAR U+30EB
ENCODING 12523
SWIDTH 481 0
DWIDTH 13 0
BBX 11 10 0 -2
BITMAP
0400
2400
2400
2400
2420
2420
2440
4480
4500
8600
ENDCHAR
STARTCHAR U+30EC
ENCODING 12524
SWIDTH 481 0
DWIDTH 13 0
BBX 8 10 3 -2
BITMAP
80
80
80
80
81
81
82
84
98
E0
ENDCHAR
STARTCHAR U+30ED
ENCODING 12525
SWIDTH 481 0
DWIDTH 13 0
BBX 9 9 1 -1
BITMAP
FF80
8080
8080
8080
8080
8080
8080
FF80
8080
ENDCHAR
STARTCHAR U+30EE
ENCODING 12526
SWIDTH 481 0
DWIDTH 13 0
BBX 7 7 2 -2
BITMAP
FE
82
82
82
04
08
30
ENDCHAR
STARTCHAR U+30EF
ENCODING 12527
SWIDTH 481 0
DWIDTH 13 0
BBX 9 10 1 -2
BITMAP
FF80
8080
8080
8080
8080
0100
0100
0200
0C00
3000
ENDCHAR
STARTCHAR U+30F0
ENCODING 12528
SWIDTH 481 0
DWIDTH 13 0
BBX 11 11 0 -2
BITMAP
0200
0200
7FC0
2200
2200
2200
FFE0
0200
0200
0200
0200
ENDCHAR
STARTCHAR U+30F1
ENCODING 12529
SWIDTH 481 0
DWIDTH 13 0
BBX 11 8 0 -1
BITMAP
7FC0
0080
0100
0600
0400
0400
0400
FFE0
ENDCHAR
STARTCHAR U+30F2
ENCODING 12530
SWIDTH 481 0
DWIDTH 13 0
BBX 8 10 2 -2
BITMAP
FF
01
01
FF
01
02
02
04
18
60
ENDCHAR
STARTCHAR U+30F3
ENCODING 12531
SWIDTH 481 0
DWIDTH 13 0
BBX 9 10 1 -2
BITMAP
C000
2000
0080
0080
0080
0100
0200
0400
1800
E000
ENDCHAR
STARTCHAR U+30F4
ENCODING 12532
SWIDTH 481 0
DWIDTH 13 0
BBX 10 11 1 -2
BITMAP
0140
0940
0800
FF80
8080
8080
8080
0100
0100
0600
3800
ENDCHAR
STARTCHAR U+30F5
ENCODING 12533
SWIDTH 481 0
DWIDTH 13 0
BBX 7 8 2 -2
BITMAP
20
20
FE
22
22
22
42
8C
ENDCHAR
STARTCHAR U+30F6
ENCODING 12534
SWIDTH 481 0
DWIDTH 13 0
BBX 7 8 2 -2
BITMAP
40
40
7E
88
88
08
10
20
ENDCHAR
STARTCHAR U+30FB
ENCODING 12539
SWIDTH 481 0
DWIDTH 13 0
BBX 2 2 4 3
BITMAP
C0
C0
ENDCHAR
STARTCHAR U+30FC
ENCODING 12540
SWIDTH 481 0
DWIDTH 13 0
BBX 9 2 1 3
BITMAP
8000
7F80
ENDCHAR
STARTCHAR U+30FD
ENCODING 12541
SWIDTH 481 0
DWIDTH 13 0
BBX 4 5 3 1
BITMAP
80
40
20
10
10
ENDCHAR
STARTCHAR U+30FE
ENCODING 12542
SWIDTH 481 0
DWIDTH 13 0
BBX 6 7 3 1
BITMAP
08
24
90
40
20
10
10
ENDCHAR
STARTCHAR U+3105
ENCODING 12549
SWIDTH 481 0
DWIDTH 13 0
BBX 8 10 2 -1
BITMAP
40
40
FF
01
01
01
01
02
0A
04
ENDCHAR
STARTCHAR U+3106
ENCODING 12550
SWIDTH 481 0
DWIDTH 13 0
BBX 9 10 2 -2
BITMAP
1000
1000
2000
7F80
0100
3200
0C00
0A00
3100
C100
ENDCHAR
STARTCHAR U+3107
ENCODING 12551
SWIDTH 481 0
DWIDTH 13 0
BBX 8 8 2 -1
BITMAP
FF
81
81
81
81
81
81
81
ENDCHAR
STARTCHAR U+3108
ENCODING 12552
SWIDTH 481 0
DWIDTH 13 0
BBX 10 8 1 -1
BITMAP
FFC0
4000
4000
4000
4000
4000
4000
7FC0
ENDCHAR
STARTCHAR U+3109
ENCODING 12553
SWIDTH 481 0
DWIDTH 13 0
BBX 9 10 2 -2
BITMAP
2000
2000
4000
FF80
0880
0880
1080
1100
2500
C200
ENDCHAR
STARTCHAR U+310A
ENCODING 12554
SWIDTH 481 0
DWIDTH 13 0
BBX 10 9 1 -1
BITMAP
0800
0800
FFC0
1000
1000
2400
2200
4F00
F100
ENDCHAR
STARTCHAR U+310B
ENCODING 12555
SWIDTH 481 0
DWIDTH 13 0
BBX 8 9 2 -2
BITMAP
FC
08
10
3F
01
02
02
14
08
ENDCHAR
STARTCHAR U+310C
ENCODING 12556
SWIDTH 481 0
DWIDTH 13 0
BBX 9 10 2 -1
BITMAP
0800
4800
4800
FF80
0880
0880
1080
1100
2500
C200
ENDCHAR
STARTCHAR U+310D
ENCODING 12557
SWIDTH 481 0
DWIDTH 13 0
BBX 7 9 3 -2
BITMAP
22
22
44
44
88
44
44
22
22
ENDCHAR
STARTCHAR U+310E
ENCODING 12558
SWIDTH 481 0
DWIDTH 13 0
BBX 9 10 2 -2
BITMAP
FF80
0800
1000
2000
7F00
0100
0100
0200
0A00
0400
ENDCHAR
STARTCHAR U+310F
ENCODING 12559
SWIDTH 481 0
DWIDTH 13 0
BBX 10 9 1 -2
BITMAP
3FC0
2000
2000
2000
2000
2000
2000
4000
8000
ENDCHAR
STARTCHAR U+3110
ENCODING 12560
SWIDTH 481 0
DWIDTH 13 0
BBX 5 10 4 -2
BITMAP
08
88
88
88
98
E8
88
08
08
08
ENDCHAR
STARTCHAR U+3111
ENCODING 12561
SWIDTH 481 0
DWIDTH 13 0
BBX 5 10 4 -2
BITMAP
10
10
20
40
80
80
40
20
10
08
ENDCHAR
STARTCHAR U+3112
ENCODING 12562
SWIDTH 481 0
DWIDTH 13 0
BBX 9 9 2 -2
BITMAP
FF80
0800
0800
0800
0800
0800
0800
0800
0800
ENDCHAR
STARTCHAR U+3113
ENCODING 12563
SWIDTH 481 0
DWIDTH 13 0
BBX 10 10 1 -1
BITMAP
0800
0800
4900
4900
4900
4900
7F00
0800
0800
FFC0
ENDCHAR
STARTCHAR U+3114
ENCODING 12564
SWIDTH 481 0
DWIDTH 13 0
BBX 6 10 3 -2
BITMAP
08
10
64
08
30
D0
10
10
10
10
ENDCHAR
STARTCHAR U+3115
ENCODING 12565
SWIDTH 481 0
DWIDTH 13 0
BBX 9 10 2 -2
BITMAP
3F80
0080
0080
3F80
2000
2000
2000
2000
4000
8000
ENDCHAR
STARTCHAR U+3116
ENCODING 12566
SWIDTH 481 0
DWIDTH 13 0
BBX 6 8 3 -1
BITMAP
FC
84
84
A4
94
84
84
FC
ENDCHAR
STARTCHAR U+3117
ENCODING 12567
SWIDTH 481 0
DWIDTH 13 0
BBX 8 10 2 -2
BITMAP
FF
11
11
11
11
15
12
10
10
10
ENDCHAR
STARTCHAR U+3118
ENCODING 12568
SWIDTH 481 0
DWIDTH 13 0
BBX 9 11 2 -2
BITMAP
0800
0800
FF80
1000
1000
3F00
0200
0200
0400
0400
0800
ENDCHAR
STARTCHAR U+3119
ENCODING 12569
SWIDTH 481 0
DWIDTH 13 0
BBX 9 8 2 -1
BITMAP
0800
0800
1000
1000
2200
2100
4F80
F080
ENDCHAR
STARTCHAR U+311A
ENCODING 12570
SWIDTH 481 0
DWIDTH 13 0
BBX 9 10 2 -2
BITMAP
8080
4100
2200
1400
0800
0800
0800
0800
0800
0800
ENDCHAR
STARTCHAR U+311B
ENCODING 12571
SWIDTH 481 0
DWIDTH 13 0
BBX 10 9 1 -2
BITMAP
FFC0
0400
0400
7C00
4000
4000
4000
4000
7F80
ENDCHAR
STARTCHAR U+311C
ENCODING 12572
SWIDTH 481 0
DWIDTH 13 0
BBX 10 10 1 -2
BITMAP
0400
0400
FFC0
0400
0400
7C00
4000
4000
4000
7F80
ENDCHAR
STARTCHAR U+311D
ENCODING 12573
SWIDTH 481 0
DWIDTH 13 0
BBX 11 11 1 -2
BITMAP
0100
1100
1100
1100
FFE0
1100
1100
1200
1200
1000
1F80
ENDCHAR
STARTCHAR U+311E
ENCODING 12574
SWIDTH 481 0
DWIDTH 13 0
BBX 10 10 1 -2
BITMAP
7FC0
2200
2200
4400
FFC0
0440
0880
0880
1100
6200
ENDCHAR
STARTCHAR U+311F
ENCODING 12575
SWIDTH 481 0
DWIDTH 13 0
BBX 8 10 2 -2
BITMAP
30
D0
10
10
10
10
08
08
04
03
ENDCHAR
STARTCHAR U+3120
ENCODING 12576
SWIDTH 481 0
DWIDTH 13 0
BBX 8 9 2 -1
BITMAP
10
22
42
E4
18
10
22
4F
F1
ENDCHAR
STARTCHAR U+3121
ENCODING 12577
SWIDTH 481 0
DWIDTH 13 0
BBX 9 9 2 -2
BITMAP
7F80
0080
1100
0A00
0400
0A00
1100
2100
C000
ENDCHAR
STARTCHAR U+3122
ENCODING 12578
SWIDTH 481 0
DWIDTH 13 0
BBX 9 10 2 -2
BITMAP
FF00
0100
2100
2200
2200
7F80
0080
0100
0100
0200
ENDCHAR
STARTCHAR U+3123
ENCODING 12579
SWIDTH 481 0
DWIDTH 13 0
BBX 8 10 2 -2
BITMAP
80
80
80
80
FF
01
01
02
02
04
ENDCHAR
STARTCHAR U+3124
ENCODING 12580
SWIDTH 481 0
DWIDTH 13 0
BBX 11 10 1 -2
BITMAP
0800
0800
7FC0
0A00
0A00
0A00
0A00
1200
2200
C1E0
ENDCHAR
STARTCHAR U+3125
ENCODING 12581
SWIDTH 481 0
DWIDTH 13 0
BBX 9 9 2 -1
BITMAP
0800
0800
0800
1000
1000
2000
2000
4000
FF80
ENDCHAR
STARTCHAR U+3126
ENCODING 12582
SWIDTH 481 0
DWIDTH 13 0
BBX 11 10 1 -2
BITMAP
1200
1200
1200
1200
1200
1200
1200
2220
4220
81C0
ENDCHAR
STARTCHAR U+3127
ENCODING 12583
SWIDTH 481 0
DWIDTH 13 0
BBX 10 1 1 3
BITMAP
FFC0
ENDCHAR
STARTCHAR U+3128
ENCODING 12584
SWIDTH 481 0
DWIDTH 13 0
BBX 9 10 2 -2
BITMAP
0080
0100
6100
1200
0C00
0400
0A00
1100
2080
C080
ENDCHAR
STARTCHAR U+3129
ENCODING 12585
SWIDTH 481 0
DWIDTH 13 0
BBX 9 10 2 -2
BITMAP
0080
8080
8080
8080
8080
8080
8080
8080
FF80
0080
ENDCHAR
STARTCHAR U+3231
ENCODING 12849
SWIDTH 481 0
DWIDTH 13 0
BBX 11 11 0 -2
BITMAP
2080
5140
9520
F7E0
9120
B7E0
B920
D3A0
9560
5140
2080
ENDCHAR
STARTCHAR U+3232
ENCODING 12850
SWIDTH 481 0
DWIDTH 13 0
BBX 11 11 0 -2
BITMAP
2080
4440
BFA0
8820
8F20
9920
AF20
8920
8F20
4940
2080
ENDCHAR
STARTCHAR U+3239
ENCODING 12857
SWIDTH 481 0
DWIDTH 13 0
BBX 11 11 0 -2
BITMAP
2080
4A40
8AA0
9220
9FA0
B220
D220
9220
9120
5140
2080
ENDCHAR
STARTCHAR U+32A3
ENCODING 12963
SWIDTH 481 0
DWIDTH 13 0
BBX 11 11 0 -2
BITMAP
1F00
2080
5F40
8420
9420
9720
9420
BFA0
4040
2080
1F00
ENDCHAR
STARTCHAR U+32A4
ENCODING 12964
SWIDTH 481 0
DWIDTH 13 0
BBX 11 11 0 -2
BITMAP
0E00
3180
4440
4440
8720
8420
8420
7FC0
4040
3180
0E00
ENDCHAR
STARTCHAR U+32A5
ENCODING 12965
SWIDTH 481 0
DWIDTH 13 0
BBX 11 11 0 -2
BITMAP
0E00
3180
4440
7FC0
A4A0
A4A0
BFA0
4440
4440
3180
0E00
ENDCHAR
STARTCHAR U+32A6
ENCODING 12966
SWIDTH 481 0
DWIDTH 13 0
BBX 11 11 0 -2
BITMAP
0E00
3180
4040
7FC0
8420
8620
8520
4440
4440
3180
0E00
ENDCHAR
STARTCHAR U+32A7
ENCODING 12967
SWIDTH 481 0
DWIDTH 13 0
BBX 11 11 0 -2
BITMAP
0E00
3180
4440
7FC0
8820
8F20
9220
6240
4FC0
3180
0E00
ENDCHAR
STARTCHAR U+32A8
ENCODING 12968
SWIDTH 481 0
DWIDTH 13 0
BBX 11 11 0 -2
BITMAP
0E00
3180
4440
7FC0
8820
9020
AF20
4940
4F40
3180
0E00
ENDCHAR
STARTCHAR U+32FF
ENCODING 13055
SWIDTH 481 0
DWIDTH 13 0
BBX 11 11 0 -2
BITMAP
2100
5600
8A00
7700
02E0
FAA0
2BA0
36A0
22A0
22E0
2200
ENDCHAR
STARTCHAR U+337B
ENCODING 13179
SWIDTH 481 0
DWIDTH 13 0
BBX 11 11 0 -2
BITMAP
00A0
FFE0
2480
AC80
ACA0
A4A0
2740
FD40
2540
2BA0
28A0
ENDCHAR
STARTCHAR U+337C
ENCODING 13180
SWIDTH 481 0
DWIDTH 13 0
BBX 11 11 0 -2
BITMAP
7900
2E00
EA00
AF00
AAE0
FAA0
A6A0
BBA0
EAA0
2AE0
3A00
ENDCHAR
STARTCHAR U+337D
ENCODING 13181
SWIDTH 481 0
DWIDTH 13 0
BBX 11 11 0 -2
BITMAP
2000
23E0
2080
F880
2280
22E0
5280
5280
5280
8A80
8BE0
ENDCHAR
STARTCHAR U+337E
ENCODING 13182
SWIDTH 481 0
DWIDTH 13 0
BBX 11 11 0 -2
BITMAP
3840
2A40
E940
B8A0
ACA0
EAE0
B800
A8E0
EAA0
2AA0
4CE0
ENDCHAR
STARTCHAR U+338E
ENCODING 13198
SWIDTH 481 0
DWIDTH 13 0
BBX 11 9 0 -2
BITMAP
51A0
AA40
AA40
A980
A900
A9C0
AA20
0220
01C0
ENDCHAR
STARTCHAR U+338F
ENCODING 13199
SWIDTH 481 0
DWIDTH 13 0
BBX 10 11 0 -2
BITMAP
8000
8000
8340
9480
A480
C300
A200
9380
8440
0440
0380
ENDCHAR
STARTCHAR U+339C
ENCODING 13212
SWIDTH 481 0
DWIDTH 13 0
BBX 11 7 0 0
BITMAP
5140
AAA0
AAA0
AAA0
AAA0
AAA0
AAA0
ENDCHAR
STARTCHAR U+339D
ENCODING 13213
SWIDTH 481 0
DWIDTH 13 0
BBX 10 7 0 0
BITMAP
6280
9540
8540
8540
8540
9540
6540
ENDCHAR
STARTCHAR U+339E
ENCODING 13214
SWIDTH 481 0
DWIDTH 13 0
BBX 10 9 0 0
BITMAP
8000
8000
9280
A540
A540
C540
A540
A540
9540
ENDCHAR
STARTCHAR U+33A1
ENCODING 13217
SWIDTH 481 0
DWIDTH 13 0
BBX 9 9 0 0
BITMAP
0300
0480
5080
A900
AB80
A800
A800
A800
A800
ENDCHAR
STARTCHAR U+33C4
ENCODING 13252
SWIDTH 481 0
DWIDTH 13 0
BBX 11 6 0 0
BITMAP
71C0
8A20
8200
8200
8A20
71C0
ENDCHAR
STARTCHAR U+33CD
ENCODING 13261
SWIDTH 481 0
DWIDTH 13 0
BBX 11 9 0 -1
BITMAP
9240
9240
A280
A280
C300
A280
A280
9240
9660
ENDCHAR
STARTCHAR U+33CE
ENCODING 13262
SWIDTH 481 0
DWIDTH 13 0
BBX 10 9 0 -1
BITMAP
9440
A6C0
A6C0
A6C0
C540
A540
A540
A440
9440
ENDCHAR
STARTCHAR U+33D1
ENCODING 13265
SWIDTH 481 0
DWIDTH 13 0
BBX 7 9 0 0
BITMAP
80
80
AC
92
92
92
92
92
92
ENDCHAR
STARTCHAR U+33D2
ENCODING 13266
SWIDTH 481 0
DWIDTH 13 0
BBX 11 11 0 -2
BITMAP
8000
8000
91A0
AA40
AA40
A980
A900
A9C0
9220
0220
01C0
ENDCHAR
STARTCHAR U+33D5
ENCODING 13269
SWIDTH 481 0
DWIDTH 13 0
BBX 9 9 0 0
BITMAP
0280
0080
5280
AA80
AA80
AA80
AA80
AA80
AA80
ENDCHAR
STARTCHAR U+4E00
ENCODING 19968
SWIDTH 481 0
DWIDTH 13 0
BBX 11 1 0 4
BITMAP
FFE0
ENDCHAR
STARTCHAR U+4E01
ENCODING 19969
SWIDTH 481 0
DWIDTH 13 0
BBX 11 11 0 -2
BITMAP
FFE0
0400
0400
0400
0400
0400
0400
0400
0400
0400
1C00
ENDCHAR
STARTCHAR U+4E02
ENCODING 19970
SWIDTH 481 0
DWIDTH 13 0
BBX 11 10 0 -2
BITMAP
FFE0
0800
0800
1000
1F80
2080
0080
0100
0100
0600
ENDCHAR
STARTCHAR U+4E03
ENCODING 19971
SWIDTH 481 0
DWIDTH 13 0
BBX 11 11 0 -2
BITMAP
2000
2000
20E0
2F00
F000
2000
2000
2000
2020
2020
3FE0
ENDCHAR
STARTCHAR U+4E04
ENCODING 19972
SWIDTH 481 0
DWIDTH 13 0
BBX 11 11 0 -2
BITMAP
0400
0400
0400
0400
0400
0400
0400
0400
0400
0400
FFE0
ENDCHAR
STARTCHAR U+4E05
ENCODING 19973
SWIDTH 481 0
DWIDTH 13 0
BBX 11 11 0 -2
BITMAP
FFE0
0400
0400
0400
0400
0400
0400
0400
0400
0400
0400
ENDCHAR
STARTCHAR U+4E06
ENCODING 19974
SWIDTH 481 0
DWIDTH 13 0
BBX 11 8 0 1
BITMAP
FFE0
0400
0400
0800
0800
1000
2000
4000
ENDCHAR
STARTCHAR U+4E07
ENCODING 19975
SWIDTH 481 0
DWIDTH 13 0
BBX 11 11 0 -2
BITMAP
FFE0
2000
2000
2000
2000
3FC0
2040
2040
4040
4040
83C0
ENDCHAR
STARTCHAR U+4E08
ENCODING 19976
SWIDTH 481 0
DWIDTH 13 0
BBX 11 11 0 -2
BITMAP
0100
0100
FFE0
0100
0100
2100
1200
0A00
0400
1B00
E0E0
ENDCHAR
STARTCHAR U+4E09
ENCODING 19977
SWIDTH 481 0
DWIDTH 13 0
BBX 11 10 0 -2
BITMAP
FFE0
0000
0000
0000
7FC0
0000
0000
0000
0000
FFE0
ENDCHAR
STARTCHAR U+4E0A
ENCODING 19978
SWIDTH 481 0
DWIDTH 13 0
BBX 11 11 0 -2
BITMAP
0400
0400
0400
0400
07C0
0400
0400
0400
0400
0400
FFE0
ENDCHAR
STARTCHAR U+4E0B
ENCODING 19979
SWIDTH 481 0
DWIDTH 13 0
BBX 11 11 0 -2
BITMAP
FFE0
0800
0800
0A00
0900
0880
0840
0800
0800
0800
0800
ENDCHAR
STARTCHAR U+4E0C
ENCODING 19980
SWIDTH 481 0
DWIDTH 13 0
BBX 11 11 0 -2
BITMAP
FFE0
1080
1080
1080
1080
1080
1080
2080
2080
4080
4080
ENDCHAR
STARTCHAR U+4E0D
ENCODING 19981
SWIDTH 481 0
DWIDTH 13 0
BBX 11 11 0 -2
BITMAP
FFE0
0200
0400
0C00
1580
2440
C420
0400
0400
0400
0400
ENDCHAR
STARTCHAR U+4E0E
ENCODING 19982
SWIDTH 481 0
DWIDTH 13 0
BBX 11 11 0 -2
BITMAP
2000
3FC0
2000
4000
7F80
0080
0080
FFE0
0080
0080
0F00
ENDCHAR
STARTCHAR U+4E0F
ENCODING 19983
SWIDTH 481 0
DWIDTH 13 0
BBX 11 11 0 -2
BITMAP
FFE0
0400
0400
47E0
4420
4420
7FE0
0020
0020
0020
03C0
ENDCHAR
STARTCHAR U+4E10
ENCODING 19984
SWIDTH 481 0
DWIDTH 13 0
BBX 11 11 0 -2
BITMAP
FFE0
0400
2400
27C0
4400
7FE0
0020
0020
0020
0020
03C0
ENDCHAR
STARTCHAR U+4E11
ENCODING 19985
SWIDTH 481 0
DWIDTH 13 0
BBX 11 11 0 -2
BITMAP
FF80
0880
0880
0880
0880
FFE0
1080
1080
1080
1080
FFE0
ENDCHAR
STARTCHAR U+4E12
ENCODING 19986
SWIDTH 481 0
DWIDTH 13 0
BBX 11 11 0 -2
BITMAP
FFE0
1020
9020
5020
2020
3020
4820
4420
81E0
0000
FFE0
ENDCHAR
STARTCHAR U+4E13
ENCODING 19987
SWIDTH 481 0
DWIDTH 13 0
BBX 11 11 0 -2
BITMAP
0400
7FC0
0800
0800
FFE0
1000
3F80
0080
0900
0600
0200
ENDCHAR
STARTCHAR U+4E14
ENCODING 19988
SWIDTH 481 0
DWIDTH 13 0
BBX 11 11 0 -2
BITMAP
7FC0
4040
4040
7FC0
4040
4040
7FC0
4040
4040
4040
FFE0
ENDCHAR
STARTCHAR U+4E15
ENCODING 19989
SWIDTH 481 0
DWIDTH 13 0
BBX 11 11 0 -2
BITMAP
FFE0
0200
0400
0C00
1580
2440
C420
0400
0400
0000
FFE0
ENDCHAR
STARTCHAR U+4E16
ENCODING 19990
SWIDTH 481 0
DWIDTH 13 0
BBX 11 11 0 -2
BITMAP
4480
4480
4480
FFE0
4480
4480
4480
4780
4000
4000
7FE0
ENDCHAR
STARTCHAR U+4E17
ENCODING 19991
SWIDTH 481 0
DWIDTH 13 0
BBX 11 11 0 -2
BITMAP
2480
2480
2480
2480
FFE0
2480
2480
2480
2480
2080
FFE0
ENDCHAR
STARTCHAR U+4E18
ENCODING 19992
SWIDTH 481 0
DWIDTH 13 0
BBX 11 11 0 -2
BITMAP
00C0
7F00
4000
4000
4000
7FC0
4100
4100
4100
4100
FFE0
ENDCHAR
STARTCHAR U+4E19
ENCODING 19993
SWIDTH 481 0
DWIDTH 13 0
BBX 11 11 0 -2
BITMAP
FFE0
0400
0400
FFE0
8420
8420
8A20
9120
A0A0
8020
80E0
ENDCHAR
STARTCHAR U+4E1A
ENCODING 19994
SWIDTH 481 0
DWIDTH 13 0
BBX 11 11 0 -2
BITMAP
1100
1100
9120
9120
5120
5140
5140
5140
1100
1100
FFE0
ENDCHAR
STARTCHAR U+4E1B
ENCODING 19995
SWIDTH 481 0
DWIDTH 13 0
BBX 11 11 0 -2
BITMAP
1100
1100
1100
1100
2A80
2A80
4440
4440
8820
0000
FFE0
ENDCHAR
STARTCHAR U+4E1C
ENCODING 19996
SWIDTH 481 0
DWIDTH 13 0
BBX 11 11 0 -2
BITMAP
0400
0800
FFE0
1000
2400
4400
FFE0
0400
2480
4440
8C20
ENDCHAR
STARTCHAR U+4E1D
ENCODING 19997
SWIDTH 481 0
DWIDTH 13 0
BBX 11 11 0 -2
BITMAP
2080
2080
4100
8A20
5140
2080
4100
9A60
E380
0000
FFE0
ENDCHAR
STARTCHAR U+4E1E
ENCODING 19998
SWIDTH 481 0
DWIDTH 13 0
BBX 11 11 0 -2
BITMAP
7F80
0100
0200
F520
1540
2480
2480
4440
8C20
0000
FFE0
ENDCHAR
STARTCHAR U+4E1F
ENCODING 19999
SWIDTH 481 0
DWIDTH 13 0
BBX 11 11 0 -2
BITMAP
03C0
7C00
0400
7FC0
0400
0400
FFE0
0800
1040
2040
7FA0
ENDCHAR
STARTCHAR U+4E20
ENCODING 20000
SWIDTH 481 0
DWIDTH 13 0
BBX 11 11 0 -2
BITMAP
1200
1200
1260
F380
1200
1200
1220
1A20
E3E0
0000
FFE0
ENDCHAR
STARTCHAR U+4E21
ENCODING 20001
SWIDTH 481 0
DWIDTH 13 0
BBX 11 11 0 -2
BITMAP
FFE0
0400
0400
FFE0
8420
A4A0
A4A0
A4A0
BFA0
8020
80E0
ENDCHAR
STARTCHAR U+4E22
ENCODING 20002
SWIDTH 481 0
DWIDTH 13 0
BBX 11 11 0 -2
BITMAP
03C0
7C00
0400
7FC0
0400
0400
FFE0
0800
1040
2040
7FA0
ENDCHAR
STARTCHAR U+4E23
ENCODING 20003
SWIDTH 481 0
DWIDTH 13 0
BBX 11 11 0 -2
BITMAP
FFE0
0A00
7BC0
4A40
4A40
4A40
4A40
7BC0
0A00
1200
1200
ENDCHAR
STARTCHAR U+4E24
ENCODING 20004
SWIDTH 481 0
DWIDTH 13 0
BBX 11 11 0 -2
BITMAP
FFE0
1100
1100
FFE0
9120
9120
9120
AAA0
C460
8020
8060
ENDCHAR
STARTCHAR U+4E25
ENCODING 20005
SWIDTH 481 0
DWIDTH 13 0
BBX 11 11 0 -2
BITMAP
FFE0
1100
9120
5140
1100
7FE0
4000
4000
4000
8000
8000
ENDCHAR
STARTCHAR U+4E26
ENCODING 20006
SWIDTH 481 0
DWIDTH 13 0
BBX 11 11 0 -2
BITMAP
2080
1100
FFE0
1100
1100
9120
5120
5140
1100
1100
FFE0
ENDCHAR
STARTCHAR U+4E27
ENCODING 20007
SWIDTH 481 0
DWIDTH 13 0
BBX 11 11 0 -2
BITMAP
0400
7FC0
0400
2480
1500
FFE0
2200
2220
2140
2C80
7160
ENDCHAR
STARTCHAR U+4E28
ENCODING 20008
SWIDTH 481 0
DWIDTH 13 0
BBX 1 11 6 -2
BITMAP
80
80
80
80
80
80
80
80
80
80
80
ENDCHAR
STARTCHAR U+4E29
ENCODING 20009
SWIDTH 481 0
DWIDTH 13 0
BBX 7 11 2 -2
BITMAP
02
42
42
42
42
42
42
4E
F2
02
02
ENDCHAR
STARTCHAR U+4E2A
ENCODING 20010
SWIDTH 481 0
DWIDTH 13 0
BBX 11 11 0 -2
BITMAP
0400
0A00
1100
2080
C060
0400
0400
0400
0400
0400
0400
ENDCHAR
STARTCHAR U+4E2B
ENCODING 20011
SWIDTH 481 0
DWIDTH 13 0
BBX 9 11 1 -2
BITMAP
8080
4100
2200
1400
0800
0800
0800
0800
0800
0800
0800
ENDCHAR
STARTCHAR U+4E2C
ENCODING 20012
SWIDTH 481 0
DWIDTH 13 0
BBX 7 11 1 -2
BITMAP
42
42
22
22
12
02
06
0A
32
C2
02
ENDCHAR
STARTCHAR U+4E2D
ENCODING 20013
SWIDTH 481 0
DWIDTH 13 0
BBX 11 11 0 -2
BITMAP
0400
0400
FFE0
8420
8420
8420
8420
FFE0
0400
0400
0400
ENDCHAR
STARTCHAR U+4E2E
ENCODING 20014
SWIDTH 481 0
DWIDTH 13 0
BBX 11 11 0 -2
BITMAP
FF80
1080
1080
FE80
1080
1080
FE80
10A0
10A0
10A0
1040
ENDCHAR
STARTCHAR U+4E2F
ENCODING 20015
SWIDTH 481 0
DWIDTH 13 0
BBX 9 11 1 -2
BITMAP
0800
0F80
F800
0800
0F80
F800
0800
0F80
F800
0800
0800
ENDCHAR
STARTCHAR U+4E30
ENCODING 20016
SWIDTH 481 0
DWIDTH 13 0
BBX 11 11 0 -2
BITMAP
0400
FFE0
0400
0400
7FC0
0400
0400
FFE0
0400
0400
0400
ENDCHAR
STARTCHAR U+4E31
ENCODING 20017
SWIDTH 481 0
DWIDTH 13 0
BBX 11 11 0 -2
BITMAP
1100
1100
9120
9120
9120
9120
F1E0
1100
1100
2100
2100
ENDCHAR
STARTCHAR U+4E32
ENCODING 20018
SWIDTH 481 0
DWIDTH 13 0
BBX 11 11 0 -2
BITMAP
0400
FFE0
8420
8420
FFE0
0400
FFE0
8420
8420
FFE0
0400
ENDCHAR
STARTCHAR U+4E33
ENCODING 20019
SWIDTH 481 0
DWIDTH 13 0
BBX 11 11 0 -2
BITMAP
1100
7FC0
5140
7FC0
1100
FFE0
9120
FFE0
1100
2100
4100
ENDCHAR
STARTCHAR U+4E34
ENCODING 20020
SWIDTH 481 0
DWIDTH 13 0
BBX 11 11 0 -2
BITMAP
2400
2400
A7E0
A900
A880
A000
AFE0
A920
2920
2920
2FE0
ENDCHAR
STARTCHAR U+4E35
ENCODING 20021
SWIDTH 481 0
DWIDTH 13 0
BBX 11 11 0 -2
BITMAP
4A40
2A80
FFE0
2080
1100
FFE0
0400
0400
FFE0
0400
0400
ENDCHAR
STARTCHAR U+4E36
ENCODING 20022
SWIDTH 481 0
DWIDTH 13 0
BBX 4 5 4 3
BITMAP
80
40
20
30
10
ENDCHAR
STARTCHAR U+4E37
ENCODING 20023
SWIDTH 481 0
DWIDTH 13 0
BBX 9 5 1 4
BITMAP
8080
8080
4100
4100
2200
ENDCHAR
STARTCHAR U+4E38
ENCODING 20024
SWIDTH 481 0
DWIDTH 13 0
BBX 11 11 0 -2
BITMAP
1000
1000
FF00
1100
1100
D100
3120
2920
2520
4120
81E0
ENDCHAR
STARTCHAR U+4E39
ENCODING 20025
SWIDTH 481 0
DWIDTH 13 0
BBX 11 11 0 -2
BITMAP
7FC0
4040
4840
4440
4240
4040
FFE0
4040
4040
8040
81C0
ENDCHAR
STARTCHAR U+4E3A
ENCODING 20026
SWIDTH 481 0
DWIDTH 13 0
BBX 11 11 0 -2
BITMAP
4800
2800
FFE0
1020
1020
1220
1120
2120
2020
2020
40E0
ENDCHAR
STARTCHAR U+4E3B
ENCODING 20027
SWIDTH 481 0
DWIDTH 13 0
BBX 11 11 0 -2
BITMAP
0800
0400
FFE0
0400
0400
0400
7FC0
0400
0400
0400
FFE0
ENDCHAR
STARTCHAR U+4E3C
ENCODING 20028
SWIDTH 481 0
DWIDTH 13 0
BBX 11 11 0 -2
BITMAP
2080
2080
FFE0
2080
2880
2480
2080
FFE0
2080
4080
8080
ENDCHAR
STARTCHAR U+4E3D
ENCODING 20029
SWIDTH 481 0
DWIDTH 13 0
BBX 11 11 0 -2
BITMAP
FFE0
0000
0000
FBE0
8A20
8A20
CB20
AAA0
8A20
8A20
9A60
ENDCHAR
STARTCHAR U+4E3E
ENCODING 20030
SWIDTH 481 0
DWIDTH 13 0
BBX 11 11 0 -2
BITMAP
4840
2480
FFE0
1100
2480
C460
3F80
0400
FFE0
0400
0400
ENDCHAR
STARTCHAR U+4E3F
ENCODING 20031
SWIDTH 481 0
DWIDTH 13 0
BBX 5 11 2 -2
BITMAP
08
08
08
08
10
10
10
20
20
40
80
ENDCHAR
STARTCHAR U+4E40
ENCODING 20032
SWIDTH 481 0
DWIDTH 13 0
BBX 5 11 5 -2
BITMAP
80
80
80
80
40
40
40
20
20
10
08
ENDCHAR
STARTCHAR U+4E41
ENCODING 20033
SWIDTH 481 0
DWIDTH 13 0
BBX 8 11 2 -2
BITMAP
F0
10
10
10
08
08
08
04
04
02
01
ENDCHAR
STARTCHAR U+4E42
ENCODING 20034
SWIDTH 481 0
DWIDTH 13 0
BBX 9 11 1 -2
BITMAP
4000
4080
4080
2100
2100
1200
1400
0800
1400
2200
C180
ENDCHAR
STARTCHAR U+4E43
ENCODING 20035
SWIDTH 481 0
DWIDTH 13 0
BBX 11 11 0 -2
BITMAP
FFC0
1080
1080
1100
11E0
2020
2020
2020
4020
4020
81E0
ENDCHAR
STARTCHAR U+4E44
ENCODING 20036
SWIDTH 481 0
DWIDTH 13 0
BBX 8 9 1 -1
BITMAP
01
01
02
3A
04
0A
91
A0
40
ENDCHAR
STARTCHAR U+4E45
ENCODING 20037
SWIDTH 481 0
DWIDTH 13 0
BBX 11 11 0 -2
BITMAP
1000
1F80
2080
4100
8100
0200
0400
0A00
1100
2080
C060
ENDCHAR
STARTCHAR U+4E46
ENCODING 20038
SWIDTH 481 0
DWIDTH 13 0
BBX 9 11 1 -2
BITMAP
1100
1100
2100
2200
4200
6400
1400
0800
1400
2200
C180
ENDCHAR
STARTCHAR U+4E47
ENCODING 20039
SWIDTH 481 0
DWIDTH 13 0
BBX 11 11 0 -2
BITMAP
03C0
7C00
0400
0400
07E0
FC00
0400
0400
0420
0420
07E0
ENDCHAR
STARTCHAR U+4E48
ENCODING 20040
SWIDTH 481 0
DWIDTH 13 0
BBX 11 11 0 -2
BITMAP
0800
0900
1100
2200
4200
0400
0800
1040
2040
43E0
FC20
ENDCHAR
STARTCHAR U+4E49
ENCODING 20041
SWIDTH 481 0
DWIDTH 13 0
BBX 11 11 0 -2
BITMAP
4840
4440
4440
4040
2080
2080
1100
0A00
0400
1B00
E0E0
ENDCHAR
STARTCHAR U+4E4A
ENCODING 20042
SWIDTH 481 0
DWIDTH 13 0
BBX 9 6 1 3
BITMAP
0780
F800
0000
4100
2100
2200
ENDCHAR
STARTCHAR U+4E4B
ENCODING 20043
SWIDTH 481 0
DWIDTH 13 0
BBX 11 11 0 -2
BITMAP
0400
0400
FFC0
0040
0080
0100
0200
0C00
3000
4C00
83E0
ENDCHAR
STARTCHAR U+4E4C
ENCODING 20044
SWIDTH 481 0
DWIDTH 13 0
BBX 11 11 0 -2
BITMAP
0800
7FC0
4040
4240
41C0
4000
7FE0
0020
FFA0
0020
01E0
ENDCHAR
STARTCHAR U+4E4D
ENCODING 20045
SWIDTH 481 0
DWIDTH 13 0
BBX 11 11 0 -2
BITMAP
2000
3FE0
4800
4800
8FE0
0800
0800
0FE0
0800
0800
0800
ENDCHAR
STARTCHAR U+4E4E
ENCODING 20046
SWIDTH 481 0
DWIDTH 13 0
BBX 11 11 0 -2
BITMAP
00C0
7F00
0400
4440
2480
0400
FFE0
0400
0400
0400
1C00
ENDCHAR
STARTCHAR U+4E4F
ENCODING 20047
SWIDTH 481 0
DWIDTH 13 0
BBX 11 11 0 -2
BITMAP
00C0
FF00
0800
0400
FFC0
0040
0180
0600
0800
3000
CFE0
ENDCHAR
STARTCHAR U+4E50
ENCODING 20048
SWIDTH 481 0
DWIDTH 13 0
BBX 11 11 0 -2
BITMAP
01C0
7E00
4000
4400
4400
FFE0
0400
0400
2480
4440
8C20
ENDCHAR
STARTCHAR U+4E51
ENCODING 20049
SWIDTH 481 0
DWIDTH 13 0
BBX 9 11 1 -2
BITMAP
0380
FC00
0880
2900
4A00
8C00
2A00
4900
8880
0800
0800
ENDCHAR
STARTCHAR U+4E52
ENCODING 20050
SWIDTH 481 0
DWIDTH 13 0
BBX 11 11 0 -2
BITMAP
01C0
7E00
4000
7FC0
4080
4080
4080
FFE0
1000
2000
C000
ENDCHAR
STARTCHAR U+4E53
ENCODING 20051
SWIDTH 481 0
DWIDTH 13 0
BBX 11 11 0 -2
BITMAP
01C0
7E00
4000
7FC0
4080
4080
4080
FFE0
0100
0080
0060
ENDCHAR
STARTCHAR U+4E54
ENCODING 20052
SWIDTH 481 0
DWIDTH 13 0
BBX 11 11 0 -2
BITMAP
0380
3C00
0400
FFE0
1100
2080
D160
1100
1100
2100
2100
ENDCHAR
STARTCHAR U+4E55
ENCODING 20053
SWIDTH 481 0
DWIDTH 13 0
BBX 11 11 0 -2
BITMAP
7FE0
4200
7FE0
4200
7FE0
4200
5FC0
5240
5240
92C0
8200
ENDCHAR
STARTCHAR U+4E56
ENCODING 20054
SWIDTH 481 0
DWIDTH 13 0
BBX 11 11 0 -2
BITMAP
00C0
7F00
0400
FFE0
0400
1520
F5C0
1500
3520
D5E0
0400
ENDCHAR
STARTCHAR U+4E57
ENCODING 20055
SWIDTH 481 0
DWIDTH 13 0
BBX 11 11 0 -2
BITMAP
00C0
7F00
0400
7FC0
2480
FFE0
2480
7FC0
1500
2480
C460
ENDCHAR
STARTCHAR U+4E58
ENCODING 20056
SWIDTH 481 0
DWIDTH 13 0
BBX 11 11 0 -2
BITMAP
00C0
7F00
0400
FFE0
1540
F580
1520
F5E0
0E00
3580
C460
ENDCHAR
STARTCHAR U+4E59
ENCODING 20057
SWIDTH 481 0
DWIDTH 13 0
BBX 11 11 0 -2
BITMAP
FFC0
0180
0200
0400
0800
1000
2000
4020
8020
8020
7FC0
ENDCHAR
STARTCHAR U+4E5A
ENCODING 20058
SWIDTH 481 0
DWIDTH 13 0
BBX 8 11 3 -2
BITMAP
80
80
80
80
80
80
80
80
81
81
FF
ENDCHAR
STARTCHAR U+4E5B
ENCODING 20059
SWIDTH 481 0
DWIDTH 13 0
BBX 10 3 1 6
BITMAP
FFC0
0040
0080
ENDCHAR
STARTCHAR U+4E5C
ENCODING 20060
SWIDTH 481 0
DWIDTH 13 0
BBX 11 11 0 -2
BITMAP
2000
20C0
2740
3840
E040
2080
2080
2000
2020
2020
3FE0
ENDCHAR
STARTCHAR U+4E5D
ENCODING 20061
SWIDTH 481 0
DWIDTH 13 0
BBX 11 11 0 -2
BITMAP
1000
1000
FF00
1100
1100
1100
1120
2120
2120
4120
81E0
ENDCHAR
STARTCHAR U+4E5E
ENCODING 20062
SWIDTH 481 0
DWIDTH 13 0
BBX 11 11 0 -2
BITMAP
2000
3FE0
4000
8000
3FC0
0180
0600
1800
2020
4020
3FE0
ENDCHAR
STARTCHAR U+4E5F
ENCODING 20063
SWIDTH 481 0
DWIDTH 13 0
BBX 11 11 0 -2
BITMAP
0200
2200
22C0
2F40
F240
2240
22C0
2200
2020
2020
3FE0
ENDCHAR
STARTCHAR U+4E60
ENCODING 20064
SWIDTH 481 0
DWIDTH 13 0
BBX 11 11 0 -2
BITMAP
FFE0
0020
2020
1020
0820
0020
0120
0220
0C20
7020
01E0
ENDCHAR
STARTCHAR U+4E61
ENCODING 20065
SWIDTH 481 0
DWIDTH 13 0
BBX 8 11 2 -2
BITMAP
10
20
42
FC
10
20
41
FE
04
18
E0
ENDCHAR
STARTCHAR U+4E62
ENCODING 20066
SWIDTH 481 0
DWIDTH 13 0
BBX 11 11 0 -2
BITMAP
2200
2200
AA00
AA00
AA00
AA00
AA00
AA20
AA20
AA20
FBE0
ENDCHAR
STARTCHAR U+4E63
ENCODING 20067
SWIDTH 481 0
DWIDTH 13 0
BBX 11 11 0 -2
BITMAP
2100
2100
4100
8900
5100
2100
2100
4900
4920
9920
E5E0
ENDCHAR
STARTCHAR U+4E64
ENCODING 20068
SWIDTH 481 0
DWIDTH 13 0
BBX 11 11 0 -2
BITMAP
FFE0
0400
0600
0500
0400
FFE0
00C0
0700
7800
8020
7FE0
ENDCHAR
STARTCHAR U+4E65
ENCODING 20069
SWIDTH 481 0
DWIDTH 13 0
BBX 11 11 0 -2
BITMAP
00E0
FF00
2080
1100
FFE0
0040
0180
0E00
7000
8020
7FE0
ENDCHAR
STARTCHAR U+4E66
ENCODING 20070
SWIDTH 481 0
DWIDTH 13 0
BBX 11 11 0 -2
BITMAP
0880
0840
7FA0
0880
0880
0880
FFE0
0820
0820
0820
08E0
ENDCHAR
STARTCHAR U+4E67
ENCODING 20071
SWIDTH 481 0
DWIDTH 13 0
BBX 11 11 0 -2
BITMAP
1200
4A00
2200
0200
FFE0
0200
FFE0
0040
7F80
8020
7FE0
ENDCHAR
STARTCHAR U+4E68
ENCODING 20072
SWIDTH 481 0
DWIDTH 13 0
BBX 11 11 0 -2
BITMAP
2100
2100
4900
4900
F500
0100
FD00
8520
8520
8520
FDE0
ENDCHAR
STARTCHAR U+4E69
ENCODING 20073
SWIDTH 481 0
DWIDTH 13 0
BBX 11 11 0 -2
BITMAP
2200
2200
3A00
2200
2200
2200
FA00
8A20
8A20
8A20
FBE0
ENDCHAR
STARTCHAR U+4E6A
ENCODING 20074
SWIDTH 481 0
DWIDTH 13 0
BBX 11 11 0 -2
BITMAP
FFC0
0D40
1540
2540
27C0
4540
4540
8540
87C0
8020
7FE0
ENDCHAR
STARTCHAR U+4E6B
ENCODING 20075
SWIDTH 481 0
DWIDTH 13 0
BBX 11 12 0 -3
BITMAP
2000
FDE0
2520
2520
45E0
9800
0000
7F80
0180
0E00
3000
7FE0
ENDCHAR
STARTCHAR U+4E6C
ENCODING 20076
SWIDTH 481 0
DWIDTH 13 0
BBX 11 11 0 -2
BITMAP
7FC0
4000
7F80
4080
7F80
4000
FFC0
0600
3800
C020
3FE0
ENDCHAR
STARTCHAR U+4E6D
ENCODING 20077
SWIDTH 481 0
DWIDTH 13 0
BBX 11 11 0 -2
BITMAP
FFE0
1000
3FC0
E040
3FC0
0000
7FC0
0180
0E00
3000
7FE0
ENDCHAR
STARTCHAR U+4E6E
ENCODING 20078
SWIDTH 481 0
DWIDTH 13 0
BBX 11 11 0 -2
BITMAP
1800
63C0
4A40
5A40
EAC0
1200
FF80
0600
1800
6020
3FE0
ENDCHAR
STARTCHAR U+4E6F
ENCODING 20079
SWIDTH 481 0
DWIDTH 13 0
BBX 11 11 0 -2
BITMAP
03C0
7C80
2500
FFE0
0400
0C00
7F80
0600
1800
6020
1FE0
ENDCHAR
STARTCHAR U+4E70
ENCODING 20080
SWIDTH 481 0
DWIDTH 13 0
BBX 11 11 0 -2
BITMAP
FFE0
0020
1220
4A00
2200
0200
FFE0
0400
0900
3080
C060
ENDCHAR
STARTCHAR U+4E71
ENCODING 20081
SWIDTH 481 0
DWIDTH 13 0
BBX 11 11 0 -2
BITMAP
1900
E100
2100
2100
F900
2100
2120
F920
8920
8920
F9E0
ENDCHAR
STARTCHAR U+4E72
ENCODING 20082
SWIDTH 481 0
DWIDTH 13 0
BBX 11 11 0 -2
BITMAP
0400
E7E0
0920
2280
CC40
0020
FF00
0C00
3020
4020
3FE0
ENDCHAR
STARTCHAR U+4E73
ENCODING 20083
SWIDTH 481 0
DWIDTH 13 0
BBX 11 11 0 -2
BITMAP
0D00
F100
5500
0100
FD00
0900
1120
FD20
1120
1120
31E0
ENDCHAR
STARTCHAR U+4E74
ENCODING 20084
SWIDTH 481 0
DWIDTH 13 0
BBX 11 11 0 -2
BITMAP
20C0
FB00
2200
3BE0
E280
2480
FE80
0C00
3020
4020
3FE0
ENDCHAR
STARTCHAR U+4E75
ENCODING 20085
SWIDTH 481 0
DWIDTH 13 0
BBX 11 11 0 -2
BITMAP
1080
FE80
4480
4480
FE80
1080
1080
FE80
10A0
10A0
10E0
ENDCHAR
STARTCHAR U+4E76
ENCODING 20086
SWIDTH 481 0
DWIDTH 13 0
BBX 11 11 0 -2
BITMAP
0480
FFE0
4440
7FC0
4440
7FC0
4440
3F80
0700
1800
3FC0
ENDCHAR
STARTCHAR U+4E77
ENCODING 20087
SWIDTH 481 0
DWIDTH 13 0
BBX 11 11 0 -2
BITMAP
4100
2540
8920
5360
0180
4600
BFC0
0180
0600
3800
7FE0
ENDCHAR
STARTCHAR U+4E78
ENCODING 20088
SWIDTH 481 0
DWIDTH 13 0
BBX 11 11 0 -2
BITMAP
1000
13C0
5240
5D40
77E0
D480
5680
5B80
50A0
4120
3FE0
ENDCHAR
STARTCHAR U+4E79
ENCODING 20089
SWIDTH 481 0
DWIDTH 13 0
BBX 11 11 0 -2
BITMAP
2200
FA00
2200
FA00
8A00
FA00
8A00
FA20
2220
FA20
23E0
ENDCHAR
STARTCHAR U+4E7A
ENCODING 20090
SWIDTH 481 0
DWIDTH 13 0
BBX 11 11 0 -2
BITMAP
7860
4380
7A00
4BE0
7A40
8440
FE40
0C00
3000
4020
3FE0
ENDCHAR
STARTCHAR U+4E7B
ENCODING 20091
SWIDTH 481 0
DWIDTH 13 0
BBX 11 11 0 -2
BITMAP
2080
F940
4220
7880
4840
9880
FE40
0400
1820
6020
1FE0
ENDCHAR
STARTCHAR U+4E7C
ENCODING 20092
SWIDTH 481 0
DWIDTH 13 0
BBX 11 11 0 -2
BITMAP
4200
AFC0
4200
2FC0
4200
FFE0
0080
0700
3800
C020
3FE0
ENDCHAR
STARTCHAR U+4E7D
ENCODING 20093
SWIDTH 481 0
DWIDTH 13 0
BBX 11 11 0 -2
BITMAP
0840
7E80
0900
FFE0
1840
6FC0
0840
FFC0
0C00
7020
1FE0
ENDCHAR
STARTCHAR U+4E7E
ENCODING 20094
SWIDTH 481 0
DWIDTH 13 0
BBX 11 11 0 -2
BITMAP
2100
F9E0
2100
FA00
8C00
FBC0
8840
F880
2120
FA20
23E0
ENDCHAR
STARTCHAR U+4E7F
ENCODING 20095
SWIDTH 481 0
DWIDTH 13 0
BBX 11 11 0 -2
BITMAP
0D00
7500
5300
8900
2100
4500
2900
1F00
F320
5520
92E0
ENDCHAR
STARTCHAR U+4E80
ENCODING 20096
SWIDTH 481 0
DWIDTH 13 0
BBX 11 11 0 -2
BITMAP
7F80
8080
7F80
4880
FFC0
8840
FFC0
8840
FFC0
0820
0FE0
ENDCHAR
STARTCHAR U+4E81
ENCODING 20097
SWIDTH 481 0
DWIDTH 13 0
BBX 11 11 0 -2
BITMAP
1080
FC80
10E0
7900
4A00
79E0
4C40
7080
1100
FD20
10E0
ENDCHAR
STARTCHAR U+4E82
ENCODING 20098
SWIDTH 481 0
DWIDTH 13 0
BBX 11 11 0 -2
BITMAP
FE80
5480
FE80
0880
FE80
9280
AAA0
F6A0
AAA0
92A0
AAE0
ENDCHAR
STARTCHAR U+4E83
ENCODING 20099
SWIDTH 481 0
DWIDTH 13 0
BBX 11 11 0 -2
BITMAP
5500
3900
FF00
3900
5500
9100
4500
7F00
D520
3F20
C4E0
ENDCHAR
STARTCHAR U+4E84
ENCODING 20100
SWIDTH 481 0
DWIDTH 13 0
BBX 11 11 0 -2
BITMAP
2100
FD00
2100
FD00
B500
0100
F900
8900
F920
4D20
F0E0
ENDCHAR
STARTCHAR U+4E85
ENCODING 20101
SWIDTH 481 0
DWIDTH 13 0
BBX 3 11 3 -2
BITMAP
20
20
20
20
20
20
20
20
20
20
C0
ENDCHAR
STARTCHAR U+4E86
ENCODING 20102
SWIDTH 481 0
DWIDTH 13 0
BBX 10 11 0 -2
BITMAP
FFC0
0040
0080
0100
0200
0400
0400
0400
0400
0400
1C00
ENDCHAR
STARTCHAR U+4E87
ENCODING 20103
SWIDTH 481 0
DWIDTH 13 0
BBX 11 11 0 -2
BITMAP
2000
3FE0
4020
8440
0400
0400
0400
0400
0400
0400
1C00
ENDCHAR
STARTCHAR U+4E88
ENCODING 20104
SWIDTH 481 0
DWIDTH 13 0
BBX 11 11 0 -2
BITMAP
7FC0
0080
1900
0600
FFE0
0420
0440
0480
0400
0400
1C00
ENDCHAR
STARTCHAR U+4E89
ENCODING 20105
SWIDTH 481 0
DWIDTH 13 0
BBX 11 11 0 -2
BITMAP
4000
7F80
8080
7FC0
0440
FFE0
0440
7FC0
0400
0400
1C00
ENDCHAR
STARTCHAR U+4E8A
ENCODING 20106
SWIDTH 481 0
DWIDTH 13 0
BBX 11 11 0 -2
BITMAP
0400
FFE0
2480
1500
7FC0
0440
FFE0
0440
7FC0
0400
0C00
ENDCHAR
STARTCHAR U+4E8B
ENCODING 20107
SWIDTH 481 0
DWIDTH 13 0
BBX 11 11 0 -2
BITMAP
0400
FFE0
0400
7FC0
4440
7FC0
0440
FFE0
0440
7FC0
0C00
ENDCHAR
STARTCHAR U+4E8C
ENCODING 20108
SWIDTH 481 0
DWIDTH 13 0
BBX 11 9 0 -1
BITMAP
7FC0
0000
0000
0000
0000
0000
0000
0000
FFE0
ENDCHAR
STARTCHAR U+4E8D
ENCODING 20109
SWIDTH 481 0
DWIDTH 13 0
BBX 11 11 0 -2
BITMAP
7FC0
0000
0000
FFE0
0400
0400
0400
0400
0400
0400
1C00
ENDCHAR
STARTCHAR U+4E8E
ENCODING 20110
SWIDTH 481 0
DWIDTH 13 0
BBX 11 11 0 -2
BITMAP
7FC0
0400
0400
0400
0400
FFE0
0400
0400
0400
0400
1C00
ENDCHAR
STARTCHAR U+4E8F
ENCODING 20111
SWIDTH 481 0
DWIDTH 13 0
BBX 11 11 0 -2
BITMAP
3F80
0000
0000
FFE0
1000
2000
7FC0
0040
0080
1900
0600
ENDCHAR
STARTCHAR U+4E90
ENCODING 20112
SWIDTH 481 0
DWIDTH 13 0
BBX 11 11 0 -2
BITMAP
3F80
0400
0800
FFE0
1000
2000
7FC0
0040
0080
1900
0600
ENDCHAR
STARTCHAR U+4E91
ENCODING 20113
SWIDTH 481 0
DWIDTH 13 0
BBX 11 11 0 -2
BITMAP
7FC0
0000
0000
0000
FFE0
0800
0800
1080
1040
21A0
FE20
ENDCHAR
STARTCHAR U+4E92
ENCODING 20114
SWIDTH 481 0
DWIDTH 13 0
BBX 11 11 0 -2
BITMAP
FFE0
2000
2000
7FC0
4040
4040
4040
7FC0
0080
0080
FFE0
ENDCHAR
STARTCHAR U+4E93
ENCODING 20115
SWIDTH 481 0
DWIDTH 13 0
BBX 11 11 0 -2
BITMAP
7FC0
0000
0000
FFE0
1100
1100
1100
1100
2100
2100
4100
ENDCHAR
STARTCHAR U+4E94
ENCODING 20116
SWIDTH 481 0
DWIDTH 13 0
BBX 11 11 0 -2
BITMAP
FFE0
0800
0800
0800
7F80
1080
1080
1080
1080
1080
FFE0
ENDCHAR
STARTCHAR U+4E95
ENCODING 20117
SWIDTH 481 0
DWIDTH 13 0
BBX 11 11 0 -2
BITMAP
1100
1100
FFE0
1100
1100
1100
1100
FFE0
1100
2100
4100
ENDCHAR
STARTCHAR U+4E96
ENCODING 20118
SWIDTH 481 0
DWIDTH 13 0
BBX 11 11 0 -2
BITMAP
7FC0
0000
0000
FFE0
0000
0000
0000
7FC0
0000
0000
FFE0
ENDCHAR
STARTCHAR U+4E97
ENCODING 20119
SWIDTH 481 0
DWIDTH 13 0
BBX 11 11 0 -2
BITMAP
0400
4440
4440
4440
7FC0
0000
0000
7FC0
0000
0000
FFE0
ENDCHAR
STARTCHAR U+4E98
ENCODING 20120
SWIDTH 481 0
DWIDTH 13 0
BBX 11 11 0 -2
BITMAP
FFE0
0000
7FC0
4040
4040
7FC0
4040
4040
7FC0
0000
FFE0
ENDCHAR
STARTCHAR U+4E99
ENCODING 20121
SWIDTH 481 0
DWIDTH 13 0
BBX 11 11 0 -2
BITMAP
FFE0
2000
2000
3F80
2080
2C80
2280
5880
4680
0080
FFE0
ENDCHAR
STARTCHAR U+4E9A
ENCODING 20122
SWIDTH 481 0
DWIDTH 13 0
BBX 11 11 0 -2
BITMAP
FFE0
1100
1100
9120
9120
5120
5140
5140
1100
1100
FFE0
ENDCHAR
STARTCHAR U+4E9B
ENCODING 20123
SWIDTH 481 0
DWIDTH 13 0
BBX 11 11 0 -2
BITMAP
1100
5120
5DC0
5100
5D20
F1E0
0000
7FC0
0000
0000
FFE0
ENDCHAR
STARTCHAR U+4E9C
ENCODING 20124
SWIDTH 481 0
DWIDTH 13 0
BBX 11 11 0 -2
BITMAP
FFE0
0A00
0A00
7FC0
4A40
4A40
4A40
7FC0
0A00
0A00
FFE0
ENDCHAR
STARTCHAR U+4E9D
ENCODING 20125
SWIDTH 481 0
DWIDTH 13 0
BBX 11 11 0 -2
BITMAP
0800
1100
3F80
0000
2080
4920
FBE0
0000
7FC0
0000
FFE0
ENDCHAR
STARTCHAR U+4E9E
ENCODING 20126
SWIDTH 481 0
DWIDTH 13 0
BBX 11 11 0 -2
BITMAP
FFE0
1100
1100
F1E0
8020
8020
F1E0
1100
1100
1100
FFE0
ENDCHAR
STARTCHAR U+4E9F
ENCODING 20127
SWIDTH 481 0
DWIDTH 13 0
BBX 11 11 0 -2
BITMAP
FFE0
2000
7DE0
0520
7520
5520
74C0
0520
7D20
0000
FFE0
ENDCHAR
STARTCHAR U+4EA0
ENCODING 20128
SWIDTH 481 0
DWIDTH 13 0
BBX 11 4 0 5
BITMAP
0800
0400
0000
FFE0
ENDCHAR
STARTCHAR U+4EA1
ENCODING 20129
SWIDTH 481 0
DWIDTH 13 0
BBX 11 11 0 -2
BITMAP
0400
0400
FFE0
4000
4000
4000
4000
4000
4000
4000
7FC0
ENDCHAR
STARTCHAR U+4EA2
ENCODING 20130
SWIDTH 481 0
DWIDTH 13 0
BBX 11 11 0 -2
BITMAP
0400
0400
FFE0
0000
1F00
1100
1100
1100
1120
2120
C1E0
ENDCHAR
STARTCHAR U+4EA3
ENCODING 20131
SWIDTH 481 0
DWIDTH 13 0
BBX 11 11 0 -2
BITMAP
0400
FFE0
1080
1080
1080
1080
1080
1080
2080
2080
4080
ENDCHAR
STARTCHAR U+4EA4
ENCODING 20132
SWIDTH 481 0
DWIDTH 13 0
BBX 11 11 0 -2
BITMAP
0400
FFE0
0000
1100
2080
D160
0A00
0400
0A00
3180
C060
ENDCHAR
STARTCHAR U+4EA5
ENCODING 20133
SWIDTH 481 0
DWIDTH 13 0
BBX 11 11 0 -2
BITMAP
0400
FFE0
0800
0900
5140
2240
1480
0900
1280
2440
C820
ENDCHAR
STARTCHAR U+4EA6
ENCODING 20134
SWIDTH 481 0
DWIDTH 13 0
BBX 11 11 0 -2
BITMAP
0400
FFE0
0900
0900
4940
4920
4920
8920
1100
1100
2300
ENDCHAR
STARTCHAR U+4EA7
ENCODING 20135
SWIDTH 481 0
DWIDTH 13 0
BBX 11 11 0 -2
BITMAP
0400
FFE0
2080
1100
7FE0
4000
4000
4000
4000
8000
8000
ENDCHAR
STARTCHAR U+4EA8
ENCODING 20136
SWIDTH 481 0
DWIDTH 13 0
BBX 11 11 0 -2
BITMAP
0400
FFE0
4040
4040
7FC0
0000
7FC0
0180
0600
0400
1C00
ENDCHAR
STARTCHAR U+4EA9
ENCODING 20137
SWIDTH 481 0
DWIDTH 13 0
BBX 11 11 0 -2
BITMAP
0400
0400
FFE0
0000
7FC0
4440
4440
7FC0
4440
4440
7FC0
ENDCHAR
STARTCHAR U+4EAA
ENCODING 20138
SWIDTH 481 0
DWIDTH 13 0
BBX 11 11 0 -2
BITMAP
0400
FFE0
1100
5140
9120
0000
7F80
0080
0080
0040
0020
ENDCHAR
STARTCHAR U+4EAB
ENCODING 20139
SWIDTH 481 0
DWIDTH 13 0
BBX 11 11 0 -2
BITMAP
0400
FFE0
4040
7FC0
0000
7FC0
0180
0600
FFE0
0400
1C00
ENDCHAR
STARTCHAR U+4EAC
ENCODING 20140
SWIDTH 481 0
DWIDTH 13 0
BBX 11 11 0 -2
BITMAP
0400
FFE0
0000
7FC0
4040
4040
7FC0
0400
2480
C460
1C00
ENDCHAR
STARTCHAR U+4EAD
ENCODING 20141
SWIDTH 481 0
DWIDTH 13 0
BBX 11 11 0 -2
BITMAP
0400
FFE0
4040
7FC0
0000
FFE0
8020
BFA0
0400
0400
1C00
ENDCHAR
STARTCHAR U+4EAE
ENCODING 20142
SWIDTH 481 0
DWIDTH 13 0
BBX 11 11 0 -2
BITMAP
0400
FFE0
4040
7FC0
0000
FFE0
8020
9F20
1100
2120
C1E0
ENDCHAR
STARTCHAR U+4EAF
ENCODING 20143
SWIDTH 481 0
DWIDTH 13 0
BBX 11 11 0 -2
BITMAP
0400
FFE0
2080
2080
3F80
0000
7FC0
4040
7FC0
4040
7FC0
ENDCHAR
STARTCHAR U+4EB0
ENCODING 20144
SWIDTH 481 0
DWIDTH 13 0
BBX 11 11 0 -2
BITMAP
0400
FFE0
0000
7FC0
4040
7FC0
4040
7FC0
0400
2480
CC60
ENDCHAR
STARTCHAR U+4EB1
ENCODING 20145
SWIDTH 481 0
DWIDTH 13 0
BBX 11 11 0 -2
BITMAP
0400
FFE0
2000
2FC0
4840
4FC0
C840
4840
4FC0
4000
5FE0
ENDCHAR
STARTCHAR U+4EB2
ENCODING 20146
SWIDTH 481 0
DWIDTH 13 0
BBX 11 11 0 -2
BITMAP
0400
7FC0
2080
1100
FFE0
0400
7FC0
0400
2480
4440
8C20
ENDCHAR
STARTCHAR U+4EB3
ENCODING 20147
SWIDTH 481 0
DWIDTH 13 0
BBX 11 11 0 -2
BITMAP
0400
FFE0
4040
7FC0
0000
FFE0
8720
BC20
0780
3C20
07E0
ENDCHAR
STARTCHAR U+4EB4
ENCODING 20148
SWIDTH 481 0
DWIDTH 13 0
BBX 11 11 0 -2
BITMAP
0400
FFE0
1100
FFE0
8420
3F80
0400
FFE0
1100
2120
C1E0
ENDCHAR
STARTCHAR U+4EB5
ENCODING 20149
SWIDTH 481 0
DWIDTH 13 0
BBX 11 11 0 -2
BITMAP
0400
FFE0
2100
F7C0
2240
FA40
2560
0A00
3140
D080
3B60
ENDCHAR
STARTCHAR U+4EB6
ENCODING 20150
SWIDTH 481 0
DWIDTH 13 0
BBX 11 11 0 -2
BITMAP
0400
FFE0
5140
5140
7FC0
2080
3F80
2080
3F80
2080
FFE0
ENDCHAR
STARTCHAR U+4EB7
ENCODING 20151
SWIDTH 481 0
DWIDTH 13 0
BBX 11 11 0 -2
BITMAP
0400
FFE0
1100
7FC0
4A00
7F80
4AE0
7F80
9B00
AA80
CA40
ENDCHAR
STARTCHAR U+4EB8
ENCODING 20152
SWIDTH 481 0
DWIDTH 13 0
BBX 11 11 0 -2
BITMAP
2220
FD40
4800
7BE0
02A0
FBE0
12A0
3BE0
E080
23E0
6080
ENDCHAR
STARTCHAR U+4EB9
ENCODING 20153
SWIDTH 481 0
DWIDTH 13 0
BBX 11 11 0 -2
BITMAP
0400
FFE0
3140
5DC0
7540
5540
FFE0
A0A0
3F80
2080
FFE0
ENDCHAR
STARTCHAR U+4EBA
ENCODING 20154
SWIDTH 481 0
DWIDTH 13 0
BBX 11 11 0 -2
BITMAP
0400
0400
0400
0400
0A00
0A00
1100
1100
2080
4040
8020
ENDCHAR
STARTCHAR U+4EBB
ENCODING 20155
SWIDTH 481 0
DWIDTH 13 0
BBX 5 11 2 -2
BITMAP
08
08
10
30
50
90
10
10
10
10
10
ENDCHAR
STARTCHAR U+4EBC
ENCODING 20156
SWIDTH 481 0
DWIDTH 13 0
BBX 11 6 0 3
BITMAP
0400
0A00
3180
C060
0000
3F80
ENDCHAR
STARTCHAR U+4EBD
ENCODING 20157
SWIDTH 481 0
DWIDTH 13 0
BBX 11 7 0 2
BITMAP
0400
0A00
3180
C060
0400
0200
0200
ENDCHAR
STARTCHAR U+4EBE
ENCODING 20158
SWIDTH 481 0
DWIDTH 13 0
BBX 11 11 0 -2
BITMAP
8200
8200
8200
8200
8500
8500
8880
9040
A020
8000
FFE0
ENDCHAR
STARTCHAR U+4EBF
ENCODING 20159
SWIDTH 481 0
DWIDTH 13 0
BBX 11 11 0 -2
BITMAP
2FE0
2040
4080
4100
C200
4400
4800
5000
5020
5020
4FE0
ENDCHAR
STARTCHAR U+4EC0
ENCODING 20160
SWIDTH 481 0
DWIDTH 13 0
BBX 11 11 0 -2
BITMAP
2100
2100
4100
4100
CFE0
4100
4100
4100
4100
4100
4100
ENDCHAR
STARTCHAR U+4EC1
ENCODING 20161
SWIDTH 481 0
DWIDTH 13 0
BBX 11 11 0 -2
BITMAP
2000
2FC0
4000
4000
C000
4000
4000
4000
4000
5FE0
4000
ENDCHAR
STARTCHAR U+4EC2
ENCODING 20162
SWIDTH 481 0
DWIDTH 13 0
BBX 11 11 0 -2
BITMAP
2200
2200
4FE0
4220
C220
4220
4420
4420
4420
4820
48E0
ENDCHAR
STARTCHAR U+4EC3
ENCODING 20163
SWIDTH 481 0
DWIDTH 13 0
BBX 11 11 0 -2
BITMAP
2FE0
2080
4080
4080
C080
4080
4080
4080
4080
4080
4380
ENDCHAR
STARTCHAR U+4EC4
ENCODING 20164
SWIDTH 481 0
DWIDTH 13 0
BBX 11 11 0 -2
BITMAP
7FE0
4000
4200
4200
4200
4200
4500
4500
4880
9040
A020
ENDCHAR
STARTCHAR U+4EC5
ENCODING 20165
SWIDTH 481 0
DWIDTH 13 0
BBX 11 11 0 -2
BITMAP
2FE0
2820
4820
4820
C440
4440
4280
4100
4280
4440
4820
ENDCHAR
STARTCHAR U+4EC6
ENCODING 20166
SWIDTH 481 0
DWIDTH 13 0
BBX 11 11 0 -2
BITMAP
1200
1200
2200
2200
6300
A280
2240
2220
2200
2200
2200
ENDCHAR
STARTCHAR U+4EC7
ENCODING 20167
SWIDTH 481 0
DWIDTH 13 0
BBX 11 11 0 -2
BITMAP
2400
2400
5F80
4480
C480
4480
44A0
44A0
48A0
48A0
50E0
ENDCHAR
STARTCHAR U+4EC8
ENCODING 20168
SWIDTH 481 0
DWIDTH 13 0
BBX 11 11 0 -2
BITMAP
2480
2480
4480
4480
C480
4480
4480
4840
4840
4840
5020
ENDCHAR
STARTCHAR U+4EC9
ENCODING 20169
SWIDTH 481 0
DWIDTH 13 0
BBX 11 11 0 -2
BITMAP
2F80
2880
4880
4880
C880
4880
4880
4880
50A0
50A0
50E0
ENDCHAR
STARTCHAR U+4ECA
ENCODING 20170
SWIDTH 481 0
DWIDTH 13 0
BBX 11 11 0 -2
BITMAP
0400
0A00
3180
C060
3F80
0000
7FC0
0040
0080
0100
0200
ENDCHAR
STARTCHAR U+4ECB
ENCODING 20171
SWIDTH 481 0
DWIDTH 13 0
BBX 11 11 0 -2
BITMAP
0400
0A00
1100
2080
D160
1100
1100
1100
2100
2100
4100
ENDCHAR
STARTCHAR U+4ECC
ENCODING 20172
SWIDTH 481 0
DWIDTH 13 0
BBX 11 11 0 -2
BITMAP
0400
0400
0400
0A00
3180
C460
0400
0400
0A00
3180
C060
ENDCHAR
STARTCHAR U+4ECD
ENCODING 20173
SWIDTH 481 0
DWIDTH 13 0
BBX 11 11 0 -2
BITMAP
2F80
2480
4480
4480
C4E0
4420
4420
4420
4820
4820
50E0
ENDCHAR
STARTCHAR U+4ECE
ENCODING 20174
SWIDTH 481 0
DWIDTH 13 0
BBX 11 11 0 -2
BITMAP
1100
1100
1100
1100
1100
2A80
2A80
2A80
4440
4440
8820
ENDCHAR
STARTCHAR U+4ECF
ENCODING 20175
SWIDTH 481 0
DWIDTH 13 0
BBX 11 11 0 -2
BITMAP
2200
2200
4200
4200
C400
4400
4440
4440
4820
48E0
5F20
ENDCHAR
STARTCHAR U+4ED0
ENCODING 20176
SWIDTH 481 0
DWIDTH 13 0
BBX 11 11 0 -2
BITMAP
0400
0A00
3180
C460
0400
0400
FFE0
0400
0400
0400
0400
ENDCHAR
STARTCHAR U+4ED1
ENCODING 20177
SWIDTH 481 0
DWIDTH 13 0
BBX 11 11 0 -2
BITMAP
0400
0A00
3180
C060
2000
21C0
2600
3800
2040
2040
3FC0
ENDCHAR
STARTCHAR U+4ED2
ENCODING 20178
SWIDTH 481 0
DWIDTH 13 0
BBX 11 11 0 -2
BITMAP
0400
0A00
3180
C060
0400
0200
0200
0000
0800
0400
0300
ENDCHAR
STARTCHAR U+4ED3
ENCODING 20179
SWIDTH 481 0
DWIDTH 13 0
BBX 11 11 0 -2
BITMAP
0400
0A00
3180
C060
3F80
2080
2080
2480
23A0
2020
3FE0
ENDCHAR
STARTCHAR U+4ED4
ENCODING 20180
SWIDTH 481 0
DWIDTH 13 0
BBX 11 11 0 -2
BITMAP
2FE0
2020
4040
4080
C100
4100
5FE0
4100
4100
4100
4700
ENDCHAR
STARTCHAR U+4ED5
ENCODING 20181
SWIDTH 481 0
DWIDTH 13 0
BBX 11 11 0 -2
BITMAP
2100
2100
4100
4100
CFE0
4100
4100
4100
4100
4100
4FE0
ENDCHAR
STARTCHAR U+4ED6
ENCODING 20182
SWIDTH 481 0
DWIDTH 13 0
BBX 11 11 0 -2
BITMAP
2100
2900
4960
4BA0
DD20
4920
4960
4900
4820
4820
4FE0
ENDCHAR
STARTCHAR U+4ED7
ENCODING 20183
SWIDTH 481 0
DWIDTH 13 0
BBX 11 11 0 -2
BITMAP
2080
2080
5FE0
4080
C880
4880
4500
4500
4200
4500
58E0
ENDCHAR
STARTCHAR U+4ED8
ENCODING 20184
SWIDTH 481 0
DWIDTH 13 0
BBX 11 11 0 -2
BITMAP
2040
2040
5FE0
4040
C040
4840
4440
4440
4040
4040
41C0
ENDCHAR
STARTCHAR U+4ED9
ENCODING 20185
SWIDTH 481 0
DWIDTH 13 0
BBX 11 11 0 -2
BITMAP
2100
2100
4920
4920
C920
4920
4920
4920
4920
4920
4FE0
ENDCHAR
STARTCHAR U+4EDA
ENCODING 20186
SWIDTH 481 0
DWIDTH 13 0
BBX 11 11 0 -2
BITMAP
0400
0A00
3180
C060
0400
0400
4440
4440
4440
4440
7FC0
ENDCHAR
STARTCHAR U+4EDB
ENCODING 20187
SWIDTH 481 0
DWIDTH 13 0
BBX 11 11 0 -2
BITMAP
21C0
2E00
4200
4200
C3E0
5E00
4200
4200
4220
4220
43E0
ENDCHAR
STARTCHAR U+4EDC
ENCODING 20188
SWIDTH 481 0
DWIDTH 13 0
BBX 11 11 0 -2
BITMAP
2FE0
2100
4100
4100
C100
4100
4100
4100
4100
4100
4FE0
ENDCHAR
STARTCHAR U+4EDD
ENCODING 20189
SWIDTH 481 0
DWIDTH 13 0
BBX 11 11 0 -2
BITMAP
0400
0A00
3180
C060
0000
3F80
0400
0400
0400
0400
7FC0
ENDCHAR
STARTCHAR U+4EDE
ENCODING 20190
SWIDTH 481 0
DWIDTH 13 0
BBX 11 11 0 -2
BITMAP
2FE0
2120
4120
4920
C920
4920
5120
4120
4220
4220
44E0
ENDCHAR
STARTCHAR U+4EDF
ENCODING 20191
SWIDTH 481 0
DWIDTH 13 0
BBX 11 11 0 -2
BITMAP
20C0
2F00
4100
4100
C100
5FE0
4100
4100
4100
4100
4100
ENDCHAR
STARTCHAR U+4EE0
ENCODING 20192
SWIDTH 481 0
DWIDTH 13 0
BBX 11 11 0 -2
BITMAP
2FE0
2100
4100
4100
C100
4FE0
4100
4100
4100
4100
4100
ENDCHAR
STARTCHAR U+4EE1
ENCODING 20193
SWIDTH 481 0
DWIDTH 13 0
BBX 11 11 0 -2
BITMAP
2800
2FE0
5000
4FC0
C080
4100
4200
4400
4820
4820
47E0
ENDCHAR
STARTCHAR U+4EE2
ENCODING 20194
SWIDTH 481 0
DWIDTH 13 0
BBX 11 11 0 -2
BITMAP
2400
27E0
4820
4020
C020
4420
4220
4220
4020
4020
40E0
ENDCHAR
STARTCHAR U+4EE3
ENCODING 20195
SWIDTH 481 0
DWIDTH 13 0
BBX 11 11 0 -2
BITMAP
2240
2220
4200
5FE0
C200
4200
4200
4100
4120
40A0
4040
ENDCHAR
STARTCHAR U+4EE4
ENCODING 20196
SWIDTH 481 0
DWIDTH 13 0
BBX 11 11 0 -2
BITMAP
0400
0A00
3180
DF60
0000
0000
FFC0
0840
0840
09C0
0800
ENDCHAR
STARTCHAR U+4EE5
ENCODING 20197
SWIDTH 481 0
DWIDTH 13 0
BBX 11 11 0 -2
BITMAP
4840
4840
4440
4440
4440
4040
4040
4480
4880
7140
8620
ENDCHAR
STARTCHAR U+4EE6
ENCODING 20198
SWIDTH 481 0
DWIDTH 13 0
BBX 11 11 0 -2
BITMAP
2200
2200
4200
4A80
CA80
5240
5240
6220
4200
4200
4600
ENDCHAR
STARTCHAR U+4EE7
ENCODING 20199
SWIDTH 481 0
DWIDTH 13 0
BBX 11 11 0 -2
BITMAP
0400
0400
07C0
0400
0400
FFE0
0400
0A00
1100
2080
C060
ENDCHAR
STARTCHAR U+4EE8
ENCODING 20200
SWIDTH 481 0
DWIDTH 13 0
BBX 11 11 0 -2
BITMAP
2FE0
2000
4000
4000
C000
4FE0
4000
4000
4000
4000
4FE0
ENDCHAR
STARTCHAR U+4EE9
ENCODING 20201
SWIDTH 481 0
DWIDTH 13 0
BBX 11 11 0 -2
BITMAP
2200
2200
4200
4200
C3C0
4200
4200
4200
4200
4200
5FE0
ENDCHAR
STARTCHAR U+4EEA
ENCODING 20202
SWIDTH 481 0
DWIDTH 13 0
BBX 11 11 0 -2
BITMAP
2A20
2920
4920
4820
C440
4440
4280
4280
4100
4280
4C60
ENDCHAR
STARTCHAR U+4EEB
ENCODING 20203
SWIDTH 481 0
DWIDTH 13 0
BBX 11 11 0 -2
BITMAP
2100
2100
4200
4440
C840
5080
4100
4200
4440
48E0
5F20
ENDCHAR
STARTCHAR U+4EEC
ENCODING 20204
SWIDTH 481 0
DWIDTH 13 0
BBX 11 11 0 -2
BITMAP
29E0
2420
4020
4820
C820
4820
4820
4820
4820
4820
48E0
ENDCHAR
STARTCHAR U+4EED
ENCODING 20205
SWIDTH 481 0
DWIDTH 13 0
BBX 11 11 0 -2
BITMAP
2FE0
2220
4220
4A20
CA20
4620
4620
45A0
4420
4420
48E0
ENDCHAR
STARTCHAR U+4EEE
ENCODING 20206
SWIDTH 481 0
DWIDTH 13 0
BBX 11 11 0 -2
BITMAP
2FE0
2800
4800
4FE0
CA20
4A20
4940
4940
4880
5140
5220
ENDCHAR
STARTCHAR U+4EEF
ENCODING 20207
SWIDTH 481 0
DWIDTH 13 0
BBX 10 11 0 -2
BITMAP
2200
2200
4A80
4A80
CA80
5240
5240
4200
4040
4180
5E00
ENDCHAR
STARTCHAR U+4EF0
ENCODING 20208
SWIDTH 481 0
DWIDTH 13 0
BBX 11 11 0 -2
BITMAP
25E0
2920
4920
4920
C920
4920
4920
4920
4D60
5900
4100
ENDCHAR
STARTCHAR U+4EF1
ENCODING 20209
SWIDTH 481 0
DWIDTH 13 0
BBX 11 11 0 -2
BITMAP
2100
2280
4440
4820
C7C0
4000
4FE0
4040
4040
4080
4100
ENDCHAR
STARTCHAR U+4EF2
ENCODING 20210
SWIDTH 481 0
DWIDTH 13 0
BBX 11 11 0 -2
BITMAP
2100
2100
4FE0
4920
C920
4920
4920
4FE0
4100
4100
4100
ENDCHAR
STARTCHAR U+4EF3
ENCODING 20211
SWIDTH 481 0
DWIDTH 13 0
BBX 11 11 0 -2
BITMAP
2880
2880
4880
4880
CEE0
4880
4880
4880
4880
4880
4EE0
ENDCHAR
STARTCHAR U+4EF4
ENCODING 20212
SWIDTH 481 0
DWIDTH 13 0
BBX 11 11 0 -2
BITMAP
2FE0
2820
4820
4FE0
C820
4820
4FE0
4820
4820
4820
50E0
ENDCHAR
STARTCHAR U+4EF5
ENCODING 20213
SWIDTH 481 0
DWIDTH 13 0
BBX 11 11 0 -2
BITMAP
2800
2800
4FE0
5100
C100
4100
5FE0
4100
4100
4100
4100
ENDCHAR
STARTCHAR U+4EF6
ENCODING 20214
SWIDTH 481 0
DWIDTH 13 0
BBX 11 11 0 -2
BITMAP
2900
2900
4FE0
5100
C100
4100
5FE0
4100
4100
4100
4100
ENDCHAR
STARTCHAR U+4EF7
ENCODING 20215
SWIDTH 481 0
DWIDTH 13 0
BBX 11 11 0 -2
BITMAP
2100
2280
4440
4820
C440
4440
4440
4440
4440
4840
4840
ENDCHAR
STARTCHAR U+4EF8
ENCODING 20216
SWIDTH 481 0
DWIDTH 13 0
BBX 11 11 0 -2
BITMAP
20E0
2F00
4100
4100
CFE0
4100
4280
4280
4440
4440
4820
ENDCHAR
STARTCHAR U+4EF9
ENCODING 20217
SWIDTH 481 0
DWIDTH 13 0
BBX 11 11 0 -2
BITMAP
2100
2920
4540
4100
CFE0
4100
4100
4FE0
4100
4100
4100
ENDCHAR
STARTCHAR U+4EFA
ENCODING 20218
SWIDTH 481 0
DWIDTH 13 0
BBX 11 11 0 -2
BITMAP
0400
0A00
3180
C060
3F80
2000
2000
3F80
2000
2000
3F80
ENDCHAR
STARTCHAR U+4EFB
ENCODING 20219
SWIDTH 481 0
DWIDTH 13 0
BBX 11 11 0 -2
BITMAP
20C0
2F00
4100
4100
C100
5FE0
4100
4100
4100
4100
4FE0
ENDCHAR
STARTCHAR U+4EFC
ENCODING 20220
SWIDTH 481 0
DWIDTH 13 0
BBX 11 11 0 -2
BITMAP
2FE0
2100
4100
4100
C100
4FE0
4100
4100
4100
4100
4FE0
ENDCHAR
STARTCHAR U+4EFD
ENCODING 20221
SWIDTH 481 0
DWIDTH 13 0
BBX 11 11 0 -2
BITMAP
2480
2480
4840
4840
D020
4FC0
4440
4440
4440
4840
49C0
ENDCHAR
STARTCHAR U+4EFE
ENCODING 20222
SWIDTH 481 0
DWIDTH 13 0
BBX 11 11 0 -2
BITMAP
2FE0
2200
4200
47C0
C440
4440
4440
47C0
4080
4080
4FE0
ENDCHAR
STARTCHAR U+4EFF
ENCODING 20223
SWIDTH 481 0
DWIDTH 13 0
BBX 11 11 0 -2
BITMAP
2100
2FE0
4400
4400
C7E0
4420
4420
4420
4420
4820
48E0
ENDCHAR
STARTCHAR U+4F00
ENCODING 20224
SWIDTH 481 0
DWIDTH 13 0
BBX 11 11 0 -2
BITMAP
2480
2480
4840
4840
D020
4200
4200
4440
4440
49E0
5E20
ENDCHAR
STARTCHAR U+4F01
ENCODING 20225
SWIDTH 481 0
DWIDTH 13 0
BBX 11 11 0 -2
BITMAP
0400
0A00
3180
C460
0400
0400
47C0
4400
4400
4400
FFE0
ENDCHAR
STARTCHAR U+4F02
ENCODING 20226
SWIDTH 481 0
DWIDTH 13 0
BBX 11 11 0 -2
BITMAP
2100
2FE0
4100
4FE0
C920
4920
4920
4920
4920
4960
4100
ENDCHAR
STARTCHAR U+4F03
ENCODING 20227
SWIDTH 481 0
DWIDTH 13 0
BBX 11 11 0 -2
BITMAP
2FE0
2020
4440
4280
C100
5FE0
4120
4140
4100
4100
4700
ENDCHAR
STARTCHAR U+4F04
ENCODING 20228
SWIDTH 481 0
DWIDTH 13 0
BBX 11 11 0 -2
BITMAP
2FE0
2120
4120
4FE0
C900
4900
4FE0
4120
4120
4120
4160
ENDCHAR
STARTCHAR U+4F05
ENCODING 20229
SWIDTH 481 0
DWIDTH 13 0
BBX 11 11 0 -2
BITMAP
2100
2FE0
4100
4920
C920
4920
4FE0
4100
4100
4120
41E0
ENDCHAR
STARTCHAR U+4F06
ENCODING 20230
SWIDTH 481 0
DWIDTH 13 0
BBX 11 11 0 -2
BITMAP
2400
27E0
4AA0
54A0
C520
4920
4A20
5220
4420
4820
40E0
ENDCHAR
STARTCHAR U+4F07
ENCODING 20231
SWIDTH 481 0
DWIDTH 13 0
BBX 11 11 0 -2
BITMAP
27C0
2440
4440
4440
CC60
4000
4FE0
4820
4440
4380
4C60
ENDCHAR
STARTCHAR U+4F08
ENCODING 20232
SWIDTH 481 0
DWIDTH 13 0
BBX 11 11 0 -2
BITMAP
2400
2200
4100
4400
C440
4420
4420
5400
5440
6440
47C0
ENDCHAR
STARTCHAR U+4F09
ENCODING 20233
SWIDTH 481 0
DWIDTH 13 0
BBX 11 11 0 -2
BITMAP
2200
2200
5FE0
4000
C780
4480
4480
4480
44A0
48A0
50E0
ENDCHAR
STARTCHAR U+4F0A
ENCODING 20234
SWIDTH 481 0
DWIDTH 13 0
BBX 11 11 0 -2
BITMAP
2FC0
2240
4240
5FE0
C240
4240
4FC0
4200
4200
4400
4400
ENDCHAR
STARTCHAR U+4F0B
ENCODING 20235
SWIDTH 481 0
DWIDTH 13 0
BBX 11 11 0 -2
BITMAP
2FC0
2840
4880
4900
CFC0
4840
4C40
4A80
4900
5280
5460
ENDCHAR
STARTCHAR U+4F0C
ENCODING 20236
SWIDTH 481 0
DWIDTH 13 0
BBX 11 11 0 -2
BITMAP
2FE0
2800
4BC0
4A40
CA40
4A40
4A40
4AC0
4A00
5220
53E0
ENDCHAR
STARTCHAR U+4F0D
ENCODING 20237
SWIDTH 481 0
DWIDTH 13 0
BBX 11 11 0 -2
BITMAP
2FE0
2200
4200
4200
CFC0
4240
4240
4440
4440
4440
5FE0
ENDCHAR
STARTCHAR U+4F0E
ENCODING 20238
SWIDTH 481 0
DWIDTH 13 0
BBX 11 11 0 -2
BITMAP
2100
2FE0
4100
4100
CFE0
4020
4440
4280
4100
4280
4C60
ENDCHAR
STARTCHAR U+4F0F
ENCODING 20239
SWIDTH 481 0
DWIDTH 13 0
BBX 11 11 0 -2
BITMAP
2140
2120
4100
4FE0
C100
4280
4280
4280
4440
4440
4820
ENDCHAR
STARTCHAR U+4F10
ENCODING 20240
SWIDTH 481 0
DWIDTH 13 0
BBX 11 11 0 -2
BITMAP
2280
2240
4200
5FE0
C200
4240
4240
4280
4120
42A0
4C40
ENDCHAR
STARTCHAR U+4F11
ENCODING 20241
SWIDTH 481 0
DWIDTH 13 0
BBX 11 11 0 -2
BITMAP
2100
2100
4FE0
4100
C380
4380
4540
4540
4920
4100
4100
ENDCHAR
STARTCHAR U+4F12
ENCODING 20242
SWIDTH 481 0
DWIDTH 13 0
BBX 11 11 0 -2
BITMAP
2FE0
2800
4800
4FE0
C880
4880
4880
4880
4880
5080
5080
ENDCHAR
STARTCHAR U+4F13
ENCODING 20243
SWIDTH 481 0
DWIDTH 13 0
BBX 11 11 0 -2
BITMAP
2FE0
2080
4100
4100
C340
4520
5920
4100
4100
4100
4100
ENDCHAR
STARTCHAR U+4F14
ENCODING 20244
SWIDTH 481 0
DWIDTH 13 0
BBX 11 11 0 -2
BITMAP
2FE0
2820
4380
4280
C280
4280
4280
4280
44A0
44A0
48E0
ENDCHAR
STARTCHAR U+4F15
ENCODING 20245
SWIDTH 481 0
DWIDTH 13 0
BBX 11 11 0 -2
BITMAP
2100
27C0
4100
4100
C100
4FE0
4100
4280
4280
4440
4820
ENDCHAR
STARTCHAR U+4F16
ENCODING 20246
SWIDTH 481 0
DWIDTH 13 0
BBX 11 11 0 -2
BITMAP
2200
2200
5FE0
4400
C7E0
4A20
4A20
4940
4880
5140
5620
ENDCHAR
STARTCHAR U+4F17
ENCODING 20247
SWIDTH 481 0
DWIDTH 13 0
BBX 11 11 0 -2
BITMAP
0400
0400
0A00
3180
C060
1100
1100
1100
2A80
4440
8820
ENDCHAR
STARTCHAR U+4F18
ENCODING 20248
SWIDTH 481 0
DWIDTH 13 0
BBX 11 11 0 -2
BITMAP
2240
2220
4200
5FE0
C200
4200
4500
4500
4920
4920
51E0
ENDCHAR
STARTCHAR U+4F19
ENCODING 20249
SWIDTH 481 0
DWIDTH 13 0
BBX 11 11 0 -2
BITMAP
2100
2100
4920
4520
C540
4100
4280
4280
4440
4440
4820
ENDCHAR
STARTCHAR U+4F1A
ENCODING 20250
SWIDTH 481 0
DWIDTH 13 0
BBX 11 11 0 -2
BITMAP
0400
0A00
3180
DF60
0000
0000
FFE0
0880
1040
23A0
7C20
ENDCHAR
STARTCHAR U+4F1B
ENCODING 20251
SWIDTH 481 0
DWIDTH 13 0
BBX 11 11 0 -2
BITMAP
2FE0
2800
4A40
4A40
C940
4940
4880
4940
4A40
4800
4FE0
ENDCHAR
STARTCHAR U+4F1C
ENCODING 20252
SWIDTH 481 0
DWIDTH 13 0
BBX 11 11 0 -2
BITMAP
2400
2F80
4480
44A0
C8A0
50E0
4200
4200
5FE0
4200
4200
ENDCHAR
STARTCHAR U+4F1D
ENCODING 20253
SWIDTH 481 0
DWIDTH 13 0
BBX 11 11 0 -2
BITMAP
2FC0
2000
4000
4000
DFE0
4200
4200
4480
4440
48E0
5F20
ENDCHAR
STARTCHAR U+4F1E
ENCODING 20254
SWIDTH 481 0
DWIDTH 13 0
BBX 11 11 0 -2
BITMAP
0400
0A00
3180
C460
2480
1500
1500
FFE0
0400
0400
0400
ENDCHAR
STARTCHAR U+4F1F
ENCODING 20255
SWIDTH 481 0
DWIDTH 13 0
BBX 11 11 0 -2
BITMAP
2200
2200
5FE0
4200
DFE0
4200
5FE0
4220
4220
42E0
4200
ENDCHAR
STARTCHAR U+4F20
ENCODING 20256
SWIDTH 481 0
DWIDTH 13 0
BBX 11 11 0 -2
BITMAP
2100
2FE0
4200
4200
DFE0
4400
4FE0
4020
4240
4180
4080
ENDCHAR
STARTCHAR U+4F21
ENCODING 20257
SWIDTH 481 0
DWIDTH 13 0
BBX 11 11 0 -2
BITMAP
2200
2FE0
4400
4500
C900
4FE0
4100
4100
4FE0
4100
4100
ENDCHAR
STARTCHAR U+4F22
ENCODING 20258
SWIDTH 481 0
DWIDTH 13 0
BBX 11 11 0 -2
BITMAP
2FE0
2880
4880
5FE0
C280
4280
4280
4480
4480
4880
5380
ENDCHAR
STARTCHAR U+4F23
ENCODING 20259
SWIDTH 481 0
DWIDTH 13 0
BBX 11 11 0 -2
BITMAP
2FC0
2840
4A40
4A40
CA40
4A40
4200
4500
4520
4920
51E0
ENDCHAR
STARTCHAR U+4F24
ENCODING 20260
SWIDTH 481 0
DWIDTH 13 0
BBX 11 11 0 -2
BITMAP
2800
2FE0
4800
5200
C200
5FE0
4220
4220
4420
4420
48E0
ENDCHAR
STARTCHAR U+4F25
ENCODING 20261
SWIDTH 481 0
DWIDTH 13 0
BBX 11 11 0 -2
BITMAP
2420
2440
4480
4500
C400
5FE0
4500
4480
4480
4440
4720
ENDCHAR
STARTCHAR U+4F26
ENCODING 20262
SWIDTH 481 0
DWIDTH 13 0
BBX 11 11 0 -2
BITMAP
2200
2300
4480
4840
D020
4800
48C0
4F00
4820
4820
4FE0
ENDCHAR
STARTCHAR U+4F27
ENCODING 20263
SWIDTH 481 0
DWIDTH 13 0
BBX 11 11 0 -2
BITMAP
2100
2280
4440
4820
C7C0
4440
4440
45C0
4420
4420
47E0
ENDCHAR
STARTCHAR U+4F28
ENCODING 20264
SWIDTH 481 0
DWIDTH 13 0
BBX 11 11 0 -2
BITMAP
2800
2FE0
4820
5020
CFA0
4020
4020
4020
4FA0
4020
40E0
ENDCHAR
STARTCHAR U+4F29
ENCODING 20265
SWIDTH 481 0
DWIDTH 13 0
BBX 11 11 0 -2
BITMAP
2100
2FE0
4440
4440
C440
4440
4280
4280
4100
4280
4C60
ENDCHAR
STARTCHAR U+4F2A
ENCODING 20266
SWIDTH 481 0
DWIDTH 13 0
BBX 11 11 0 -2
BITMAP
2A00
2200
4FE0
4220
C220
42A0
44A0
4420
4420
4820
48E0
ENDCHAR
STARTCHAR U+4F2B
ENCODING 20267
SWIDTH 481 0
DWIDTH 13 0
BBX 11 11 0 -2
BITMAP
2100
2FE0
4820
4820
C820
4000
4000
4000
4000
4000
4FE0
ENDCHAR
STARTCHAR U+4F2C
ENCODING 20268
SWIDTH 481 0
DWIDTH 13 0
BBX 11 11 0 -2
BITMAP
2FC0
2840
4840
4FC0
C900
4900
4900
4880
4880
5040
5020
ENDCHAR
STARTCHAR U+4F2D
ENCODING 20269
SWIDTH 481 0
DWIDTH 13 0
BBX 11 11 0 -2
BITMAP
2100
2FE0
4200
4400
C840
4F80
4100
4200
4440
4840
5FA0
ENDCHAR
STARTCHAR U+4F2E
ENCODING 20270
SWIDTH 481 0
DWIDTH 13 0
BBX 11 11 0 -2
BITMAP
2800
2BE0
48A0
5EA0
CAA0
4AA0
52A0
5C40
4440
4AA0
5320
ENDCHAR
STARTCHAR U+4F2F
ENCODING 20271
SWIDTH 481 0
DWIDTH 13 0
BBX 11 11 0 -2
BITMAP
2100
2200
4FE0
4820
C820
4820
4FE0
4820
4820
4820
4FE0
ENDCHAR
STARTCHAR U+4F30
ENCODING 20272
SWIDTH 481 0
DWIDTH 13 0
BBX 11 11 0 -2
BITMAP
2100
2100
4FE0
4100
C100
4FE0
4820
4820
4820
4820
4FE0
ENDCHAR
STARTCHAR U+4F31
ENCODING 20273
SWIDTH 481 0
DWIDTH 13 0
BBX 11 11 0 -2
BITMAP
2100
2280
4440
4820
C100
4540
4540
4920
4920
4100
4300
ENDCHAR
STARTCHAR U+4F32
ENCODING 20274
SWIDTH 481 0
DWIDTH 13 0
BBX 11 11 0 -2
BITMAP
2FE0
2820
4820
4820
CFE0
4A00
4A60
4B80
4A00
5220
53E0
ENDCHAR
STARTCHAR U+4F33
ENCODING 20275
SWIDTH 481 0
DWIDTH 13 0
BBX 11 11 0 -2
BITMAP
2A40
2A40
4A40
5FE0
CA40
4A40
4A40
4A40
4BC0
4800
4FE0
ENDCHAR
STARTCHAR U+4F34
ENCODING 20276
SWIDTH 481 0
DWIDTH 13 0
BBX 11 11 0 -2
BITMAP
2920
2520
4540
4100
CFE0
4100
4100
4FE0
4100
4100
4100
ENDCHAR
STARTCHAR U+4F35
ENCODING 20277
SWIDTH 481 0
DWIDTH 13 0
BBX 11 11 0 -2
BITMAP
2FE0
2AA0
4AA0
4AA0
CAA0
4AA0
4AA0
4CE0
4820
4820
4FE0
ENDCHAR
STARTCHAR U+4F36
ENCODING 20278
SWIDTH 481 0
DWIDTH 13 0
BBX 11 11 0 -2
BITMAP
2300
2480
5860
4780
C000
4000
5FE0
4220
4220
42E0
4200
ENDCHAR
STARTCHAR U+4F37
ENCODING 20279
SWIDTH 481 0
DWIDTH 13 0
BBX 11 11 0 -2
BITMAP
2100
2100
4FE0
4920
C920
4920
4FE0
4920
4920
4920
4FE0
ENDCHAR
STARTCHAR U+4F38
ENCODING 20280
SWIDTH 481 0
DWIDTH 13 0
BBX 11 11 0 -2
BITMAP
2100
2100
4FE0
4920
C920
4FE0
4920
4920
4FE0
4100
4100
ENDCHAR
STARTCHAR U+4F39
ENCODING 20281
SWIDTH 481 0
DWIDTH 13 0
BBX 11 11 0 -2
BITMAP
2FC0
2840
4840
4FC0
C840
4840
4FC0
4840
4840
4840
5FE0
ENDCHAR
STARTCHAR U+4F3A
ENCODING 20282
SWIDTH 481 0
DWIDTH 13 0
BBX 11 11 0 -2
BITMAP
2FE0
2020
4020
4FA0
C020
4FA0
48A0
48A0
4FA0
4020
40E0
ENDCHAR
STARTCHAR U+4F3B
ENCODING 20283
SWIDTH 481 0
DWIDTH 13 0
BBX 11 11 0 -2
BITMAP
2FE0
2100
4920
4540
C100
4FE0
4100
4100
4100
4100
4100
ENDCHAR
STARTCHAR U+4F3C
ENCODING 20284
SWIDTH 481 0
DWIDTH 13 0
BBX 11 11 0 -2
BITMAP
2A40
2A40
4940
4940
C940
4840
4840
4A80
4C80
4940
5220
ENDCHAR
STARTCHAR U+4F3D
ENCODING 20285
SWIDTH 481 0
DWIDTH 13 0
BBX 11 11 0 -2
BITMAP
2800
28E0
5EA0
4AA0
CAA0
4AA0
4AA0
4AA0
4AA0
52E0
5600
ENDCHAR
STARTCHAR U+4F3E
ENCODING 20286
SWIDTH 481 0
DWIDTH 13 0
BBX 11 11 0 -2
BITMAP
2FE0
2080
4100
4300
C540
5920
4100
4100
4100
4000
5FE0
ENDCHAR
STARTCHAR U+4F3F
ENCODING 20287
SWIDTH 481 0
DWIDTH 13 0
BBX 11 11 0 -2
BITMAP
2FE0
2820
4820
4820
C820
4FE0
4000
4440
4440
4820
4820
ENDCHAR
STARTCHAR U+4F40
ENCODING 20288
SWIDTH 481 0
DWIDTH 13 0
BBX 11 11 0 -2
BITMAP
2FE0
2820
4820
4820
CFE0
4800
4FE0
4820
4820
4820
4FE0
ENDCHAR
STARTCHAR U+4F41
ENCODING 20289
SWIDTH 481 0
DWIDTH 13 0
BBX 11 11 0 -2
BITMAP
2200
2200
4440
4440
CFA0
4000
4FE0
4820
4820
4820
4FE0
ENDCHAR
STARTCHAR U+4F42
ENCODING 20290
SWIDTH 481 0
DWIDTH 13 0
BBX 11 11 0 -2
BITMAP
2FE0
2100
4100
4100
C9E0
4900
4900
4900
4900
4900
4FE0
ENDCHAR
STARTCHAR U+4F43
ENCODING 20291
SWIDTH 481 0
DWIDTH 13 0
BBX 11 11 0 -2
BITMAP
2FE0
2920
4920
4920
C920
4FE0
4920
4920
4920
4920
4FE0
ENDCHAR
STARTCHAR U+4F44
ENCODING 20292
SWIDTH 481 0
DWIDTH 13 0
BBX 11 11 0 -2
BITMAP
2840
2840
5FE0
4840
C840
4840
4FC0
4840
4840
4840
4FC0
ENDCHAR
STARTCHAR U+4F45
ENCODING 20293
SWIDTH 481 0
DWIDTH 13 0
BBX 11 11 0 -2
BITMAP
2100
2FE0
4100
4100
CFE0
4540
4540
4540
4540
4920
4920
ENDCHAR
STARTCHAR U+4F46
ENCODING 20294
SWIDTH 481 0
DWIDTH 13 0
BBX 11 11 0 -2
BITMAP
2FC0
2840
4840
4FC0
C840
4840
4840
4FC0
4000
4000
5FE0
ENDCHAR
STARTCHAR U+4F47
ENCODING 20295
SWIDTH 481 0
DWIDTH 13 0
BBX 11 11 0 -2
BITMAP
2100
2FE0
4820
4820
C000
4FE0
4100
4100
4100
4100
4700
ENDCHAR
STARTCHAR U+4F48
ENCODING 20296
SWIDTH 481 0
DWIDTH 13 0
BBX 11 11 0 -2
BITMAP
2200
3FE0
4200
4500
C900
5FE0
4920
4920
4920
4960
4100
ENDCHAR
STARTCHAR U+4F49
ENCODING 20297
SWIDTH 481 0
DWIDTH 13 0
BBX 11 11 0 -2
BITMAP
2100
2100
4FE0
4100
C100
4FE0
4200
4200
4440
4440
4FA0
ENDCHAR
STARTCHAR U+4F4A
ENCODING 20298
SWIDTH 481 0
DWIDTH 13 0
BBX 11 11 0 -2
BITMAP
2100
2FE0
4900
4900
CFE0
4A20
4A20
4940
4940
5080
5760
ENDCHAR
STARTCHAR U+4F4B
ENCODING 20299
SWIDTH 481 0
DWIDTH 13 0
BBX 11 11 0 -2
BITMAP
2FE0
2220
4220
4420
C8E0
4000
4FE0
4820
4820
4820
4FE0
ENDCHAR
STARTCHAR U+4F4C
ENCODING 20300
SWIDTH 481 0
DWIDTH 13 0
BBX 11 11 0 -2
BITMAP
2400
2500
4500
5520
D740
5580
5500
5500
5720
5920
60E0
ENDCHAR
STARTCHAR U+4F4D
ENCODING 20301
SWIDTH 481 0
DWIDTH 13 0
BBX 11 11 0 -2
BITMAP
2100
2FE0
4000
4440
C440
4240
4240
4240
4280
4080
4FE0
ENDCHAR
STARTCHAR U+4F4E
ENCODING 20302
SWIDTH 481 0
DWIDTH 13 0
BBX 11 11 0 -2
BITMAP
2060
2F80
4900
4900
CFE0
4900
4900
48A0
5EA0
4040
4F80
ENDCHAR
STARTCHAR U+4F4F
ENCODING 20303
SWIDTH 481 0
DWIDTH 13 0
BBX 11 11 0 -2
BITMAP
2200
2100
4FE0
4100
C100
4100
4FE0
4100
4100
4100
4FE0
ENDCHAR
STARTCHAR U+4F50
ENCODING 20304
SWIDTH 481 0
DWIDTH 13 0
BBX 11 11 0 -2
BITMAP
2200
2200
5FE0
4400
C400
4400
4FC0
4900
5100
4100
4FE0
ENDCHAR
STARTCHAR U+4F51
ENCODING 20305
SWIDTH 481 0
DWIDTH 13 0
BBX 11 11 0 -2
BITMAP
2200
2200
5FE0
4200
C400
4400
4FE0
5420
4420
4420
47E0
ENDCHAR
STARTCHAR U+4F52
ENCODING 20306
SWIDTH 481 0
DWIDTH 13 0
BBX 11 11 0 -2
BITMAP
2200
2200
5FC0
5240
D240
5240
5FE0
4500
4500
4880
5040
ENDCHAR
STARTCHAR U+4F53
ENCODING 20307
SWIDTH 481 0
DWIDTH 13 0
BBX 11 11 0 -2
BITMAP
2100
2100
4FE0
4540
C540
4540
4540
4920
4BA0
4100
4100
ENDCHAR
STARTCHAR U+4F54
ENCODING 20308
SWIDTH 481 0
DWIDTH 13 0
BBX 11 11 0 -2
BITMAP
2100
2100
41E0
4100
C100
4100
4FE0
4820
4820
4820
4FE0
ENDCHAR
STARTCHAR U+4F55
ENCODING 20309
SWIDTH 481 0
DWIDTH 13 0
BBX 11 11 0 -2
BITMAP
2FE0
2040
4040
4F40
C940
4940
4940
4F40
4040
4040
41C0
ENDCHAR
STARTCHAR U+4F56
ENCODING 20310
SWIDTH 481 0
DWIDTH 13 0
BBX 11 11 0 -2
BITMAP
2200
2100
4540
4440
C480
54A0
5520
5600
6440
4C40
57C0
ENDCHAR
STARTCHAR U+4F57
ENCODING 20311
SWIDTH 481 0
DWIDTH 13 0
BBX 11 11 0 -2
BITMAP
2100
2FE0
4820
4000
C420
44C0
4700
4400
4420
4420
47E0
ENDCHAR
STARTCHAR U+4F58
ENCODING 20312
SWIDTH 481 0
DWIDTH 13 0
BBX 11 11 0 -2
BITMAP
0400
0A00
3180
DF60
0000
0000
FFE0
0400
2480
C460
1C00
ENDCHAR
STARTCHAR U+4F59
ENCODING 20313
SWIDTH 481 0
DWIDTH 13 0
BBX 11 11 0 -2
BITMAP
0400
0A00
3180
DF60
0400
0400
FFE0
0400
2480
C460
1C00
ENDCHAR
STARTCHAR U+4F5A
ENCODING 20314
SWIDTH 481 0
DWIDTH 13 0
BBX 11 11 0 -2
BITMAP
2100
2900
4FE0
5100
C100
4FE0
4100
4280
4280
4440
4820
ENDCHAR
STARTCHAR U+4F5B
ENCODING 20315
SWIDTH 481 0
DWIDTH 13 0
BBX 11 11 0 -2
BITMAP
2480
3FE0
44A0
44A0
DFE0
5480
5FE0
44A0
44A0
44E0
4880
ENDCHAR
STARTCHAR U+4F5C
ENCODING 20316
SWIDTH 481 0
DWIDTH 13 0
BBX 11 11 0 -2
BITMAP
2400
27E0
4A00
4A00
D3E0
4200
4200
43E0
4200
4200
4200
ENDCHAR
STARTCHAR U+4F5D
ENCODING 20317
SWIDTH 481 0
DWIDTH 13 0
BBX 11 11 0 -2
BITMAP
2400
27E0
4820
4820
D7A0
44A0
44A0
44A0
47A0
4020
40E0
ENDCHAR
STARTCHAR U+4F5E
ENCODING 20318
SWIDTH 481 0
DWIDTH 13 0
BBX 11 11 0 -2
BITMAP
2FC0
2000
4000
5FE0
C200
4200
5FE0
4440
4C80
4300
5CE0
ENDCHAR
STARTCHAR U+4F5F
ENCODING 20319
SWIDTH 481 0
DWIDTH 13 0
BBX 11 11 0 -2
BITMAP
2400
27C0
4840
5480
C300
4480
5860
4200
4100
4C00
43C0
ENDCHAR
STARTCHAR U+4F60
ENCODING 20320
SWIDTH 481 0
DWIDTH 13 0
BBX 11 11 0 -2
BITMAP
2800
2FE0
4820
5120
C100
4540
4540
4920
4920
4100
4300
ENDCHAR
STARTCHAR U+4F61
ENCODING 20321
SWIDTH 481 0
DWIDTH 13 0
BBX 11 11 0 -2
BITMAP
2100
2280
4440
4820
C000
4100
4920
4920
4920
4920
4FE0
ENDCHAR
STARTCHAR U+4F62
ENCODING 20322
SWIDTH 481 0
DWIDTH 13 0
BBX 11 11 0 -2
BITMAP
2FE0
2800
4800
4FC0
C840
4840
4840
4FC0
4800
4800
4FE0
ENDCHAR
STARTCHAR U+4F63
ENCODING 20323
SWIDTH 481 0
DWIDTH 13 0
BBX 11 11 0 -2
BITMAP
2FE0
2920
4920
4FE0
C920
4920
4FE0
4920
4920
5120
5160
ENDCHAR
STARTCHAR U+4F64
ENCODING 20324
SWIDTH 481 0
DWIDTH 13 0
BBX 11 11 0 -2
BITMAP
2FE0
2400
4400
4780
C480
4480
4A80
4980
48A0
48A0
4EE0
ENDCHAR
STARTCHAR U+4F65
ENCODING 20325
SWIDTH 481 0
DWIDTH 13 0
BBX 11 11 0 -2
BITMAP
0400
0A00
3180
C060
7F80
0040
4840
2440
2480
0080
7FC0
ENDCHAR
STARTCHAR U+4F66
ENCODING 20326
SWIDTH 481 0
DWIDTH 13 0
BBX 11 11 0 -2
BITMAP
2FE0
2200
4200
4400
C7E0
4C20
5420
4420
4420
4420
47E0
ENDCHAR
STARTCHAR U+4F67
ENCODING 20327
SWIDTH 481 0
DWIDTH 13 0
BBX 11 11 0 -2
BITMAP
2200
23C0
4200
4200
DFE0
4200
4300
4280
4260
4200
4200
ENDCHAR
STARTCHAR U+4F68
ENCODING 20328
SWIDTH 481 0
DWIDTH 13 0
BBX 11 11 0 -2
BITMAP
2800
2FC0
5040
4F40
C940
4940
4F40
4840
49C0
4820
4FE0
ENDCHAR
STARTCHAR U+4F69
ENCODING 20329
SWIDTH 481 0
DWIDTH 13 0
BBX 11 11 0 -2
BITMAP
3FC0
3040
5F40
5440
DF40
5540
5540
5540
5540
5760
6420
ENDCHAR
STARTCHAR U+4F6A
ENCODING 20330
SWIDTH 481 0
DWIDTH 13 0
BBX 11 11 0 -2
BITMAP
2FE0
2820
4820
4BA0
CAA0
4AA0
4AA0
4BA0
4820
4820
4FE0
ENDCHAR
STARTCHAR U+4F6B
ENCODING 20331
SWIDTH 481 0
DWIDTH 13 0
BBX 11 11 0 -2
BITMAP
2400
27C0
4840
5480
C300
4480
5860
4FC0
4840
4840
4FC0
ENDCHAR
STARTCHAR U+4F6C
ENCODING 20332
SWIDTH 481 0
DWIDTH 13 0
BBX 11 11 0 -2
BITMAP
2200
2FA0
4240
4280
DFE0
4400
4C20
54C0
6700
4420
47E0
ENDCHAR
STARTCHAR U+4F6D
ENCODING 20333
SWIDTH 481 0
DWIDTH 13 0
BBX 11 11 0 -2
BITMAP
2400
27C0
4840
5480
C300
5CE0
4100
4FC0
4900
4FE0
4100
ENDCHAR
STARTCHAR U+4F6E
ENCODING 20334
SWIDTH 481 0
DWIDTH 13 0
BBX 11 11 0 -2
BITMAP
2100
2280
4440
4820
C7C0
4000
4FE0
4820
4820
4820
4FE0
ENDCHAR
STARTCHAR U+4F6F
ENCODING 20335
SWIDTH 481 0
DWIDTH 13 0
BBX 11 11 0 -2
BITMAP
2820
2440
4FE0
4100
C100
4FE0
4100
4100
4FE0
4100
4100
ENDCHAR
STARTCHAR U+4F70
ENCODING 20336
SWIDTH 481 0
DWIDTH 13 0
BBX 11 11 0 -2
BITMAP
2FE0
2100
4100
4FE0
C820
4820
4FE0
4820
4820
4820
4FE0
ENDCHAR
STARTCHAR U+4F71
ENCODING 20337
SWIDTH 481 0
DWIDTH 13 0
BBX 11 11 0 -2
BITMAP
0400
0A00
3180
C060
3F80
0000
FFE0
0400
27C0
2400
FFE0
ENDCHAR
STARTCHAR U+4F72
ENCODING 20338
SWIDTH 481 0
DWIDTH 13 0
BBX 11 11 0 -2
BITMAP
2400
27E0
4820
5440
C280
4100
47E0
5820
4820
4820
4FE0
ENDCHAR
STARTCHAR U+4F73
ENCODING 20339
SWIDTH 481 0
DWIDTH 13 0
BBX 11 11 0 -2
BITMAP
2100
2FE0
4100
4100
DFE0
4000
4100
4FE0
4100
4100
5FE0
ENDCHAR
STARTCHAR U+4F74
ENCODING 20340
SWIDTH 481 0
DWIDTH 13 0
BBX 11 11 0 -2
BITMAP
2FE0
2440
4440
47C0
C440
4440
47C0
4440
4440
4FE0
4040
ENDCHAR
STARTCHAR U+4F75
ENCODING 20341
SWIDTH 481 0
DWIDTH 13 0
BBX 11 11 0 -2
BITMAP
2840
2480
5FE0
4480
C480
4480
5FE0
4480
4480
4480
4880
ENDCHAR
STARTCHAR U+4F76
ENCODING 20342
SWIDTH 481 0
DWIDTH 13 0
BBX 11 11 0 -2
BITMAP
2100
2FE0
4100
4100
CFE0
4000
4FE0
4820
4820
4820
4FE0
ENDCHAR
STARTCHAR U+4F77
ENCODING 20343
SWIDTH 481 0
DWIDTH 13 0
BBX 11 11 0 -2
BITMAP
2FE0
2820
4FE0
4820
CFE0
4A00
4A20
4920
4940
4880
5D60
ENDCHAR
STARTCHAR U+4F78
ENCODING 20344
SWIDTH 481 0
DWIDTH 13 0
BBX 11 11 0 -2
BITMAP
20E0
2F00
4100
4FE0
C100
4100
4FE0
4820
4820
4820
4FE0
ENDCHAR
STARTCHAR U+4F79
ENCODING 20345
SWIDTH 481 0
DWIDTH 13 0
BBX 11 11 0 -2
BITMAP
2200
23C0
4440
4FE0
C800
4BE0
4A20
4AE0
4A00
5220
53E0
ENDCHAR
STARTCHAR U+4F7A
ENCODING 20346
SWIDTH 481 0
DWIDTH 13 0
BBX 11 11 0 -2
BITMAP
2100
2280
4440
4820
C7C0
4100
4100
47C0
4100
4100
4FE0
ENDCHAR
STARTCHAR U+4F7B
ENCODING 20347
SWIDTH 481 0
DWIDTH 13 0
BBX 11 11 0 -2
BITMAP
2280
2280
4AA0
46C0
C280
4280
46C0
4AA0
4280
44A0
58E0
ENDCHAR
STARTCHAR U+4F7C
ENCODING 20348
SWIDTH 481 0
DWIDTH 13 0
BBX 11 11 0 -2
BITMAP
2100
2FE0
4280
4440
C820
4440
4440
4280
4100
4280
4C60
ENDCHAR
STARTCHAR U+4F7D
ENCODING 20349
SWIDTH 481 0
DWIDTH 13 0
BBX 11 11 0 -2
BITMAP
2400
27E0
4420
5100
C900
4100
4100
4A80
5280
4440
4820
ENDCHAR
STARTCHAR U+4F7E
ENCODING 20350
SWIDTH 481 0
DWIDTH 13 0
BBX 11 11 0 -2
BITMAP
2440
2440
4820
4000
CFE0
4820
4FE0
4820
4FE0
4820
4860
ENDCHAR
STARTCHAR U+4F7F
ENCODING 20351
SWIDTH 481 0
DWIDTH 13 0
BBX 11 11 0 -2
BITMAP
2100
2FE0
4100
4FE0
C920
4920
4FE0
4100
4500
4200
4DE0
ENDCHAR
STARTCHAR U+4F80
ENCODING 20352
SWIDTH 481 0
DWIDTH 13 0
BBX 11 11 0 -2
BITMAP
3F20
2A20
4AA0
4AA0
DEA0
4AA0
4AA0
4AA0
4A20
4A20
4AE0
ENDCHAR
STARTCHAR U+4F81
ENCODING 20353
SWIDTH 481 0
DWIDTH 13 0
BBX 11 11 0 -2
BITMAP
2900
2FE0
4900
5100
C100
5FE0
4280
4280
44A0
44A0
58E0
ENDCHAR
STARTCHAR U+4F82
ENCODING 20354
SWIDTH 481 0
DWIDTH 13 0
BBX 11 11 0 -2
BITMAP
2100
2FE0
4800
48C0
CB00
4900
49E0
4F00
4900
5120
50E0
ENDCHAR
STARTCHAR U+4F83
ENCODING 20355
SWIDTH 481 0
DWIDTH 13 0
BBX 11 11 0 -2
BITMAP
3FC0
3040
5040
5FC0
C000
4A80
4A80
4A80
4AA0
4AA0
52E0
ENDCHAR
STARTCHAR U+4F84
ENCODING 20356
SWIDTH 481 0
DWIDTH 13 0
BBX 11 11 0 -2
BITMAP
2FE0
2200
4240
4440
CFA0
4100
4100
4FE0
4100
4100
4FE0
ENDCHAR
STARTCHAR U+4F85
ENCODING 20357
SWIDTH 481 0
DWIDTH 13 0
BBX 11 11 0 -2
BITMAP
2200
2200
5FC0
4400
C880
4500
4240
4480
5980
4240
5C20
ENDCHAR
STARTCHAR U+4F86
ENCODING 20358
SWIDTH 481 0
DWIDTH 13 0
BBX 11 11 0 -2
BITMAP
0400
FFE0
0400
2480
2480
5540
8E20
1500
2480
C460
0400
ENDCHAR
STARTCHAR U+4F87
ENCODING 20359
SWIDTH 481 0
DWIDTH 13 0
BBX 11 11 0 -2
BITMAP
2200
3FE0
4200
5FC0
C240
4FC0
5200
5FE0
4220
4520
58C0
ENDCHAR
STARTCHAR U+4F88
ENCODING 20360
SWIDTH 481 0
DWIDTH 13 0
BBX 11 11 0 -2
BITMAP
2200
27C0
5840
4480
C300
5D00
43E0
4C20
4240
4180
4E00
ENDCHAR
STARTCHAR U+4F89
ENCODING 20361
SWIDTH 481 0
DWIDTH 13 0
BBX 11 11 0 -2
BITMAP
2100
2FE0
4440
4820
C7C0
4000
4FE0
4400
47E0
4020
41E0
ENDCHAR
STARTCHAR U+4F8A
ENCODING 20362
SWIDTH 481 0
DWIDTH 13 0
BBX 11 11 0 -2
BITMAP
1100
1120
2920
2540
6100
AFE0
2280
2280
2480
24A0
28E0
ENDCHAR
STARTCHAR U+4F8B
ENCODING 20363
SWIDTH 481 0
DWIDTH 13 0
BBX 11 11 0 -2
BITMAP
3E20
28A0
48A0
4EA0
CAA0
52A0
6AA0
44A0
44A0
4820
50E0
ENDCHAR
STARTCHAR U+4F8C
ENCODING 20364
SWIDTH 481 0
DWIDTH 13 0
BBX 11 11 0 -2
BITMAP
0E00
3180
CE60
0000
3F80
0100
7FC0
0000
FFE0
2080
7F40
ENDCHAR
STARTCHAR U+4F8D
ENCODING 20365
SWIDTH 481 0
DWIDTH 13 0
BBX 11 11 0 -2
BITMAP
2100
2FE0
4100
4100
DFE0
4040
5FE0
4840
4440
4040
41C0
ENDCHAR
STARTCHAR U+4F8E
ENCODING 20366
SWIDTH 481 0
DWIDTH 13 0
BBX 11 11 0 -2
BITMAP
2200
2200
5240
4A80
C200
5FE0
4700
4A80
5240
4220
4200
ENDCHAR
STARTCHAR U+4F8F
ENCODING 20367
SWIDTH 481 0
DWIDTH 13 0
BBX 11 11 0 -2
BITMAP
2100
2900
4FE0
5100
C100
4FE0
4100
4380
4540
4920
4100
ENDCHAR
STARTCHAR U+4F90
ENCODING 20368
SWIDTH 481 0
DWIDTH 13 0
BBX 11 11 0 -2
BITMAP
2200
2200
5FC0
5540
D540
5540
5540
5540
5540
5540
7FE0
ENDCHAR
STARTCHAR U+4F91
ENCODING 20369
SWIDTH 481 0
DWIDTH 13 0
BBX 11 11 0 -2
BITMAP
2200
2200
5FE0
4400
CFE0
5820
4FE0
4820
4FE0
4820
4860
ENDCHAR
STARTCHAR U+4F92
ENCODING 20370
SWIDTH 481 0
DWIDTH 13 0
BBX 11 11 0 -2
BITMAP
2100
2100
5FE0
5220
C200
5FE0
4480
4900
4F00
4280
5C40
ENDCHAR
STARTCHAR U+4F93
ENCODING 20371
SWIDTH 481 0
DWIDTH 13 0
BBX 11 11 0 -2
BITMAP
2200
2FC0
4240
5FE0
C240
4FC0
4200
4FC0
4200
5FE0
4200
ENDCHAR
STARTCHAR U+4F94
ENCODING 20372
SWIDTH 481 0
DWIDTH 13 0
BBX 11 11 0 -2
BITMAP
2200
2440
4840
5FA0
C900
4FE0
5100
4100
5FE0
4100
4100
ENDCHAR
STARTCHAR U+4F95
ENCODING 20373
SWIDTH 481 0
DWIDTH 13 0
BBX 11 11 0 -2
BITMAP
2000
2FE0
4100
4200
CFE0
4AA0
4AA0
4AA0
4AA0
4AA0
4860
ENDCHAR
STARTCHAR U+4F96
ENCODING 20374
SWIDTH 481 0
DWIDTH 13 0
BBX 11 11 0 -2
BITMAP
0400
0A00
3180
DF60
0000
7FC0
4A40
7FC0
4A40
4A40
4AC0
ENDCHAR
STARTCHAR U+4F97
ENCODING 20375
SWIDTH 481 0
DWIDTH 13 0
BBX 11 11 0 -2
BITMAP
2FE0
2820
4BA0
4820
CBA0
4AA0
4AA0
4AA0
4BA0
4820
4860
ENDCHAR
STARTCHAR U+4F98
ENCODING 20376
SWIDTH 481 0
DWIDTH 13 0
BBX 11 11 0 -2
BITMAP
2200
3FE0
5020
51A0
CE00
4200
43E0
5E00
4200
4220
43E0
ENDCHAR
STARTCHAR U+4F99
ENCODING 20377
SWIDTH 481 0
DWIDTH 13 0
BBX 11 11 0 -2
BITMAP
2140
2120
4100
5FC0
C100
5D00
4900
48A0
4CA0
5860
4020
ENDCHAR
STARTCHAR U+4F9A
ENCODING 20378
SWIDTH 481 0
DWIDTH 13 0
BBX 10 11 0 -2
BITMAP
2400
2400
4FC0
5040
CF40
4940
4F40
4940
4F40
4040
4180
ENDCHAR
STARTCHAR U+4F9B
ENCODING 20379
SWIDTH 481 0
DWIDTH 13 0
BBX 11 11 0 -2
BITMAP
2480
2480
5FE0
4480
C480
4480
5FE0
4000
4480
4840
5020
ENDCHAR
STARTCHAR U+4F9C
ENCODING 20380
SWIDTH 481 0
DWIDTH 13 0
BBX 11 11 0 -2
BITMAP
2200
2FC0
4840
4C40
CA40
4840
5FE0
4A40
4A40
4A40
5180
ENDCHAR
STARTCHAR U+4F9D
ENCODING 20381
SWIDTH 481 0
DWIDTH 13 0
BBX 11 11 0 -2
BITMAP
2100
2FE0
4280
4280
C4A0
44A0
4CC0
5480
4440
4740
4C20
ENDCHAR
STARTCHAR U+4F9E
ENCODING 20382
SWIDTH 481 0
DWIDTH 13 0
BBX 11 11 0 -2
BITMAP
2800
2800
48E0
7EA0
CAA0
4AA0
52A0
54A0
5CA0
4AA0
52E0
ENDCHAR
STARTCHAR U+4F9F
ENCODING 20383
SWIDTH 481 0
DWIDTH 13 0
BBX 11 11 0 -2
BITMAP
2200
2200
5FE0
4400
CBC0
5840
6880
4FE0
4880
4880
4980
ENDCHAR
STARTCHAR U+4FA0
ENCODING 20384
SWIDTH 481 0
DWIDTH 13 0
BBX 11 11 0 -2
BITMAP
2100
2FE0
4100
4920
C540
4100
4FE0
4280
4280
4440
4820
ENDCHAR
STARTCHAR U+4FA1
ENCODING 20385
SWIDTH 481 0
DWIDTH 13 0
BBX 11 11 0 -2
BITMAP
2FE0
2280
4280
4280
CFE0
4AA0
4AA0
4AA0
4AA0
4AA0
4FE0
ENDCHAR
STARTCHAR U+4FA2
ENCODING 20386
SWIDTH 481 0
DWIDTH 13 0
BBX 11 11 0 -2
BITMAP
2000
3FE0
4200
4FC0
CA40
5FE0
4A40
5FE0
4840
4840
48C0
ENDCHAR
STARTCHAR U+4FA3
ENCODING 20387
SWIDTH 481 0
DWIDTH 13 0
BBX 11 11 0 -2
BITMAP
2FC0
2840
4840
4840
CFC0
4000
5FE0
5020
5020
5020
5FE0
ENDCHAR
STARTCHAR U+4FA4
ENCODING 20388
SWIDTH 481 0
DWIDTH 13 0
BBX 11 11 0 -2
BITMAP
2400
2440
5E80
4500
DFE0
4200
4780
4C00
57C0
6040
4180
ENDCHAR
STARTCHAR U+4FA5
ENCODING 20389
SWIDTH 481 0
DWIDTH 13 0
BBX 11 11 0 -2
BITMAP
2200
23E0
5E00
4140
C0A0
4F40
4000
5FE0
4480
44A0
5860
ENDCHAR
STARTCHAR U+4FA6
ENCODING 20390
SWIDTH 481 0
DWIDTH 13 0
BBX 11 11 0 -2
BITMAP
2100
21E0
4100
4FE0
C820
4920
4920
4920
4920
4280
4C60
ENDCHAR
STARTCHAR U+4FA7
ENCODING 20391
SWIDTH 481 0
DWIDTH 13 0
BBX 11 11 0 -2
BITMAP
5E20
52A0
52A0
D6A0
56A0
56A0
56A0
56A0
44A0
4A20
52E0
ENDCHAR
STARTCHAR U+4FA8
ENCODING 20392
SWIDTH 481 0
DWIDTH 13 0
BBX 11 11 0 -2
BITMAP
20E0
2F00
4100
4FE0
C280
4440
4C60
4440
4440
4840
4840
ENDCHAR
STARTCHAR U+4FA9
ENCODING 20393
SWIDTH 481 0
DWIDTH 13 0
BBX 11 11 0 -2
BITMAP
2300
2480
4840
57A0
C000
4000
5FE0
4400
4440
4840
5FA0
ENDCHAR
STARTCHAR U+4FAA
ENCODING 20394
SWIDTH 481 0
DWIDTH 13 0
BBX 11 11 0 -2
BITMAP
2100
2FE0
4440
4280
C100
4EE0
4000
4440
4440
4440
4840
ENDCHAR
STARTCHAR U+4FAB
ENCODING 20395
SWIDTH 481 0
DWIDTH 13 0
BBX 11 11 0 -2
BITMAP
2100
3FE0
4800
4800
C7C0
4200
5FE0
4440
4F80
4140
5E20
ENDCHAR
STARTCHAR U+4FAC
ENCODING 20396
SWIDTH 481 0
DWIDTH 13 0
BBX 11 11 0 -2
BITMAP
2100
3FE0
5220
5620
CA00
5920
4940
4880
4880
4840
4E20
ENDCHAR
STARTCHAR U+4FAD
ENCODING 20397
SWIDTH 481 0
DWIDTH 13 0
BBX 11 11 0 -2
BITMAP
2FC0
2840
4840
4FC0
CA00
4900
5080
5640
6020
6600
4180
ENDCHAR
STARTCHAR U+4FAE
ENCODING 20398
SWIDTH 481 0
DWIDTH 13 0
BBX 11 11 0 -2
BITMAP
2400
27E0
4800
57C0
C540
4540
4FE0
4540
4540
47E0
40C0
ENDCHAR
STARTCHAR U+4FAF
ENCODING 20399
SWIDTH 481 0
DWIDTH 13 0
BBX 11 11 0 -2
BITMAP
2FC0
2040
5FE0
4800
CFC0
5200
4200
5FE0
4200
4500
58E0
ENDCHAR
STARTCHAR U+4FB0
ENCODING 20400
SWIDTH 481 0
DWIDTH 13 0
BBX 11 11 0 -2
BITMAP
2000
2FC0
4240
5FE0
C240
4FC0
4400
4FC0
5840
6840
4FC0
ENDCHAR
STARTCHAR U+4FB1
ENCODING 20401
SWIDTH 481 0
DWIDTH 13 0
BBX 11 11 0 -2
BITMAP
2FC0
2840
4840
4FC0
C000
40C0
4F00
4100
4FE0
4100
5FE0
ENDCHAR
STARTCHAR U+4FB2
ENCODING 20402
SWIDTH 481 0
DWIDTH 13 0
BBX 11 11 0 -2
BITMAP
2000
2FE0
4800
4FC0
C800
4FE0
4A80
4AA0
4AC0
4B40
5620
ENDCHAR
STARTCHAR U+4FB3
ENCODING 20403
SWIDTH 481 0
DWIDTH 13 0
BBX 11 11 0 -2
BITMAP
2200
2A80
4A80
4A80
D740
5240
4200
5FC0
4200
4200
7FE0
ENDCHAR
STARTCHAR U+4FB4
ENCODING 20404
SWIDTH 481 0
DWIDTH 13 0
BBX 11 11 0 -2
BITMAP
0400
0A00
3180
CE60
0000
7840
2940
FD40
2940
2940
FCC0
ENDCHAR
STARTCHAR U+4FB5
ENCODING 20405
SWIDTH 481 0
DWIDTH 13 0
BBX 11 11 0 -2
BITMAP
2FC0
2040
4FC0
4040
DFE0
5020
4FC0
4480
4300
4480
5860
ENDCHAR
STARTCHAR U+4FB6
ENCODING 20406
SWIDTH 481 0
DWIDTH 13 0
BBX 11 11 0 -2
BITMAP
2FC0
2840
4840
4840
CFC0
4200
5FE0
5020
5020
5020
5FE0
ENDCHAR
STARTCHAR U+4FB7
ENCODING 20407
SWIDTH 481 0
DWIDTH 13 0
BBX 11 11 0 -2
BITMAP
2FC0
2840
4840
4FC0
C800
4FE0
4820
57A0
54A0
67A0
4060
ENDCHAR
STARTCHAR U+4FB8
ENCODING 20408
SWIDTH 481 0
DWIDTH 13 0
BBX 11 11 0 -2
BITMAP
2FE0
2000
4FE0
4820
C820
4820
4FE0
4000
4820
4440
4FE0
ENDCHAR
STARTCHAR U+4FB9
ENCODING 20409
SWIDTH 481 0
DWIDTH 13 0
BBX 11 11 0 -2
BITMAP
2020
3DC0
4440
4840
DDE0
4440
5440
6840
49E0
5400
63E0
ENDCHAR
STARTCHAR U+4FBA
ENCODING 20410
SWIDTH 481 0
DWIDTH 13 0
BBX 11 11 0 -2
BITMAP
2A40
2A40
4FC0
4200
C500
4880
7760
4000
4F80
4080
4100
ENDCHAR
STARTCHAR U+4FBB
ENCODING 20411
SWIDTH 481 0
DWIDTH 13 0
BBX 11 11 0 -2
BITMAP
2300
2880
4840
5020
CFC0
4840
4FC0
4500
4500
4920
50E0
ENDCHAR
STARTCHAR U+4FBC
ENCODING 20412
SWIDTH 481 0
DWIDTH 13 0
BBX 11 11 0 -2
BITMAP
2100
2FC0
4100
5FE0
D020
4780
4080
4100
5FE0
4100
4300
ENDCHAR
STARTCHAR U+4FBD
ENCODING 20413
SWIDTH 481 0
DWIDTH 13 0
BBX 11 11 0 -2
BITMAP
2FE0
2920
4FE0
4920
CFE0
4100
5FE0
4120
4220
4420
59C0
ENDCHAR
STARTCHAR U+4FBE
ENCODING 20414
SWIDTH 481 0
DWIDTH 13 0
BBX 11 11 0 -2
BITMAP
2200
2F40
4280
5FE0
C200
4F80
4480
4900
5FE0
4100
4300
ENDCHAR
STARTCHAR U+4FBF
ENCODING 20415
SWIDTH 481 0
DWIDTH 13 0
BBX 11 11 0 -2
BITMAP
2FE0
2100
4FE0
4920
CFE0
4920
4FE0
4100
4500
4200
4DE0
ENDCHAR
STARTCHAR U+4FC0
ENCODING 20416
SWIDTH 481 0
DWIDTH 13 0
BBX 11 11 0 -2
BITMAP
21C0
2E00
4A40
5120
C400
5FE0
4480
4900
4F00
4280
5C40
ENDCHAR
STARTCHAR U+4FC1
ENCODING 20417
SWIDTH 481 0
DWIDTH 13 0
BBX 11 11 0 -2
BITMAP
23C0
2A40
4A40
4BC0
C800
4FC0
4240
5FE0
4200
4580
5860
ENDCHAR
STARTCHAR U+4FC2
ENCODING 20418
SWIDTH 481 0
DWIDTH 13 0
BBX 11 11 0 -2
BITMAP
20C0
2F00
4240
4C80
C300
4C40
5FA0
4200
4A80
4A40
5220
ENDCHAR
STARTCHAR U+4FC3
ENCODING 20419
SWIDTH 481 0
DWIDTH 13 0
BBX 11 11 0 -2
BITMAP
2FE0
2820
4820
4820
CFE0
4100
4900
49E0
4900
5700
51E0
ENDCHAR
STARTCHAR U+4FC4
ENCODING 20420
SWIDTH 481 0
DWIDTH 13 0
BBX 11 11 0 -2
BITMAP
2E80
24A0
4480
5FE0
C480
44A0
46A0
5C40
4440
44E0
4D20
ENDCHAR
STARTCHAR U+4FC5
ENCODING 20421
SWIDTH 481 0
DWIDTH 13 0
BBX 11 11 0 -2
BITMAP
2280
2240
5FE0
4200
D240
4A80
4700
4A80
5240
4220
4600
ENDCHAR
STARTCHAR U+4FC6
ENCODING 20422
SWIDTH 481 0
DWIDTH 13 0
BBX 11 11 0 -2
BITMAP
2200
2500
4880
5040
EFA0
4200
5FC0
4200
4A80
5240
6620
ENDCHAR
STARTCHAR U+4FC7
ENCODING 20423
SWIDTH 481 0
DWIDTH 13 0
BBX 11 11 0 -2
BITMAP
3200
2AE0
4440
4C40
D240
46E0
4A40
5240
4240
4240
4CE0
ENDCHAR
STARTCHAR U+4FC8
ENCODING 20424
SWIDTH 481 0
DWIDTH 13 0
BBX 11 11 0 -2
BITMAP
2900
2FE0
5100
4100
CFE0
4100
4FE0
4820
4820
4820
4FE0
ENDCHAR
STARTCHAR U+4FC9
ENCODING 20425
SWIDTH 481 0
DWIDTH 13 0
BBX 11 11 0 -2
BITMAP
2FE0
2100
4FC0
4240
C240
4FE0
4000
4FE0
4820
4820
4FE0
ENDCHAR
STARTCHAR U+4FCA
ENCODING 20426
SWIDTH 481 0
DWIDTH 13 0
BBX 11 11 0 -2
BITMAP
2400
2840
5FA0
4500
C9E0
5400
47C0
4840
5480
4300
5CE0
ENDCHAR
STARTCHAR U+4FCB
ENCODING 20427
SWIDTH 481 0
DWIDTH 13 0
BBX 11 11 0 -2
BITMAP
2F80
2880
4F80
4000
DFC0
5240
5240
5FC0
5000
5020
5FE0
ENDCHAR
STARTCHAR U+4FCC
ENCODING 20428
SWIDTH 481 0
DWIDTH 13 0
BBX 11 11 0 -2
BITMAP
2240
2200
5FE0
4200
DFC0
5240
5FC0
5240
5FC0
5240
52C0
ENDCHAR
STARTCHAR U+4FCD
ENCODING 20429
SWIDTH 481 0
DWIDTH 13 0
BBX 11 11 0 -2
BITMAP
2200
2FC0
4840
4FC0
C840
4FC0
4900
4920
48C0
4E80
5860
ENDCHAR
STARTCHAR U+4FCE
ENCODING 20430
SWIDTH 481 0
DWIDTH 13 0
BBX 11 11 0 -2
BITMAP
27C0
2440
2440
57C0
5440
8440
27C0
2440
5440
5440
8FE0
ENDCHAR
STARTCHAR U+4FCF
ENCODING 20431
SWIDTH 481 0
DWIDTH 13 0
BBX 11 11 0 -2
BITMAP
2920
2540
4100
4FE0
C820
4FE0
4820
4FE0
4820
4820
4860
ENDCHAR
STARTCHAR U+4FD0
ENCODING 20432
SWIDTH 481 0
DWIDTH 13 0
BBX 11 11 0 -2
BITMAP
2220
2CA0
44A0
5EA0
C4A0
44A0
4EA0
4CA0
54A0
4420
4460
ENDCHAR
STARTCHAR U+4FD1
ENCODING 20433
SWIDTH 481 0
DWIDTH 13 0
BBX 11 11 0 -2
BITMAP
2FE0
2240
4180
4FE0
C920
4FE0
4920
4FE0
4920
4920
4860
ENDCHAR
STARTCHAR U+4FD2
ENCODING 20434
SWIDTH 481 0
DWIDTH 13 0
BBX 11 11 0 -2
BITMAP
2200
2200
5FE0
5020
CF80
4000
5FC0
4500
4500
4920
50E0
ENDCHAR
STARTCHAR U+4FD3
ENCODING 20435
SWIDTH 481 0
DWIDTH 13 0
BBX 11 11 0 -2
BITMAP
2FE0
2000
4540
4A80
CA80
4540
4000
4FE0
4100
4100
5FE0
ENDCHAR
STARTCHAR U+4FD4
ENCODING 20436
SWIDTH 481 0
DWIDTH 13 0
BBX 11 11 0 -2
BITMAP
2FC0
2840
4FC0
4840
CFC0
4840
4FC0
4480
4480
48A0
50E0
ENDCHAR
STARTCHAR U+4FD5
ENCODING 20437
SWIDTH 481 0
DWIDTH 13 0
BBX 11 11 0 -2
BITMAP
2200
2200
5FC0
5040
C200
5FC0
4200
4700
4A80
5260
6200
ENDCHAR
STARTCHAR U+4FD6
ENCODING 20438
SWIDTH 481 0
DWIDTH 13 0
BBX 11 11 0 -2
BITMAP
2000
3FE0
4200
4680
CA40
5220
4000
4FC0
4840
4840
4FC0
ENDCHAR
STARTCHAR U+4FD7
ENCODING 20439
SWIDTH 481 0
DWIDTH 13 0
BBX 11 11 0 -2
BITMAP
2480
2480
4840
4300
C480
4840
5020
4FC0
4840
4840
4FC0
ENDCHAR
STARTCHAR U+4FD8
ENCODING 20440
SWIDTH 481 0
DWIDTH 13 0
BBX 11 11 0 -2
BITMAP
20C0
2F00
4A40
5120
CFC0
4080
4100
5FE0
4100
4100
4300
ENDCHAR
STARTCHAR U+4FD9
ENCODING 20441
SWIDTH 481 0
DWIDTH 13 0
BBX 11 11 0 -2
BITMAP
2CC0
2300
4CC0
4200
DFE0
4500
4FE0
5920
6920
4960
4100
ENDCHAR
STARTCHAR U+4FDA
ENCODING 20442
SWIDTH 481 0
DWIDTH 13 0
BBX 11 11 0 -2
BITMAP
2FE0
2920
4920
4FE0
C920
4920
4FE0
4100
4FE0
4100
4FE0
ENDCHAR
STARTCHAR U+4FDB
ENCODING 20443
SWIDTH 481 0
DWIDTH 13 0
BBX 11 11 0 -2
BITMAP
2400
2700
4900
5FC0
F240
5240
5FC0
4500
4500
4920
50E0
ENDCHAR
STARTCHAR U+4FDC
ENCODING 20444
SWIDTH 481 0
DWIDTH 13 0
BBX 11 11 0 -2
BITMAP
2100
2FE0
4920
4FE0
C920
4FE0
4000
4FE0
4200
47E0
4060
ENDCHAR
STARTCHAR U+4FDD
ENCODING 20445
SWIDTH 481 0
DWIDTH 13 0
BBX 11 11 0 -2
BITMAP
27C0
2440
4440
47C0
C100
4FE0
4540
4540
4540
4920
4100
ENDCHAR
STARTCHAR U+4FDE
ENCODING 20446
SWIDTH 481 0
DWIDTH 13 0
BBX 11 11 0 -2
BITMAP
0400
0A00
3180
DF60
0000
7D40
4540
7D40
4540
7D40
44C0
ENDCHAR
STARTCHAR U+4FDF
ENCODING 20447
SWIDTH 481 0
DWIDTH 13 0
BBX 11 11 0 -2
BITMAP
2400
2480
4840
5FA0
C800
4FE0
5100
4FE0
4100
4280
4C60
ENDCHAR
STARTCHAR U+4FE0
ENCODING 20448
SWIDTH 481 0
DWIDTH 13 0
BBX 11 11 0 -2
BITMAP
2200
2200
5FC0
4200
CA80
4A80
5740
4200
4500
4880
7060
ENDCHAR
STARTCHAR U+4FE1
ENCODING 20449
SWIDTH 481 0
DWIDTH 13 0
BBX 11 11 0 -2
BITMAP
2FC0
2000
5FE0
4000
CFC0
4000
4FC0
4000
4FC0
4840
4FC0
ENDCHAR
STARTCHAR U+4FE2
ENCODING 20450
SWIDTH 481 0
DWIDTH 13 0
BBX 11 11 0 -2
BITMAP
2400
27E0
4840
5480
C300
4480
5860
4180
4E00
40C0
4F00
ENDCHAR
STARTCHAR U+4FE3
ENCODING 20451
SWIDTH 481 0
DWIDTH 13 0
BBX 11 11 0 -2
BITMAP
2FE0
2820
4820
4FE0
C000
4FE0
4100
4FE0
4100
4280
4C60
ENDCHAR
STARTCHAR U+4FE4
ENCODING 20452
SWIDTH 481 0
DWIDTH 13 0
BBX 11 11 0 -2
BITMAP
2840
2480
5FE0
4220
DFE0
5200
5FE0
4220
4620
5AE0
4200
ENDCHAR
STARTCHAR U+4FE5
ENCODING 20453
SWIDTH 481 0
DWIDTH 13 0
BBX 11 11 0 -2
BITMAP
2100
2FE0
4100
4FE0
C920
4FE0
4920
4FE0
4100
4FE0
4100
ENDCHAR
STARTCHAR U+4FE6
ENCODING 20454
SWIDTH 481 0
DWIDTH 13 0
BBX 11 11 0 -2
BITMAP
2100
2FE0
4200
5FE0
C400
5FE0
4880
5FE0
4480
4280
4380
ENDCHAR
STARTCHAR U+4FE7
ENCODING 20455
SWIDTH 481 0
DWIDTH 13 0
BBX 11 11 0 -2
BITMAP
2100
2100
5FE0
4100
C100
4FC0
4200
5140
5420
64A0
4380
ENDCHAR
STARTCHAR U+4FE8
ENCODING 20456
SWIDTH 481 0
DWIDTH 13 0
BBX 11 11 0 -2
BITMAP
2FE0
2280
4AA0
46C0
C280
4FE0
4800
4800
4800
5000
5000
ENDCHAR
STARTCHAR U+4FE9
ENCODING 20457
SWIDTH 481 0
DWIDTH 13 0
BBX 11 11 0 -2
BITMAP
3FE0
2480
4480
5FE0
D4A0
54A0
54A0
5B60
5020
5020
5060
ENDCHAR
ENDFONT
